<svg height="256" viewBox="0 0 256 256" width="256" xmlns="http://www.w3.org/2000/svg"><g transform="translate(0 -796.36216)"><path d="m1.8439354 798.20612h252.31212v252.31213h-252.31212z" fill="#fff"/><rect fill="#f2f2f2" height="23" ry="3.7123106" width="23" x="4" y="1025.3622"/><rect fill="#f2f2f2" height="23" ry="3.7123106" width="23" x="29" y="1025.3622"/><rect fill="#f2f2f2" height="23" ry="3.7123106" width="23" x="54" y="1025.3622"/><rect fill="#f2f2f2" height="23" ry="3.7123106" width="23" x="79" y="1025.3622"/><rect fill="#f2f2f2" height="23" ry="3.7123106" width="23" x="129" y="1025.3622"/><rect fill="#f2f2f2" height="23" ry="3.7123106" width="23" x="154" y="1025.3622"/><rect fill="#f2f2f2" height="23" ry="3.7123106" width="23" x="179" y="1025.3622"/><rect fill="#f2f2f2" height="23" ry="3.7123106" width="23" x="204.00002" y="1025.3622"/><rect fill="#f2f2f2" height="23" ry="3.7123106" width="23" x="104.00001" y="1025.3622"/><rect fill="#f2f2f2" height="23" ry="3.7123106" width="23" x="229" y="1025.3622"/><rect fill="#f2f2f2" height="23" ry="3.7123106" width="23" x="4" y="1000.3621"/><rect fill="#48c9a5" height="23" ry="3.7123106" width="23" x="29" y="1000.3621"/><rect fill="#48c9a5" height="23" ry="3.7123106" width="23" x="54" y="1000.3621"/><rect fill="#48c9a5" height="23" ry="3.7123106" width="23" x="79" y="1000.3621"/><rect fill="#f2f2f2" height="23" ry="3.7123106" width="23" x="129" y="1000.3621"/><rect fill="#f1bc3a" height="23" ry="3.7123106" width="23" x="154" y="1000.3621"/><rect fill="#f2f2f2" height="23" ry="3.7123106" width="23" x="179" y="1000.3621"/><rect fill="#f2f2f2" height="23" ry="3.7123106" width="23" x="204.00002" y="1000.3621"/><rect fill="#48c9a5" height="23" ry="3.7123106" width="23" x="104.00001" y="1000.3621"/><rect fill="#f2f2f2" height="23" ry="3.7123106" width="23" x="229" y="1000.3621"/><rect fill="#f2f2f2" height="23" ry="3.7123106" width="23" x="4" y="975.36206"/><rect fill="#48c9a5" height="23" ry="3.7123106" width="23" x="29" y="975.36206"/><rect fill="#f2f2f2" height="23" ry="3.7123106" width="23" x="54" y="975.36206"/><rect fill="#f2f2f2" height="23" ry="3.7123106" width="23" x="79" y="975.36206"/><rect fill="#f2f2f2" height="23" ry="3.7123106" width="23" x="129" y="975.36206"/><rect fill="#f2f2f2" height="23" ry="3.7123106" width="23" x="154" y="975.36206"/><rect fill="#f1bc3a" height="23" ry="3.7123106" width="23" x="179" y="975.36206"/><rect fill="#f1bc3a" height="23" ry="3.7123106" width="23" x="204.00002" y="975.36206"/><rect fill="#48c9a5" height="23" ry="3.7123106" width="23" x="104.00001" y="975.36206"/><rect fill="#f2f2f2" height="23" ry="3.7123106" width="23" x="229" y="975.36206"/><rect fill="#f2f2f2" height="23" ry="3.7123106" width="23" x="4" y="950.362"/><rect fill="#48c9a5" height="23" ry="3.7123106" width="23" x="29" y="950.362"/><rect fill="#48c9a5" height="23" ry="3.7123106" width="23" x="54" y="950.362"/><rect fill="#48c9a5" height="23" ry="3.7123106" width="23" x="79" y="950.362"/><rect fill="#f2f2f2" height="23" ry="3.7123106" width="23" x="129" y="950.362"/><rect fill="#f1bc3a" height="23" ry="3.7123106" width="23" x="154" y="950.362"/><rect fill="#f2f2f2" height="23" ry="3.7123106" width="23" x="179" y="950.362"/><rect fill="#f2f2f2" height="23" ry="3.7123106" width="23" x="204.00002" y="950.362"/><rect fill="#48c9a5" height="23" ry="3.7123106" width="23" x="104.00001" y="950.362"/><rect fill="#f1bc3a" height="23" ry="3.7123106" width="23" x="229" y="950.362"/><rect fill="#f2f2f2" height="23" ry="3.7123106" width="23" x="4" y="925.36212"/><rect fill="#f2f2f2" height="23" ry="3.7123106" width="23" x="29" y="925.36212"/><rect fill="#f2f2f2" height="23" ry="3.7123106" width="23" x="54" y="925.36212"/><rect fill="#f2f2f2" height="23" ry="3.7123106" width="23" x="79" y="925.36212"/><rect fill="#f2f2f2" height="23" ry="3.7123106" width="23" x="129" y="925.36212"/><rect fill="#f2f2f2" height="23" ry="3.7123106" width="23" x="154" y="925.36212"/><rect fill="#f2f2f2" height="23" ry="3.7123106" width="23" x="179" y="925.36212"/><rect fill="#f2f2f2" height="23" ry="3.7123106" width="23" x="204.00002" y="925.36212"/><rect fill="#f2f2f2" height="23" ry="3.7123106" width="23" x="104.00001" y="925.36212"/><rect fill="#f2f2f2" height="23" ry="3.7123106" width="23" x="229" y="925.36212"/><rect fill="#f2f2f2" height="23" ry="3.7123106" width="23" x="4" y="900.36206"/><rect fill="#da657b" height="23" ry="3.7123106" width="23" x="29" y="900.36206"/><rect fill="#f2f2f2" height="23" ry="3.7123106" width="23" x="54" y="900.36206"/><rect fill="#f2f2f2" height="23" ry="3.7123106" width="23" x="79" y="900.36206"/><rect fill="#f2f2f2" height="23" ry="3.7123106" width="23" x="129" y="900.36206"/><rect fill="#f2f2f2" height="23" ry="3.7123106" width="23" x="154" y="900.36206"/><rect fill="#e08d44" height="23" ry="3.7123106" width="23" x="179" y="900.36206"/><rect fill="#f2f2f2" height="23" ry="3.7123106" width="23" x="204.00002" y="900.36206"/><rect fill="#da657b" height="23" ry="3.7123106" width="23" x="104.00001" y="900.36206"/><rect fill="#f2f2f2" height="23" ry="3.7123106" width="23" x="229" y="900.36206"/><rect fill="#f2f2f2" height="23" ry="3.7123106" width="23" x="4" y="875.36206"/><rect fill="#da657b" height="23" ry="3.7123106" width="23" x="29" y="875.36206"/><rect fill="#f2f2f2" height="23" ry="3.7123106" width="23" x="54" y="875.36206"/><rect fill="#da657b" height="23" ry="3.7123106" width="23" x="79" y="875.36206"/><rect fill="#f2f2f2" height="23" ry="3.7123106" width="23" x="129" y="875.36206"/><rect fill="#e08d44" height="23" ry="3.7123106" width="23" x="154" y="875.36206"/><rect fill="#f2f2f2" height="23" ry="3.7123106" width="23" x="179" y="875.36206"/><rect fill="#e08d44" height="23" ry="3.7123106" width="23" x="204.00002" y="875.36206"/><rect fill="#da657b" height="23" ry="3.7123106" width="23" x="104.00001" y="875.36206"/><rect fill="#f2f2f2" height="23" ry="3.7123106" width="23" x="229" y="875.36206"/><rect fill="#f2f2f2" height="23" ry="3.7123106" width="23" x="4" y="850.362"/><rect fill="#da657b" height="23" ry="3.7123106" width="23" x="29" y="850.362"/><rect fill="#da657b" height="23" ry="3.7123106" width="23" x="54" y="850.362"/><rect fill="#f2f2f2" height="23" ry="3.7123106" width="23" x="79" y="850.362"/><rect fill="#f2f2f2" height="23" ry="3.7123106" width="23" x="129" y="850.362"/><rect fill="#f2f2f2" height="23" ry="3.7123106" width="23" x="154" y="850.362"/><rect fill="#f2f2f2" height="23" ry="3.7123106" width="23" x="179" y="850.362"/><rect fill="#e08d44" height="23" ry="3.7123106" width="23" x="204.00002" y="850.362"/><rect fill="#da657b" height="23" ry="3.7123106" width="23" x="104.00001" y="850.362"/><rect fill="#f2f2f2" height="23" ry="3.7123106" width="23" x="229" y="850.362"/><rect fill="#53c17d" height="23" ry="3.7123106" width="23" x="4" y="825.36206"/><rect fill="#da657b" height="23" ry="3.7123106" width="23" x="29" y="825.36206"/><rect fill="#f2f2f2" height="23" ry="3.7123106" width="23" x="54" y="825.36206"/><rect fill="#f2f2f2" height="23" ry="3.7123106" width="23" x="79" y="825.36206"/><rect fill="#f2f2f2" height="23" ry="3.7123106" width="23" x="129" y="825.36206"/><rect fill="#e08d44" height="23" ry="3.7123106" width="23" x="154" y="825.36206"/><rect fill="#e08d44" height="23" ry="3.7123106" width="23" x="179" y="825.36206"/><rect fill="#e08d44" height="23" ry="3.7123106" width="23" x="204.00002" y="825.36206"/><rect fill="#da657b" height="23" ry="3.7123106" width="23" x="104.00001" y="825.36206"/><rect fill="#e08d44" height="23" ry="3.7123106" width="23" x="229" y="825.36206"/><rect fill="#53c17d" height="23" ry="3.7123106" width="23" x="4" y="800.36206"/><rect fill="#f2f2f2" height="23" ry="3.7123106" width="23" x="29" y="800.36206"/><rect fill="#f2f2f2" height="23" ry="3.7123106" width="23" x="54" y="800.36206"/><rect fill="#f2f2f2" height="23" ry="3.7123106" width="23" x="79" y="800.36206"/><rect fill="#f2f2f2" height="23" ry="3.7123106" width="23" x="129" y="800.36206"/><rect fill="#f2f2f2" height="23" ry="3.7123106" width="23" x="154" y="800.36206"/><rect fill="#f2f2f2" height="23" ry="3.7123106" width="23" x="179" y="800.36206"/><rect fill="#f2f2f2" height="23" ry="3.7123106" width="23" x="204.00002" y="800.36206"/><rect fill="#f2f2f2" height="23" ry="3.7123106" width="23" x="104.00001" y="800.36206"/><rect fill="#f2f2f2" height="23" ry="3.7123106" width="23" x="229" y="800.36206"/></g></svg>