<svg height="256" viewBox="0 0 256 256" width="256" xmlns="http://www.w3.org/2000/svg"><g transform="translate(0 -796.36216)"><path d="m1.8439354 798.20612h252.31212v252.31213h-252.31212z" fill="#fff"/><rect fill="#55b4d6" height="23" ry="3.7123106" width="23" x="4" y="1025.3622"/><rect fill="#55b4d6" height="23" ry="3.7123106" width="23" x="29" y="1025.3622"/><rect fill="#55b4d6" height="23" ry="3.7123106" width="23" x="54" y="1025.3622"/><rect fill="#f2f2f2" height="23" ry="3.7123106" width="23" x="79" y="1025.3622"/><rect fill="#cf6050" height="23" ry="3.7123106" width="23" x="129" y="1025.3622"/><rect fill="#cf6050" height="23" ry="3.7123106" width="23" x="154" y="1025.3622"/><rect fill="#cf6050" height="23" ry="3.7123106" width="23" x="179" y="1025.3622"/><rect fill="#cf6050" height="23" ry="3.7123106" width="23" x="204.00002" y="1025.3622"/><rect fill="#cf6050" height="23" ry="3.7123106" width="23" x="104.00001" y="1025.3622"/><rect fill="#cf6050" height="23" ry="3.7123106" width="23" x="229" y="1025.3622"/><rect fill="#55b4d6" height="23" ry="3.7123106" width="23" x="4" y="1000.3621"/><rect fill="#53c17d" height="23" ry="3.7123106" width="23" x="29" y="1000.3621"/><rect fill="#53c17d" height="23" ry="3.7123106" width="23" x="54" y="1000.3621"/><rect fill="#f2f2f2" height="23" ry="3.7123106" width="23" x="79" y="1000.3621"/><rect fill="#da657b" height="23" ry="3.7123106" width="23" x="129" y="1000.3621"/><rect fill="#e08d44" height="23" ry="3.7123106" width="23" x="154" y="1000.3621"/><rect fill="#e08d44" height="23" ry="3.7123106" width="23" x="179" y="1000.3621"/><rect fill="#e08d44" height="23" ry="3.7123106" width="23" x="204.00002" y="1000.3621"/><rect fill="#da657b" height="23" ry="3.7123106" width="23" x="104.00001" y="1000.3621"/><rect fill="#cf6050" height="23" ry="3.7123106" width="23" x="229" y="1000.3621"/><rect fill="#55b4d6" height="23" ry="3.7123106" width="23" x="4" y="975.36206"/><rect fill="#53c17d" height="23" ry="3.7123106" width="23" x="29" y="975.36206"/><rect fill="#f2f2f2" height="23" ry="3.7123106" width="23" x="54" y="975.36206"/><rect fill="#f2f2f2" height="23" ry="3.7123106" width="23" x="79" y="975.36206"/><rect fill="#da657b" height="23" ry="3.7123106" width="23" x="129" y="975.36206"/><rect fill="#48c9a5" height="23" ry="3.7123106" width="23" x="154" y="975.36206"/><rect fill="#48c9a5" height="23" ry="3.7123106" width="23" x="179" y="975.36206"/><rect fill="#48c9a5" height="23" ry="3.7123106" width="23" x="204.00002" y="975.36206"/><rect fill="#da657b" height="23" ry="3.7123106" width="23" x="104.00001" y="975.36206"/><rect fill="#cf6050" height="23" ry="3.7123106" width="23" x="229" y="975.36206"/><rect fill="#f2f2f2" height="23" ry="3.7123106" width="23" x="4" y="950.362"/><rect fill="#f2f2f2" height="23" ry="3.7123106" width="23" x="29" y="950.362"/><rect fill="#f2f2f2" height="23" ry="3.7123106" width="23" x="54" y="950.362"/><rect fill="#f2f2f2" height="23" ry="3.7123106" width="23" x="79" y="950.362"/><rect fill="#da657b" height="23" ry="3.7123106" width="23" x="129" y="950.362"/><rect fill="#48c9a5" height="23" ry="3.7123106" width="23" x="154" y="950.362"/><rect fill="#48c9a5" height="23" ry="3.7123106" width="23" x="179" y="950.362"/><rect fill="#48c9a5" height="23" ry="3.7123106" width="23" x="204.00002" y="950.362"/><rect fill="#da657b" height="23" ry="3.7123106" width="23" x="104.00001" y="950.362"/><rect fill="#cf6050" height="23" ry="3.7123106" width="23" x="229" y="950.362"/><rect fill="#f2f2f2" height="23" ry="3.7123106" width="23" x="4" y="925.36212"/><rect fill="#f2f2f2" height="23" ry="3.7123106" width="23" x="29" y="925.36212"/><rect fill="#f2f2f2" height="23" ry="3.7123106" width="23" x="54" y="925.36212"/><rect fill="#f2f2f2" height="23" ry="3.7123106" width="23" x="79" y="925.36212"/><rect fill="#da657b" height="23" ry="3.7123106" width="23" x="129" y="925.36212"/><rect fill="#48c9a5" height="23" ry="3.7123106" width="23" x="154" y="925.36212"/><rect fill="#48c9a5" height="23" ry="3.7123106" width="23" x="179" y="925.36212"/><rect fill="#48c9a5" height="23" ry="3.7123106" width="23" x="204.00002" y="925.36212"/><rect fill="#da657b" height="23" ry="3.7123106" width="23" x="104.00001" y="925.36212"/><rect fill="#cf6050" height="23" ry="3.7123106" width="23" x="229" y="925.36212"/><rect fill="#f2f2f2" height="23" ry="3.7123106" width="23" x="4" y="900.36206"/><rect fill="#f2f2f2" height="23" ry="3.7123106" width="23" x="29" y="900.36206"/><rect fill="#f2f2f2" height="23" ry="3.7123106" width="23" x="54" y="900.36206"/><rect fill="#f2f2f2" height="23" ry="3.7123106" width="23" x="79" y="900.36206"/><rect fill="#f2f2f2" height="23" ry="3.7123106" width="23" x="129" y="900.36206"/><rect fill="#f2f2f2" height="23" ry="3.7123106" width="23" x="154" y="900.36206"/><rect fill="#f2f2f2" height="23" ry="3.7123106" width="23" x="179" y="900.36206"/><rect fill="#f2f2f2" height="23" ry="3.7123106" width="23" x="204.00002" y="900.36206"/><rect fill="#f2f2f2" height="23" ry="3.7123106" width="23" x="104.00001" y="900.36206"/><rect fill="#f2f2f2" height="23" ry="3.7123106" width="23" x="229" y="900.36206"/><rect fill="#da657b" height="23" ry="3.7123106" width="23" x="4" y="875.36206"/><rect fill="#55b4d6" height="23" ry="3.7123106" width="23" x="29" y="875.36206"/><rect fill="#f2f2f2" height="23" ry="3.7123106" width="23" x="54" y="875.36206"/><rect fill="#f2f2f2" height="23" ry="3.7123106" width="23" x="79" y="875.36206"/><rect fill="#f2f2f2" height="23" ry="3.7123106" width="23" x="129" y="875.36206"/><rect fill="#53c17d" height="23" ry="3.7123106" width="23" x="154" y="875.36206"/><rect fill="#53c17d" height="23" ry="3.7123106" width="23" x="179" y="875.36206"/><rect fill="#55b4d6" height="23" ry="3.7123106" width="23" x="204.00002" y="875.36206"/><rect fill="#f2f2f2" height="23" ry="3.7123106" width="23" x="104.00001" y="875.36206"/><rect fill="#f1bc3a" height="23" ry="3.7123106" width="23" x="229" y="875.36206"/><rect fill="#da657b" height="23" ry="3.7123106" width="23" x="4" y="850.362"/><rect fill="#55b4d6" height="23" ry="3.7123106" width="23" x="29" y="850.362"/><rect fill="#f2f2f2" height="23" ry="3.7123106" width="23" x="54" y="850.362"/><rect fill="#f2f2f2" height="23" ry="3.7123106" width="23" x="79" y="850.362"/><rect fill="#f2f2f2" height="23" ry="3.7123106" width="23" x="129" y="850.362"/><rect fill="#f2f2f2" height="23" ry="3.7123106" width="23" x="154" y="850.362"/><rect fill="#53c17d" height="23" ry="3.7123106" width="23" x="179" y="850.362"/><rect fill="#55b4d6" height="23" ry="3.7123106" width="23" x="204.00002" y="850.362"/><rect fill="#f2f2f2" height="23" ry="3.7123106" width="23" x="104.00001" y="850.362"/><rect fill="#f1bc3a" height="23" ry="3.7123106" width="23" x="229" y="850.362"/><rect fill="#da657b" height="23" ry="3.7123106" width="23" x="4" y="825.36206"/><rect fill="#53c17d" height="23" ry="3.7123106" width="23" x="29" y="825.36206"/><rect fill="#f2f2f2" height="23" ry="3.7123106" width="23" x="54" y="825.36206"/><rect fill="#f2f2f2" height="23" ry="3.7123106" width="23" x="79" y="825.36206"/><rect fill="#f2f2f2" height="23" ry="3.7123106" width="23" x="129" y="825.36206"/><rect fill="#f2f2f2" height="23" ry="3.7123106" width="23" x="154" y="825.36206"/><rect fill="#f2f2f2" height="23" ry="3.7123106" width="23" x="179" y="825.36206"/><rect fill="#f2f2f2" height="23" ry="3.7123106" width="23" x="204.00002" y="825.36206"/><rect fill="#f2f2f2" height="23" ry="3.7123106" width="23" x="104.00001" y="825.36206"/><rect fill="#f2f2f2" height="23" ry="3.7123106" width="23" x="229" y="825.36206"/><rect fill="#da657b" height="23" ry="3.7123106" width="23" x="4" y="800.36206"/><rect fill="#53c17d" height="23" ry="3.7123106" width="23" x="29" y="800.36206"/><rect fill="#53c17d" height="23" ry="3.7123106" width="23" x="54" y="800.36206"/><rect fill="#7381b5" height="23" ry="3.7123106" width="23" x="79" y="800.36206"/><rect fill="#f2f2f2" height="23" ry="3.7123106" width="23" x="129" y="800.36206"/><rect fill="#f2f2f2" height="23" ry="3.7123106" width="23" x="154" y="800.36206"/><rect fill="#e08d44" height="23" ry="3.7123106" width="23" x="179" y="800.36206"/><rect fill="#e08d44" height="23" ry="3.7123106" width="23" x="204.00002" y="800.36206"/><rect fill="#f2f2f2" height="23" ry="3.7123106" width="23" x="104.00001" y="800.36206"/><rect fill="#e08d44" height="23" ry="3.7123106" width="23" x="229" y="800.36206"/><g transform="matrix(.97656252 0 0 .97656252 151.21587 -124.47349)"><rect fill="#f1bc3a" height="23.552" ry="3.8014059" width="23.552" x="-85.937706" y="1008.2969"/><rect fill="#f1bc3a" height="23.552" ry="3.8014059" width="23.552" x="-85.937706" y="982.69684"/><path d="m-63.396484 1019.4668c-.403493-.022-.715155.024-.923828.1445-3.338799 1.9277-3.338799 36.6251 0 38.5528 1.423092.8216 7.704486-1.8689 14.4375-5.5137l10.880859 18.8457c1.05299 1.8238 3.369526 2.4436 5.193359 1.3906l2.013672-1.164c1.823833-1.053 2.445569-3.3676 1.392578-5.1915l-10.914062-18.9042c5.784742-3.6696 10.382812-7.2347 10.382812-8.7403 0-3.6143-26.410502-19.0881-32.46289-19.4199z" fill="#4d4d4d"/></g></g></svg>