<svg height="256" viewBox="0 0 256 256" width="256" xmlns="http://www.w3.org/2000/svg" xmlns:xlink="http://www.w3.org/1999/xlink"><filter id="a" color-interpolation-filters="sRGB" height="1.1421829" width="1.0254692" x="-.0127346" y="-.07109144"><feGaussianBlur stdDeviation=".872055"/></filter><g transform="translate(0 -796.36216)"><path d="m1.8439354 798.20612h252.31212v252.31213h-252.31212z" fill="#fff"/><rect fill="#cf6050" height="23" ry="3.7123106" width="23" x="4" y="1025.3622"/><rect fill="#cf6050" height="23" ry="3.7123106" width="23" x="29" y="1025.3622"/><rect fill="#500" height="23" ry="3.7123106" width="23" x="79" y="1025.3622"/><rect fill="#06f" height="23" ry="3.7123106" width="23" x="129" y="1025.3622"/><rect fill="#06f" height="23" ry="3.7123106" width="23" x="154" y="1025.3622"/><rect fill="#1a1a1a" height="23" ry="3.7123106" width="23" x="179" y="1025.3622"/><rect fill="#1a1a1a" height="23" ry="3.7123106" width="23" x="204.00002" y="1025.3622"/><rect fill="#06f" height="23" ry="3.7123106" width="23" x="104.00001" y="1025.3622"/><rect fill="#1a1a1a" height="23" ry="3.7123106" width="23" x="229" y="1025.3622"/><rect fill="#f2f2f2" height="23" ry="3.7123106" width="23" x="4" y="1000.3621"/><rect fill="#f2f2f2" height="23" ry="3.7123106" width="23" x="29" y="1000.3621"/><rect fill="#333" height="23" ry="3.7123106" width="23" x="79" y="1000.3621"/><rect fill="#87cdde" height="23" ry="3.7123106" width="23" x="129" y="1000.3621"/><rect fill="#3771c8" height="23" ry="3.7123106" width="23" x="154" y="1000.3621"/><rect fill="#1a1a1a" height="23" ry="3.7123106" width="23" x="179" y="1000.3621"/><rect fill="#ccc" height="23" ry="3.7123106" width="23" x="204.00002" y="1000.3621"/><rect fill="#87cdde" height="23" ry="3.7123106" width="23" x="104.00001" y="1000.3621"/><rect fill="#ccc" height="23" ry="3.7123106" width="23" x="229" y="1000.3621"/><rect fill="#f2f2f2" height="23" ry="3.7123106" width="23" x="4" y="975.36206"/><rect fill="#f2f2f2" height="23" ry="3.7123106" width="23" x="29" y="975.36206"/><rect fill="#052" height="3.6222653" ry=".58465105" width="3.6222653" x="63.688866" y="985.0509"/><rect fill="#052" height="23" ry="3.7123106" width="23" x="79" y="975.36206"/><rect fill="#87cdde" height="23" ry="3.7123106" width="23" x="129" y="975.36206"/><rect fill="#3771c8" height="23" ry="3.7123106" width="23" x="154" y="975.36206"/><rect fill="#ccc" height="23" ry="3.7123106" width="23" x="179" y="975.36206"/><rect fill="#ccc" height="23" ry="3.7123106" width="23" x="204.00002" y="975.36206"/><rect fill="#87cdde" height="23" ry="3.7123106" width="23" x="104.00001" y="975.36206"/><rect fill="#ccc" height="23" ry="3.7123106" width="23" x="229" y="975.36206"/><rect fill="#7381b5" height="23" ry="3.7123106" width="23" x="4" y="950.362"/><rect fill="#7381b5" height="23" ry="3.7123106" width="23" x="29" y="950.362"/><rect fill="#052" height="9.158761" ry="1.478268" width="9.158761" x="60.92062" y="957.28259"/><rect fill="#052" height="23" ry="3.7123106" width="23" x="79" y="950.362"/><rect fill="#0fc" height="23" ry="3.7123106" width="23" x="129" y="950.362"/><rect fill="#0fc" height="23" ry="3.7123106" width="23" x="154" y="950.362"/><rect fill="#1a1a1a" height="23" ry="3.7123106" width="23" x="179" y="950.362"/><rect fill="#1a1a1a" height="23" ry="3.7123106" width="23" x="204.00002" y="950.362"/><rect fill="#0fc" height="23" ry="3.7123106" width="23" x="104.00001" y="950.362"/><rect fill="#1a1a1a" height="23" ry="3.7123106" width="23" x="229" y="950.362"/><rect fill="#f2f2f2" height="23" ry="3.7123106" width="23" x="4" y="925.36212"/><rect fill="#e08d44" height="23" ry="3.7123106" width="23" x="29" y="925.36212"/><rect fill="#333" height="18.386253" ry="2.9676297" width="18.386253" x="56.306873" y="927.66901"/><rect fill="#333" height="23" ry="3.7123106" width="23" x="79" y="925.36212"/><rect fill="#0fc" height="23" ry="3.7123106" width="23" x="129" y="925.36212"/><rect fill="#0fc" height="23" ry="3.7123106" width="23" x="154" y="925.36212"/><rect fill="#1a1a1a" height="23" ry="3.7123106" width="23" x="179" y="925.36212"/><rect fill="#ccc" height="23" ry="3.7123106" width="23" x="204.00002" y="925.36212"/><rect fill="#0fc" height="23" ry="3.7123106" width="23" x="104.00001" y="925.36212"/><rect fill="#1a1a1a" height="23" ry="3.7123106" width="23" x="229" y="925.36212"/><rect fill="#53c17d" height="23" ry="3.7123106" width="23" x="4" y="900.36206"/><rect fill="#e08d44" height="23" ry="3.7123106" width="23" x="29" y="900.36206"/><rect fill="#333" height="23" ry="3.7123106" width="23" x="54" y="900.36206"/><rect fill="#a80" height="23" ry="3.7123106" width="23" x="79" y="900.36206"/><rect fill="#0fc" height="23" ry="3.7123106" width="23" x="129" y="900.36206"/><rect fill="#0fc" height="23" ry="3.7123106" width="23" x="154" y="900.36206"/><rect fill="#1a1a1a" height="23" ry="3.7123106" width="23" x="179" y="900.36206"/><rect fill="#1a1a1a" height="23" ry="3.7123106" width="23" x="204.00002" y="900.36206"/><rect fill="#0fc" height="23" ry="3.7123106" width="23" x="104.00001" y="900.36206"/><rect fill="#1a1a1a" height="23" ry="3.7123106" width="23" x="229" y="900.36206"/><rect fill="#53c17d" height="23" ry="3.7123106" width="23" x="4" y="875.36206"/><rect fill="#53c17d" height="23" ry="3.7123106" width="23" x="29" y="875.36206"/><rect fill="#333" height="23" ry="3.7123106" width="23" x="54" y="875.36206"/><rect fill="#a80" height="23" ry="3.7123106" width="23" x="79" y="875.36206"/><rect fill="#87cdde" height="23" ry="3.7123106" width="23" x="129" y="875.36206"/><rect fill="#87cdde" height="23" ry="3.7123106" width="23" x="154" y="875.36206"/><rect fill="#ccc" height="23" ry="3.7123106" width="23" x="179" y="875.36206"/><rect fill="#ccc" height="23" ry="3.7123106" width="23" x="204.00002" y="875.36206"/><rect fill="#87cdde" height="23" ry="3.7123106" width="23" x="104.00001" y="875.36206"/><rect fill="#ccc" height="23" ry="3.7123106" width="23" x="229" y="875.36206"/><rect fill="#55b4d6" height="23" ry="3.7123106" width="23" x="4" y="850.362"/><rect fill="#f2f2f2" height="23" ry="3.7123106" width="23" x="29" y="850.362"/><rect fill="#333" height="23" ry="3.7123106" width="23" x="54" y="850.362"/><rect fill="#a80" height="23" ry="3.7123106" width="23" x="79" y="850.362"/><rect fill="#87cdde" height="23" ry="3.7123106" width="23" x="129" y="850.362"/><rect fill="#87cdde" height="23" ry="3.7123106" width="23" x="154" y="850.362"/><rect fill="#1a1a1a" height="23" ry="3.7123106" width="23" x="179" y="850.362"/><rect fill="#1a1a1a" height="23" ry="3.7123106" width="23" x="204.00002" y="850.362"/><rect fill="#87cdde" height="23" ry="3.7123106" width="23" x="104.00001" y="850.362"/><rect fill="#1a1a1a" height="23" ry="3.7123106" width="23" x="229" y="850.362"/><rect fill="#55b4d6" height="23" ry="3.7123106" width="23" x="4" y="825.36206"/><rect fill="#f2f2f2" height="23" ry="3.7123106" width="23" x="29" y="825.36206"/><rect fill="#333" height="17.127659" ry="2.7644866" width="17.127659" x="56.936169" y="828.29822"/><rect fill="#a80" height="23" ry="3.7123106" width="23" x="79" y="825.36206"/><rect fill="#0055d4" height="23" ry="3.7123106" width="23" x="129" y="825.36206"/><rect fill="#0055d4" height="23" ry="3.7123106" width="23" x="154" y="825.36206"/><rect fill="#1a1a1a" height="23" ry="3.7123106" width="23" x="179" y="825.36206"/><rect fill="#ccc" height="23" ry="3.7123106" width="23" x="204.00002" y="825.36206"/><rect fill="#87cdde" height="23" ry="3.7123106" width="23" x="104.00001" y="825.36206"/><rect fill="#ccc" height="23" ry="3.7123106" width="23" x="229" y="825.36206"/><rect fill="#55b4d6" height="23" ry="3.7123106" width="23" x="4" y="800.36206"/><rect fill="#f2f2f2" height="23" ry="3.7123106" width="23" x="29" y="800.36206"/><rect fill="#333" height="13.212766" ry="2.1326039" width="13.212766" x="58.893616" y="805.25568"/><rect fill="#a80" height="23" ry="3.7123106" width="23" x="79" y="800.36206"/><rect fill="#0055d4" height="23" ry="3.7123106" width="23" x="129" y="800.36206"/><rect fill="#37abc8" height="23" ry="3.7123106" width="23" x="154" y="800.36206"/><rect fill="#ccc" height="23" ry="3.7123106" width="23" x="179" y="800.36206"/><rect fill="#ccc" height="23" ry="3.7123106" width="23" x="204.00002" y="800.36206"/><rect fill="#87cdde" height="23" ry="3.7123106" width="23" x="104.00001" y="800.36206"/><rect fill="#ccc" height="23" ry="3.7123106" width="23" x="229" y="800.36206"/><g transform="matrix(.83591472 -.48597892 .48597892 .83591472 -688.29402 299.05674)"><path d="m397.2578 948.4531c-2.83872 1.31018-21.24534-19.0488-24.31201-19.6574-3.06668-.6086-27.85289 11.17849-29.97615 8.88357-2.12327-2.29491 11.55131-26.09192 11.18247-29.19656-.36884-3.10465-19.23838-23.03533-17.71192-25.76384 1.52647-2.72851 28.38445 2.92311 31.22316 1.61293 2.83872-1.31018 15.96291-25.4151 19.02958-24.8065 3.06668.6086 5.99124 27.8985 8.1145 30.19341 2.12327 2.29492 29.10401 7.32793 29.47285 10.43258.36884 3.10465-24.68166 14.31911-26.20812 17.04762-1.52647 2.72851 2.02435 29.94401-.81436 31.25419z" fill="#ff2a2a"/><path d="m394.32624 944.56071c-2.28526 1.05473-16.36425-16.42565-18.87071-16.65485-2.50646-.22921-19.5224 14.40771-21.57846 12.95599-2.05605-1.45173 6.04291-22.38468 4.98818-24.66994-1.05474-2.28526-22.23865-9.70304-22.00945-12.2095.2292-2.50646 22.40715-5.95902 23.85888-8.01508 1.45172-2.05606-2.71625-24.11075-.43099-25.16549 2.28526-1.05473 16.36424 16.42565 18.8707 16.65485 2.50646.22921 19.5224-14.40771 21.57846-12.95599 2.05606 1.45173-6.04291 22.38468-4.98817 24.66994 1.05473 2.28526 22.23865 9.70303 22.00945 12.20949-.22921 2.50646-22.40716 5.95903-23.85888 8.01509-1.45173 2.05606 2.71625 24.11075.43099 25.16549z" fill="#ff7f2a" transform="matrix(.4060959 -.86054354 .86054354 .4060959 -554.98762 861.9104)"/><path d="m394.32624 944.56071c-2.1788 1.00559-14.95481-16.53387-17.35415-16.5732-2.39934-.0393-15.74337 17.07195-17.88804 15.99548-2.14466-1.07647 3.60252-22.00083 2.13731-23.90124-1.46521-1.9004-23.16322-1.66447-23.65878-4.01241-.49555-2.34793 19.44709-10.90073 20.01934-13.23116.57224-2.33043-13.1407-19.14752-11.61398-20.99887 1.52671-1.85136 20.64759 8.40785 22.82639 7.40225 2.17879-1.0056 6.77704-22.21209 9.17638-22.17276 2.39934.0393 6.30004 21.38515 8.44471 22.46162 2.14466 1.07647 21.59153-8.55051 23.05674-6.65011 1.46521 1.9004-12.79157 18.259-12.29601 20.60693.49556 2.34793 20.14715 11.54979 19.5749 13.88022-.57224 2.33043-22.25086 1.38344-23.77758 3.2348-1.52671 1.85135 3.53156 22.95285 1.35277 23.95845z" fill="#ffd42a" transform="matrix(-.07318693 -.59956127 .59956127 -.07318693 -137.92789 1196.4736)"/></g><g transform="matrix(.94054186 -.3396778 .3396778 .94054186 -541.22159 -72.93379)"><g fill-opacity=".25568183" filter="url(#a)"><path d="m232.27348 1164.9911h10v6.52h-16.56v-29.44h6.56z"/><path d="m264.5191 1148.6311h-12.48v4.92h12.48v6.52h-12.48v4.92h12.48v6.52h-14.96l0 0h-4.08v-29.44h6.56v.04h12.48z"/><path d="m284.66473 1142.1111h6.72l-6.96 29.4h-9.76l-6.92-29.4h6.72l5.08 21.6z"/><path d="m313.65973 1148.6311h-12.48v4.92h12.48v6.52h-12.48v4.92h12.48v6.52h-14.96l0 0h-4.08v-29.44h6.56v.04h12.48z"/><path d="m323.44535 1164.9911h10v6.52h-16.56v-29.44h6.56z"/><path d="m355.0766 1171.5111q-2.32 0-4.36-.88-2-.88-3.52-2.4-1.52-1.52-2.4-3.52-.88-2.04-.88-4.36v-18.24h6.56v18.24q0 .96.36 1.8.36.84 1 1.48.64.64 1.44 1 .84.36 1.8.36.96 0 1.8-.36.84-.36 1.48-1 .64-.64 1-1.48.36-.84.36-1.8v-18.24h6.52v18.24q0 2.32-.88 4.36-.88 2-2.4 3.52-1.52 1.52-3.56 2.4-2 .88-4.32.88z"/><path d="m379.26348 1142.1111q2.24 0 4.2.84 1.96.84 3.44 2.32 1.48 1.48 2.32 3.44.84 1.96.84 4.16 0 2.24-.84 4.2-.84 1.96-2.32 3.44-1.48 1.48-3.44 2.32-1.96.84-4.2.84h-3.24v7.84h-6.56v-29.4zm0 15.04q.88 0 1.64-.32.8-.36 1.36-.92.6-.6.92-1.36.36-.8.36-1.68 0-.88-.36-1.64-.32-.76-.92-1.32-.56-.6-1.36-.92-.76-.36-1.64-.36h-3.24v8.52z"/></g><g fill="#fff" transform="matrix(.9318622 0 0 .9318622 20.978842 78.821195)"><path d="m232.27348 1164.9911h10v6.52h-16.56v-29.44h6.56z" fill="#fff"/><path d="m264.5191 1148.6311h-12.48v4.92h12.48v6.52h-12.48v4.92h12.48v6.52h-14.96l0 0h-4.08v-29.44h6.56v.04h12.48z" fill="#fff"/><path d="m284.66473 1142.1111h6.72l-6.96 29.4h-9.76l-6.92-29.4h6.72l5.08 21.6z" fill="#fff"/><path d="m313.65973 1148.6311h-12.48v4.92h12.48v6.52h-12.48v4.92h12.48v6.52h-14.96l0 0h-4.08v-29.44h6.56v.04h12.48z" fill="#fff"/><path d="m323.44535 1164.9911h10v6.52h-16.56v-29.44h6.56z" fill="#fff"/><path d="m355.0766 1171.5111q-2.32 0-4.36-.88-2-.88-3.52-2.4-1.52-1.52-2.4-3.52-.88-2.04-.88-4.36v-18.24h6.56v18.24q0 .96.36 1.8.36.84 1 1.48.64.64 1.44 1 .84.36 1.8.36.96 0 1.8-.36.84-.36 1.48-1 .64-.64 1-1.48.36-.84.36-1.8v-18.24h6.52v18.24q0 2.32-.88 4.36-.88 2-2.4 3.52-1.52 1.52-3.56 2.4-2 .88-4.32.88z" fill="#ff0"/><path d="m379.26348 1142.1111q2.24 0 4.2.84 1.96.84 3.44 2.32 1.48 1.48 2.32 3.44.84 1.96.84 4.16 0 2.24-.84 4.2-.84 1.96-2.32 3.44-1.48 1.48-3.44 2.32-1.96.84-4.2.84h-3.24v7.84h-6.56v-29.4zm0 15.04q.88 0 1.64-.32.8-.36 1.36-.92.6-.6.92-1.36.36-.8.36-1.68 0-.88-.36-1.64-.32-.76-.92-1.32-.56-.6-1.36-.92-.76-.36-1.64-.36h-3.24v8.52z" fill="#ff0"/></g></g></g></svg>