<svg height="500" viewBox="0 0 1366 500" width="1366" xmlns="http://www.w3.org/2000/svg" xmlns:xlink="http://www.w3.org/1999/xlink"><linearGradient id="a" gradientUnits="userSpaceOnUse" x1="-440.1731564" x2="-440.1731564" y1="1002.751495" y2="1062.271995"><stop offset="0" stop-color="#005497" stop-opacity=".27272728"/><stop offset="1" stop-color="#005497" stop-opacity=".06818182"/></linearGradient><filter id="b" color-interpolation-filters="sRGB" height="1.1907477" width="1.0800771" x="-.04003854" y="-.09537383"><feGaussianBlur stdDeviation="3.6669538"/></filter><linearGradient id="c" gradientUnits="userSpaceOnUse" x1="-440.1731564" x2="-440.1731564" y1="1002.751495" y2="1062.271995"><stop offset="0" stop-color="#ff6e07" stop-opacity=".27450982"/><stop offset="1" stop-color="#ff541c" stop-opacity=".06666667"/></linearGradient><linearGradient id="d" gradientUnits="userSpaceOnUse" x1="-440.1731564" x2="-440.1731564" y1="1002.751495" y2="1062.271995"><stop offset="0" stop-color="#ff5497" stop-opacity=".27450982"/><stop offset="1" stop-color="#ff5497" stop-opacity=".06666667"/></linearGradient><g transform="translate(0 -552.36216)"><g transform="matrix(.96335893 0 0 .96335893 598.31073427 -80.34141858)"><path d="m-442.65137 1055.1932c-5.37558-.0004-10.75247-.4342-14.87109-1.3009l-84.63672-17.8104c-1.65176-.3475-2.95609-.7386-3.94531-1.154-3.71453-1.1985-6.62987-3.2201-7.13477-4.9803-.41372-.4331-.64391-.9429-.63281-1.5313l.69922-37.06c.054-2.86135 5.52976-6.35712 12.27734-7.8371l89.12695-19.54942c1.48558-.32573 2.89873-.51836 4.20899-.60182 3.99244-.574 8.30073-.65058 11.66992.11216l88.56445 20.04642c6.90343 1.56259 12.50464 5.19835 12.5586 8.15116l.69922 38.2432c.0315 1.7289-1.90581 3.6797-5.14063 5.0001-.19992.086-.41416.1725-.64258.2558-.016 0-.0327.022-.0488.022-.90767.3313-2.01326.6462-3.36329.9301l-84.51953 17.7707c-4.11948.8661-9.49355 1.2992-14.86914 1.2988z" fill="url(#a)" filter="url(#b)" transform="matrix(.84718319 0 0 1.0213689 -103.68658 -169.01715)"/><path d="m-397.75084 715.67331l-163.78868 1.15534c-6.94231.049-14.10792 13.10451-10.71655 19.16231l80.79533 144.31978c3.39136 6.05781 12.65442 10.6298 18.54535 6.9562l75.57536-47.12863c5.89092-3.67357 10.6705-12.21995 10.71655-19.16229l.59631-89.90907c.046-6.94233-4.78135-15.44261-11.72367-15.39364z" fill="#00aad4"/><rect fill="#0cf" height="111.41566" ry="12.143711" transform="matrix(.85586624 .51719723 .00684405 .99997658 0 0)" width="113.15113" x="-678.87305" y="1073.5972"/><rect fill="#5df" height="112.81577" ry="14.66605" transform="matrix(.86530322 .50124878 -.86512318 .50155946 0 0)" width="112.68221" x="388.7005" y="942.09778"/></g><g transform="matrix(.96335893 0 0 .96335893 1533.71194427 -84.38202958)"><path d="m-442.65137 1055.1932c-5.37558-.0004-10.75247-.4342-14.87109-1.3009l-84.63672-17.8104c-1.65176-.3475-2.95609-.7386-3.94531-1.154-3.71453-1.1985-6.62987-3.2201-7.13477-4.9803-.41372-.4331-.64391-.9429-.63281-1.5313l.69922-37.06c.054-2.86135 5.52976-6.35712 12.27734-7.8371l89.12695-19.54942c1.48558-.32573 2.89873-.51836 4.20899-.60182 3.99244-.574 8.30073-.65058 11.66992.11216l88.56445 20.04642c6.90343 1.56259 12.50464 5.19835 12.5586 8.15116l.69922 38.2432c.0315 1.7289-1.90581 3.6797-5.14063 5.0001-.19992.086-.41416.1725-.64258.2558-.016 0-.0327.022-.0488.022-.90767.3313-2.01326.6462-3.36329.9301l-84.51953 17.7707c-4.11948.8661-9.49355 1.2992-14.86914 1.2988z" fill="url(#c)" filter="url(#b)" transform="matrix(.84718319 0 0 1.0213689 -103.68658 -169.01715)"/><path d="m-397.75084 715.67331l-163.78868 1.15534c-6.94231.049-14.10792 13.10451-10.71655 19.16231l80.79533 144.31978c3.39136 6.05781 12.65442 10.6298 18.54535 6.9562l75.57536-47.12863c5.89092-3.67357 10.6705-12.21995 10.71655-19.16229l.59631-89.90907c.046-6.94233-4.78135-15.44261-11.72367-15.39364z" fill="#e67e22"/><rect fill="#ffa522" height="111.41566" ry="12.143711" transform="matrix(.85586624 .51719723 .00684405 .99997658 0 0)" width="113.15113" x="-678.87305" y="1073.5972"/><rect fill="#ffc647" height="112.81577" ry="14.66605" transform="matrix(.86530322 .50124878 -.86512318 .50155946 0 0)" width="112.68221" x="388.7005" y="942.09778"/></g><g transform="matrix(.96335893 0 0 .96335893 1685.23494427 -15.69165758)"><path d="m-442.65137 1055.1932c-5.37558-.0004-10.75247-.4342-14.87109-1.3009l-84.63672-17.8104c-1.65176-.3475-2.95609-.7386-3.94531-1.154-3.71453-1.1985-6.62987-3.2201-7.13477-4.9803-.41372-.4331-.64391-.9429-.63281-1.5313l.69922-37.06c.054-2.86135 5.52976-6.35712 12.27734-7.8371l89.12695-19.54942c1.48558-.32573 2.89873-.51836 4.20899-.60182 3.99244-.574 8.30073-.65058 11.66992.11216l88.56445 20.04642c6.90343 1.56259 12.50464 5.19835 12.5586 8.15116l.69922 38.2432c.0315 1.7289-1.90581 3.6797-5.14063 5.0001-.19992.086-.41416.1725-.64258.2558-.016 0-.0327.022-.0488.022-.90767.3313-2.01326.6462-3.36329.9301l-84.51953 17.7707c-4.11948.8661-9.49355 1.2992-14.86914 1.2988z" fill="url(#c)" filter="url(#b)" transform="matrix(.84718319 0 0 1.0213689 -103.68658 -169.01715)"/><path d="m-397.75084 715.67331l-163.78868 1.15534c-6.94231.049-14.10792 13.10451-10.71655 19.16231l80.79533 144.31978c3.39136 6.05781 12.65442 10.6298 18.54535 6.9562l75.57536-47.12863c5.89092-3.67357 10.6705-12.21995 10.71655-19.16229l.59631-89.90907c.046-6.94233-4.78135-15.44261-11.72367-15.39364z" fill="#e67e22"/><rect fill="#ffa522" height="111.41566" ry="12.143711" transform="matrix(.85586624 .51719723 .00684405 .99997658 0 0)" width="113.15113" x="-678.87305" y="1073.5972"/><rect fill="#ffc647" height="112.81577" ry="14.66605" transform="matrix(.86530322 .50124878 -.86512318 .50155946 0 0)" width="112.68221" x="388.7005" y="942.09778"/></g><g transform="matrix(.96335893 0 0 .96335893 1539.77294427 57.03932642)"><path d="m-442.65137 1055.1932c-5.37558-.0004-10.75247-.4342-14.87109-1.3009l-84.63672-17.8104c-1.65176-.3475-2.95609-.7386-3.94531-1.154-3.71453-1.1985-6.62987-3.2201-7.13477-4.9803-.41372-.4331-.64391-.9429-.63281-1.5313l.69922-37.06c.054-2.86135 5.52976-6.35712 12.27734-7.8371l89.12695-19.54942c1.48558-.32573 2.89873-.51836 4.20899-.60182 3.99244-.574 8.30073-.65058 11.66992.11216l88.56445 20.04642c6.90343 1.56259 12.50464 5.19835 12.5586 8.15116l.69922 38.2432c.0315 1.7289-1.90581 3.6797-5.14063 5.0001-.19992.086-.41416.1725-.64258.2558-.016 0-.0327.022-.0488.022-.90767.3313-2.01326.6462-3.36329.9301l-84.51953 17.7707c-4.11948.8661-9.49355 1.2992-14.86914 1.2988z" fill="url(#c)" filter="url(#b)" transform="matrix(.84718319 0 0 1.0213689 -103.68658 -169.01715)"/><path d="m-397.75084 715.67331l-163.78868 1.15534c-6.94231.049-14.10792 13.10451-10.71655 19.16231l80.79533 144.31978c3.39136 6.05781 12.65442 10.6298 18.54535 6.9562l75.57536-47.12863c5.89092-3.67357 10.6705-12.21995 10.71655-19.16229l.59631-89.90907c.046-6.94233-4.78135-15.44261-11.72367-15.39364z" fill="#e67e22"/><rect fill="#ffa522" height="111.41566" ry="12.143711" transform="matrix(.85586624 .51719723 .00684405 .99997658 0 0)" width="113.15113" x="-678.87305" y="1073.5972"/><rect fill="#ffc647" height="112.81577" ry="14.66605" transform="matrix(.86530322 .50124878 -.86512318 .50155946 0 0)" width="112.68221" x="388.7005" y="942.09778"/></g><g transform="matrix(.96335893 0 0 .96335893 594.27012427 46.93779242)"><path d="m-442.65137 1055.1932c-5.37558-.0004-10.75247-.4342-14.87109-1.3009l-84.63672-17.8104c-1.65176-.3475-2.95609-.7386-3.94531-1.154-3.71453-1.1985-6.62987-3.2201-7.13477-4.9803-.41372-.4331-.64391-.9429-.63281-1.5313l.69922-37.06c.054-2.86135 5.52976-6.35712 12.27734-7.8371l89.12695-19.54942c1.48558-.32573 2.89873-.51836 4.20899-.60182 3.99244-.574 8.30073-.65058 11.66992.11216l88.56445 20.04642c6.90343 1.56259 12.50464 5.19835 12.5586 8.15116l.69922 38.2432c.0315 1.7289-1.90581 3.6797-5.14063 5.0001-.19992.086-.41416.1725-.64258.2558-.016 0-.0327.022-.0488.022-.90767.3313-2.01326.6462-3.36329.9301l-84.51953 17.7707c-4.11948.8661-9.49355 1.2992-14.86914 1.2988z" fill="url(#a)" filter="url(#b)" transform="matrix(.84718319 0 0 1.0213689 -103.68658 -169.01715)"/><path d="m-397.75084 715.67331l-163.78868 1.15534c-6.94231.049-14.10792 13.10451-10.71655 19.16231l80.79533 144.31978c3.39136 6.05781 12.65442 10.6298 18.54535 6.9562l75.57536-47.12863c5.89092-3.67357 10.6705-12.21995 10.71655-19.16229l.59631-89.90907c.046-6.94233-4.78135-15.44261-11.72367-15.39364z" fill="#00aad4"/><rect fill="#0cf" height="111.41566" ry="12.143711" transform="matrix(.85586624 .51719723 .00684405 .99997658 0 0)" width="113.15113" x="-678.87305" y="1073.5972"/><rect fill="#5df" height="112.81577" ry="14.66605" transform="matrix(.86530322 .50124878 -.86512318 .50155946 0 0)" width="112.68221" x="388.7005" y="942.09778"/></g><g transform="matrix(.96335893 0 0 .96335893 757.22157427 119.81236042)"><path d="m-442.65137 1055.1932c-5.37558-.0004-10.75247-.4342-14.87109-1.3009l-84.63672-17.8104c-1.65176-.3475-2.95609-.7386-3.94531-1.154-3.71453-1.1985-6.62987-3.2201-7.13477-4.9803-.41372-.4331-.64391-.9429-.63281-1.5313l.69922-37.06c.054-2.86135 5.52976-6.35712 12.27734-7.8371l89.12695-19.54942c1.48558-.32573 2.89873-.51836 4.20899-.60182 3.99244-.574 8.30073-.65058 11.66992.11216l88.56445 20.04642c6.90343 1.56259 12.50464 5.19835 12.5586 8.15116l.69922 38.2432c.0315 1.7289-1.90581 3.6797-5.14063 5.0001-.19992.086-.41416.1725-.64258.2558-.016 0-.0327.022-.0488.022-.90767.3313-2.01326.6462-3.36329.9301l-84.51953 17.7707c-4.11948.8661-9.49355 1.2992-14.86914 1.2988z" fill="url(#a)" filter="url(#b)" transform="matrix(.84718319 0 0 1.0213689 -103.68658 -169.01715)"/><path d="m-397.75084 715.67331l-163.78868 1.15534c-6.94231.049-14.10792 13.10451-10.71655 19.16231l80.79533 144.31978c3.39136 6.05781 12.65442 10.6298 18.54535 6.9562l75.57536-47.12863c5.89092-3.67357 10.6705-12.21995 10.71655-19.16229l.59631-89.90907c.046-6.94233-4.78135-15.44261-11.72367-15.39364z" fill="#00aad4"/><rect fill="#0cf" height="111.41566" ry="12.143711" transform="matrix(.85586624 .51719723 .00684405 .99997658 0 0)" width="113.15113" x="-678.87305" y="1073.5972"/><rect fill="#5df" height="112.81577" ry="14.66605" transform="matrix(.86530322 .50124878 -.86512318 .50155946 0 0)" width="112.68221" x="388.7005" y="942.09778"/></g><g transform="matrix(.96335893 0 0 .96335893 594.27012427 160.07488042)"><path d="m-442.65137 1055.1932c-5.37558-.0004-10.75247-.4342-14.87109-1.3009l-84.63672-17.8104c-1.65176-.3475-2.95609-.7386-3.94531-1.154-3.71453-1.1985-6.62987-3.2201-7.13477-4.9803-.41372-.4331-.64391-.9429-.63281-1.5313l.69922-37.06c.054-2.86135 5.52976-6.35712 12.27734-7.8371l89.12695-19.54942c1.48558-.32573 2.89873-.51836 4.20899-.60182 3.99244-.574 8.30073-.65058 11.66992.11216l88.56445 20.04642c6.90343 1.56259 12.50464 5.19835 12.5586 8.15116l.69922 38.2432c.0315 1.7289-1.90581 3.6797-5.14063 5.0001-.19992.086-.41416.1725-.64258.2558-.016 0-.0327.022-.0488.022-.90767.3313-2.01326.6462-3.36329.9301l-84.51953 17.7707c-4.11948.8661-9.49355 1.2992-14.86914 1.2988z" fill="url(#a)" filter="url(#b)" transform="matrix(.84718319 0 0 1.0213689 -103.68658 -169.01715)"/><path d="m-397.75084 715.67331l-163.78868 1.15534c-6.94231.049-14.10792 13.10451-10.71655 19.16231l80.79533 144.31978c3.39136 6.05781 12.65442 10.6298 18.54535 6.9562l75.57536-47.12863c5.89092-3.67357 10.6705-12.21995 10.71655-19.16229l.59631-89.90907c.046-6.94233-4.78135-15.44261-11.72367-15.39364z" fill="#00aad4"/><rect fill="#0cf" height="111.41566" ry="12.143711" transform="matrix(.85586624 .51719723 .00684405 .99997658 0 0)" width="113.15113" x="-678.87305" y="1073.5972"/><rect fill="#5df" height="112.81577" ry="14.66605" transform="matrix(.86530322 .50124878 -.86512318 .50155946 0 0)" width="112.68221" x="388.7005" y="942.09778"/></g><g transform="matrix(.96335893 0 0 .96335893 1652.91004427 154.01396042)"><path d="m-442.65137 1055.1932c-5.37558-.0004-10.75247-.4342-14.87109-1.3009l-84.63672-17.8104c-1.65176-.3475-2.95609-.7386-3.94531-1.154-3.71453-1.1985-6.62987-3.2201-7.13477-4.9803-.41372-.4331-.64391-.9429-.63281-1.5313l.69922-37.06c.054-2.86135 5.52976-6.35712 12.27734-7.8371l89.12695-19.54942c1.48558-.32573 2.89873-.51836 4.20899-.60182 3.99244-.574 8.30073-.65058 11.66992.11216l88.56445 20.04642c6.90343 1.56259 12.50464 5.19835 12.5586 8.15116l.69922 38.2432c.0315 1.7289-1.90581 3.6797-5.14063 5.0001-.19992.086-.41416.1725-.64258.2558-.016 0-.0327.022-.0488.022-.90767.3313-2.01326.6462-3.36329.9301l-84.51953 17.7707c-4.11948.8661-9.49355 1.2992-14.86914 1.2988z" fill="url(#c)" filter="url(#b)" transform="matrix(.84718319 0 0 1.0213689 -103.68658 -169.01715)"/><path d="m-397.75084 715.67331l-163.78868 1.15534c-6.94231.049-14.10792 13.10451-10.71655 19.16231l80.79533 144.31978c3.39136 6.05781 12.65442 10.6298 18.54535 6.9562l75.57536-47.12863c5.89092-3.67357 10.6705-12.21995 10.71655-19.16229l.59631-89.90907c.046-6.94233-4.78135-15.44261-11.72367-15.39364z" fill="#e67e22"/><rect fill="#ffa522" height="111.41566" ry="12.143711" transform="matrix(.85586624 .51719723 .00684405 .99997658 0 0)" width="113.15113" x="-678.87305" y="1073.5972"/><rect fill="#ffc647" height="112.81577" ry="14.66605" transform="matrix(.86530322 .50124878 -.86512318 .50155946 0 0)" width="112.68221" x="388.7005" y="942.09778"/></g><g transform="matrix(.96335893 0 0 .96335893 948.31072427 -81.76998958)"><path d="m-442.65137 1055.1932c-5.37558-.0004-10.75247-.4342-14.87109-1.3009l-84.63672-17.8104c-1.65176-.3475-2.95609-.7386-3.94531-1.154-3.71453-1.1985-6.62987-3.2201-7.13477-4.9803-.41372-.4331-.64391-.9429-.63281-1.5313l.69922-37.06c.054-2.86135 5.52976-6.35712 12.27734-7.8371l89.12695-19.54942c1.48558-.32573 2.89873-.51836 4.20899-.60182 3.99244-.574 8.30073-.65058 11.66992.11216l88.56445 20.04642c6.90343 1.56259 12.50464 5.19835 12.5586 8.15116l.69922 38.2432c.0315 1.7289-1.90581 3.6797-5.14063 5.0001-.19992.086-.41416.1725-.64258.2558-.016 0-.0327.022-.0488.022-.90767.3313-2.01326.6462-3.36329.9301l-84.51953 17.7707c-4.11948.8661-9.49355 1.2992-14.86914 1.2988z" fill="url(#d)" filter="url(#b)" transform="matrix(.84718319 0 0 1.0213689 -103.68658 -169.01715)"/><path d="m-397.75084 715.67331l-163.78868 1.15534c-6.94231.049-14.10792 13.10451-10.71655 19.16231l80.79533 144.31978c3.39136 6.05781 12.65442 10.6298 18.54535 6.9562l75.57536-47.12863c5.89092-3.67357 10.6705-12.21995 10.71655-19.16229l.59631-89.90907c.046-6.94233-4.78135-15.44261-11.72367-15.39364z" fill="#d80073"/><rect fill="#e8338b" height="111.41566" ry="12.143711" transform="matrix(.85586624 .51719723 .00684405 .99997658 0 0)" width="113.15113" x="-678.87305" y="1073.5972"/><rect fill="#e85bbe" height="112.81577" ry="14.66605" transform="matrix(.86530322 .50124878 -.86512318 .50155946 0 0)" width="112.68221" x="388.7005" y="942.09778"/></g><g transform="matrix(.96335893 0 0 .96335893 1089.73929427 -30.34141858)"><path d="m-442.65137 1055.1932c-5.37558-.0004-10.75247-.4342-14.87109-1.3009l-84.63672-17.8104c-1.65176-.3475-2.95609-.7386-3.94531-1.154-3.71453-1.1985-6.62987-3.2201-7.13477-4.9803-.41372-.4331-.64391-.9429-.63281-1.5313l.69922-37.06c.054-2.86135 5.52976-6.35712 12.27734-7.8371l89.12695-19.54942c1.48558-.32573 2.89873-.51836 4.20899-.60182 3.99244-.574 8.30073-.65058 11.66992.11216l88.56445 20.04642c6.90343 1.56259 12.50464 5.19835 12.5586 8.15116l.69922 38.2432c.0315 1.7289-1.90581 3.6797-5.14063 5.0001-.19992.086-.41416.1725-.64258.2558-.016 0-.0327.022-.0488.022-.90767.3313-2.01326.6462-3.36329.9301l-84.51953 17.7707c-4.11948.8661-9.49355 1.2992-14.86914 1.2988z" fill="url(#d)" filter="url(#b)" transform="matrix(.84718319 0 0 1.0213689 -103.68658 -169.01715)"/><path d="m-397.75084 715.67331l-163.78868 1.15534c-6.94231.049-14.10792 13.10451-10.71655 19.16231l80.79533 144.31978c3.39136 6.05781 12.65442 10.6298 18.54535 6.9562l75.57536-47.12863c5.89092-3.67357 10.6705-12.21995 10.71655-19.16229l.59631-89.90907c.046-6.94233-4.78135-15.44261-11.72367-15.39364z" fill="#d80073"/><rect fill="#e8338b" height="111.41566" ry="12.143711" transform="matrix(.85586624 .51719723 .00684405 .99997658 0 0)" width="113.15113" x="-678.87305" y="1073.5972"/><rect fill="#e85bbe" height="112.81577" ry="14.66605" transform="matrix(.86530322 .50124878 -.86512318 .50155946 0 0)" width="112.68221" x="388.7005" y="942.09778"/></g><g><path d="m776.6785 662.47113v-63.56849h-12.01925l-2.40385 3.65029h10.77281v59.9182z"/><path d="m834.40499 630.1527q0-12.55344-5.25286-21.99078-6.41026-11.307-18.07339-11.307-11.66313 0-18.07339 11.307-5.25286 9.25927-5.25286 21.99078 0 12.64247 5.25286 21.90175 6.41026 11.307 18.07339 11.307 11.75216 0 18.16242-11.21797 5.16383-9.17025 5.16383-21.99078zm-3.82835 0q0 12.19731-4.89674 20.29918-5.43092 9.17024-14.60116 9.17024-9.8825 0-15.22439-10.32765-4.18448-8.1909-4.18448-19.14177 0-12.01925 4.89674-20.38821 5.51995-9.25928 14.51213-9.25928 10.06056 0 15.31342 10.32765 4.18448 8.1909 4.18448 19.31984z"/><path d="m850.40771 662.47113v-63.56849h-12.01925l-2.40385 3.65029h10.77281v59.9182z"/><path d="m908.1342 630.1527q0-12.55344-5.25286-21.99078-6.41027-11.307-18.07339-11.307-11.66313 0-18.0734 11.307-5.25286 9.25927-5.25286 21.99078 0 12.64247 5.25286 21.90175 6.41027 11.307 18.0734 11.307 11.75215 0 18.16242-11.21797 5.16383-9.17025 5.16383-21.99078zm-3.82836 0q0 12.19731-4.89673 20.29918-5.43092 9.17024-14.60116 9.17024-9.8825 0-15.22439-10.32765-4.18448-8.1909-4.18448-19.14177 0-12.01925 4.89673-20.38821 5.51995-9.25928 14.51214-9.25928 10.06055 0 15.31341 10.32765 4.18448 8.1909 4.18448 19.31984z"/><path d="m920.38645 649.29447v-50.39183h-3.56126v50.39183zm1.51354 10.32765q-.26709-1.51353-.97935-2.22578-.97934-.97935-2.22578-.97935-3.20514.53419-3.20514 3.20513 0 3.20514 3.20514 3.20514 3.20513-.53419 3.20513-3.20514z"/><path d="m792.5261 773.7605l-33.11971-33.20875 30.44877-30.35974h-5.16383l-28.40104 28.22298v-28.22298h-3.6503v63.56849h3.6503v-30.18168l.53418-.53419 30.62684 30.71587z"/><path d="m803.78303 773.7605v-65.88331h-3.56126v65.88331z"/><path d="m851.45104 755.42001q0-8.01283-5.51995-13.53279-5.51995-5.51995-13.44376-5.51995-8.01283 0-13.44375 5.60898-5.51995 5.51996-5.51995 13.44376 0 8.01283 5.51995 13.53279 5.43092 5.43092 13.44375 5.43092 8.01284 0 13.53279-5.51995 5.43092-5.43093 5.43092-13.44376zm-3.56126 0q0 6.41027-4.5406 10.95087-4.45158 4.45158-10.86185 4.45158-6.32123 0-10.86184-4.54061-4.5406-4.5406-4.5406-10.86184 0-6.2322 4.62963-10.86184 4.54061-4.62964 10.77281-4.62964 6.4993 0 10.95088 4.54061 4.45157 4.45157 4.45157 10.95087z"/><path d="m899.61847 755.42001q0-8.01283-5.51995-13.53279-5.51996-5.51995-13.44376-5.51995-8.01283 0-13.44375 5.60898-5.51996 5.51996-5.51996 13.44376 0 8.01283 5.51996 13.53279 5.43092 5.43092 13.44375 5.43092 8.01284 0 13.53279-5.51995 5.43092-5.43093 5.43092-13.44376zm-3.56126 0q0 6.41027-4.54061 10.95087-4.45157 4.45158-10.86184 4.45158-6.32123 0-10.86184-4.54061-4.54061-4.5406-4.54061-10.86184 0-6.2322 4.62964-10.86184 4.54061-4.62964 10.77281-4.62964 6.4993 0 10.95088 4.54061 4.45157 4.45157 4.45157 10.95087z"/><path d="m937.19393 773.7605v-22.34691q0-7.03349-3.65029-10.95087-3.65029-3.91739-10.50571-3.91739-8.10187 0-10.59475 4.89674v-4.45158h-3.65029v36.77001h3.65029v-22.34691q0-5.25286 2.75998-8.27993 2.67094-3.02707 7.83477-3.02707 10.50571 0 10.50571 11.66313v21.99078z"/><path d="m949.78423 727.46412q-.71225-2.93804-2.93804-2.93804-2.93803.53419-2.93803 2.93804.089 1.33547.89031 2.13676 1.06838.80128 2.04772.80128 2.93804 0 2.93804-2.93804zm-1.15741 46.29638v-36.77001h-3.65029v36.77001z"/></g></g></svg>