<?xml version="1.0" encoding="UTF-8" standalone="no"?>
<svg
   xmlns:dc="http://purl.org/dc/elements/1.1/"
   xmlns:cc="http://creativecommons.org/ns#"
   xmlns:rdf="http://www.w3.org/1999/02/22-rdf-syntax-ns#"
   xmlns:svg="http://www.w3.org/2000/svg"
   xmlns="http://www.w3.org/2000/svg"
   xmlns:xlink="http://www.w3.org/1999/xlink"
   id="svg4534"
   version="1.1"
   viewBox="0 0 186.53125 91.016669"
   height="344"
   width="705">
  <defs
     id="defs4528">
    <linearGradient
       y2="1062.272"
       y1="1002.7515"
       x2="-440.17316"
       x1="-440.17316"
       gradientUnits="userSpaceOnUse"
       id="a-3">
      <stop
         id="stop2-6"
         stop-opacity=".27272728"
         stop-color="#005497"
         offset="0" />
      <stop
         id="stop4-7"
         stop-opacity=".06818182"
         stop-color="#005497"
         offset="1" />
    </linearGradient>
    <filter
       y="-0.095373832"
       x="-0.040038541"
       width="1.0800771"
       height="1.1907477"
       id="b-5"
       style="color-interpolation-filters:sRGB">
      <feGaussianBlur
         id="feGaussianBlur7-3"
         stdDeviation="3.6669538" />
    </filter>
    <linearGradient
       y2="1062.272"
       x2="-440.17316"
       y1="1002.7515"
       x1="-440.17316"
       gradientUnits="userSpaceOnUse"
       id="linearGradient4780"
       xlink:href="#d" />
    <linearGradient
       y2="1062.272"
       y1="1002.7515"
       x2="-440.17316"
       x1="-440.17316"
       gradientUnits="userSpaceOnUse"
       id="d">
      <stop
         id="stop15"
         stop-opacity=".27450982"
         stop-color="#ff5497"
         offset="0" />
      <stop
         id="stop17"
         stop-opacity=".06666667"
         stop-color="#ff5497"
         offset="1" />
    </linearGradient>
    <filter
       y="-0.095373832"
       x="-0.040038541"
       width="1.0800771"
       height="1.1907477"
       id="b"
       style="color-interpolation-filters:sRGB">
      <feGaussianBlur
         id="feGaussianBlur7"
         stdDeviation="3.6669538" />
    </filter>
    <filter
       y="-0.095373832"
       x="-0.040038541"
       width="1.0800771"
       height="1.1907477"
       id="filter5144"
       style="color-interpolation-filters:sRGB">
      <feGaussianBlur
         id="feGaussianBlur5142"
         stdDeviation="3.6669538" />
    </filter>
    <linearGradient
       y2="1062.272"
       x2="-440.17316"
       y1="1002.7515"
       x1="-440.17316"
       gradientUnits="userSpaceOnUse"
       id="linearGradient4776"
       xlink:href="#c" />
    <linearGradient
       y2="1062.272"
       y1="1002.7515"
       x2="-440.17316"
       x1="-440.17316"
       gradientUnits="userSpaceOnUse"
       id="c">
      <stop
         id="stop10"
         stop-opacity=".27450982"
         stop-color="#ff6e07"
         offset="0" />
      <stop
         id="stop12"
         stop-opacity=".06666667"
         stop-color="#ff541c"
         offset="1" />
    </linearGradient>
    <filter
       y="-0.095373832"
       x="-0.040038541"
       width="1.0800771"
       height="1.1907477"
       id="filter5152"
       style="color-interpolation-filters:sRGB">
      <feGaussianBlur
         id="feGaussianBlur5150"
         stdDeviation="3.6669538" />
    </filter>
    <linearGradient
       y2="1062.272"
       x2="-440.17316"
       y1="1002.7515"
       x1="-440.17316"
       gradientUnits="userSpaceOnUse"
       id="linearGradient4774"
       xlink:href="#a-3" />
    <filter
       y="-0.095373832"
       x="-0.040038541"
       width="1.0800771"
       height="1.1907477"
       id="filter5160"
       style="color-interpolation-filters:sRGB">
      <feGaussianBlur
         id="feGaussianBlur5158"
         stdDeviation="3.6669538" />
    </filter>
    <filter
       y="-0.095373832"
       x="-0.040038541"
       width="1.0800771"
       height="1.1907477"
       id="filter5171"
       style="color-interpolation-filters:sRGB">
      <feGaussianBlur
         id="feGaussianBlur5169"
         stdDeviation="3.6669538" />
    </filter>
    <filter
       y="-0.095373832"
       x="-0.040038541"
       width="1.0800771"
       height="1.1907477"
       id="filter5182"
       style="color-interpolation-filters:sRGB">
      <feGaussianBlur
         id="feGaussianBlur5180"
         stdDeviation="3.6669538" />
    </filter>
    <filter
       y="-0.095373832"
       x="-0.040038541"
       width="1.0800771"
       height="1.1907477"
       id="filter5193"
       style="color-interpolation-filters:sRGB">
      <feGaussianBlur
         id="feGaussianBlur5191"
         stdDeviation="3.6669538" />
    </filter>
    <filter
       y="-0.095373832"
       x="-0.040038541"
       width="1.0800771"
       height="1.1907477"
       id="filter5204"
       style="color-interpolation-filters:sRGB">
      <feGaussianBlur
         id="feGaussianBlur5202"
         stdDeviation="3.6669538" />
    </filter>
    <filter
       y="-0.095373832"
       x="-0.040038541"
       width="1.0800771"
       height="1.1907477"
       id="filter5215"
       style="color-interpolation-filters:sRGB">
      <feGaussianBlur
         id="feGaussianBlur5213"
         stdDeviation="3.6669538" />
    </filter>
    <filter
       y="-0.095373832"
       x="-0.040038541"
       width="1.0800771"
       height="1.1907477"
       id="filter5226"
       style="color-interpolation-filters:sRGB">
      <feGaussianBlur
         id="feGaussianBlur5224"
         stdDeviation="3.6669538" />
    </filter>
    <linearGradient
       gradientUnits="userSpaceOnUse"
       y2="-354.60028"
       x2="189.20795"
       y1="-485.40198"
       x1="117.92211"
       id="linearGradient4929"
       xlink:href="#linearGradient4927"
       gradientTransform="matrix(0.26458333,0,0,0.26458333,54.673499,367.28816)" />
    <linearGradient
       id="linearGradient4927">
      <stop
         id="stop4923"
         offset="0"
         style="stop-color:#e0ffff;stop-opacity:1" />
      <stop
         id="stop4925"
         offset="1"
         style="stop-color:#ffccff;stop-opacity:1" />
    </linearGradient>
    <linearGradient
       y2="1062.272"
       x2="-440.17316"
       y1="1002.7515"
       x1="-440.17316"
       gradientUnits="userSpaceOnUse"
       id="linearGradient5328"
       xlink:href="#a-3" />
    <linearGradient
       y2="1062.272"
       x2="-440.17316"
       y1="1002.7515"
       x1="-440.17316"
       gradientUnits="userSpaceOnUse"
       id="linearGradient5330"
       xlink:href="#c" />
    <linearGradient
       y2="1062.272"
       x2="-440.17316"
       y1="1002.7515"
       x1="-440.17316"
       gradientUnits="userSpaceOnUse"
       id="linearGradient5332"
       xlink:href="#c" />
    <linearGradient
       y2="1062.272"
       x2="-440.17316"
       y1="1002.7515"
       x1="-440.17316"
       gradientUnits="userSpaceOnUse"
       id="linearGradient5334"
       xlink:href="#c" />
    <linearGradient
       y2="1062.272"
       x2="-440.17316"
       y1="1002.7515"
       x1="-440.17316"
       gradientUnits="userSpaceOnUse"
       id="linearGradient5336"
       xlink:href="#a-3" />
    <linearGradient
       y2="1062.272"
       x2="-440.17316"
       y1="1002.7515"
       x1="-440.17316"
       gradientUnits="userSpaceOnUse"
       id="linearGradient5338"
       xlink:href="#a-3" />
    <linearGradient
       y2="1062.272"
       x2="-440.17316"
       y1="1002.7515"
       x1="-440.17316"
       gradientUnits="userSpaceOnUse"
       id="linearGradient5340"
       xlink:href="#d" />
    <linearGradient
       y2="1062.272"
       x2="-440.17316"
       y1="1002.7515"
       x1="-440.17316"
       gradientUnits="userSpaceOnUse"
       id="linearGradient5342"
       xlink:href="#a-3" />
  </defs>
  <metadata
     id="metadata4531">
    <rdf:RDF>
      <cc:Work
         rdf:about="">
        <dc:format>image/svg+xml</dc:format>
        <dc:type
           rdf:resource="http://purl.org/dc/dcmitype/StillImage" />
        <dc:title></dc:title>
      </cc:Work>
    </rdf:RDF>
  </metadata>
  <g
     transform="translate(0,-205.98332)"
     id="layer1">
    <rect
       y="205.98332"
       x="0"
       height="91.01667"
       width="186.53125"
       id="rect4634"
       style="fill:url(#linearGradient4929);fill-opacity:1;stroke:none;stroke-width:7.32099152;stroke-miterlimit:4;stroke-dasharray:none;stroke-opacity:1" />
    <g
       id="g4644"
       transform="matrix(0.130994,0,0,0.130994,82.301731,125.30822)">
      <path
         id="path4636"
         transform="matrix(0.84718319,0,0,1.0213689,-103.68658,-169.01715)"
         d="m -442.65137,1055.1932 c -5.37558,-4e-4 -10.75247,-0.4342 -14.87109,-1.3009 l -84.63672,-17.8104 c -1.65176,-0.3475 -2.95609,-0.7386 -3.94531,-1.154 -3.71453,-1.1985 -6.62987,-3.2201 -7.13477,-4.9803 -0.41372,-0.4331 -0.64391,-0.9429 -0.63281,-1.5313 l 0.69922,-37.06 c 0.054,-2.86135 5.52976,-6.35712 12.27734,-7.8371 l 89.12695,-19.54942 c 1.48558,-0.32573 2.89873,-0.51836 4.20899,-0.60182 3.99244,-0.574 8.30073,-0.65058 11.66992,0.11216 l 88.56445,20.04642 c 6.90343,1.56259 12.50464,5.19835 12.5586,8.15116 l 0.69922,38.2432 c 0.0315,1.7289 -1.90581,3.6797 -5.14063,5.0001 -0.19992,0.086 -0.41416,0.1725 -0.64258,0.2558 -0.016,0 -0.0327,0.022 -0.0488,0.022 -0.90767,0.3313 -2.01326,0.6462 -3.36329,0.9301 l -84.51953,17.7707 c -4.11948,0.8661 -9.49355,1.2992 -14.86914,1.2988 z"
         style="fill:url(#linearGradient5328);filter:url(#b)" />
      <path
         id="path4638"
         d="m -397.75084,715.67331 -163.78868,1.15534 c -6.94231,0.049 -14.10792,13.10451 -10.71655,19.16231 l 80.79533,144.31978 c 3.39136,6.05781 12.65442,10.6298 18.54535,6.9562 l 75.57536,-47.12863 c 5.89092,-3.67357 10.6705,-12.21995 10.71655,-19.16229 l 0.59631,-89.90907 c 0.046,-6.94233 -4.78135,-15.44261 -11.72367,-15.39364 z"
         style="fill:#00aad4" />
      <rect
         id="rect4640"
         y="1073.5972"
         x="-678.87305"
         width="113.15113"
         transform="matrix(0.85586624,0.51719723,0.00684405,0.99997658,0,0)"
         ry="12.143711"
         height="111.41566"
         style="fill:#00ccff" />
      <rect
         id="rect4642"
         y="942.09778"
         x="388.7005"
         width="112.68221"
         transform="matrix(0.86530322,0.50124878,-0.86512318,0.50155946,0,0)"
         ry="14.66605"
         height="112.81577"
         style="fill:#55ddff" />
    </g>
    <g
       id="g4654"
       transform="matrix(0.130994,0,0,0.130994,209.49413,124.75879)">
      <path
         id="path4646"
         transform="matrix(0.84718319,0,0,1.0213689,-103.68658,-169.01715)"
         d="m -442.65137,1055.1932 c -5.37558,-4e-4 -10.75247,-0.4342 -14.87109,-1.3009 l -84.63672,-17.8104 c -1.65176,-0.3475 -2.95609,-0.7386 -3.94531,-1.154 -3.71453,-1.1985 -6.62987,-3.2201 -7.13477,-4.9803 -0.41372,-0.4331 -0.64391,-0.9429 -0.63281,-1.5313 l 0.69922,-37.06 c 0.054,-2.86135 5.52976,-6.35712 12.27734,-7.8371 l 89.12695,-19.54942 c 1.48558,-0.32573 2.89873,-0.51836 4.20899,-0.60182 3.99244,-0.574 8.30073,-0.65058 11.66992,0.11216 l 88.56445,20.04642 c 6.90343,1.56259 12.50464,5.19835 12.5586,8.15116 l 0.69922,38.2432 c 0.0315,1.7289 -1.90581,3.6797 -5.14063,5.0001 -0.19992,0.086 -0.41416,0.1725 -0.64258,0.2558 -0.016,0 -0.0327,0.022 -0.0488,0.022 -0.90767,0.3313 -2.01326,0.6462 -3.36329,0.9301 l -84.51953,17.7707 c -4.11948,0.8661 -9.49355,1.2992 -14.86914,1.2988 z"
         style="fill:url(#linearGradient5330);filter:url(#b)" />
      <path
         id="path4648"
         d="m -397.75084,715.67331 -163.78868,1.15534 c -6.94231,0.049 -14.10792,13.10451 -10.71655,19.16231 l 80.79533,144.31978 c 3.39136,6.05781 12.65442,10.6298 18.54535,6.9562 l 75.57536,-47.12863 c 5.89092,-3.67357 10.6705,-12.21995 10.71655,-19.16229 l 0.59631,-89.90907 c 0.046,-6.94233 -4.78135,-15.44261 -11.72367,-15.39364 z"
         style="fill:#e67e22" />
      <rect
         id="rect4650"
         y="1073.5972"
         x="-678.87305"
         width="113.15113"
         transform="matrix(0.85586624,0.51719723,0.00684405,0.99997658,0,0)"
         ry="12.143711"
         height="111.41566"
         style="fill:#ffa522" />
      <rect
         id="rect4652"
         y="942.09778"
         x="388.7005"
         width="112.68221"
         transform="matrix(0.86530322,0.50124878,-0.86512318,0.50155946,0,0)"
         ry="14.66605"
         height="112.81577"
         style="fill:#ffc647" />
    </g>
    <g
       id="g4664"
       transform="matrix(0.130994,0,0,0.130994,230.09767,134.09906)">
      <path
         id="path4656"
         transform="matrix(0.84718319,0,0,1.0213689,-103.68658,-169.01715)"
         d="m -442.65137,1055.1932 c -5.37558,-4e-4 -10.75247,-0.4342 -14.87109,-1.3009 l -84.63672,-17.8104 c -1.65176,-0.3475 -2.95609,-0.7386 -3.94531,-1.154 -3.71453,-1.1985 -6.62987,-3.2201 -7.13477,-4.9803 -0.41372,-0.4331 -0.64391,-0.9429 -0.63281,-1.5313 l 0.69922,-37.06 c 0.054,-2.86135 5.52976,-6.35712 12.27734,-7.8371 l 89.12695,-19.54942 c 1.48558,-0.32573 2.89873,-0.51836 4.20899,-0.60182 3.99244,-0.574 8.30073,-0.65058 11.66992,0.11216 l 88.56445,20.04642 c 6.90343,1.56259 12.50464,5.19835 12.5586,8.15116 l 0.69922,38.2432 c 0.0315,1.7289 -1.90581,3.6797 -5.14063,5.0001 -0.19992,0.086 -0.41416,0.1725 -0.64258,0.2558 -0.016,0 -0.0327,0.022 -0.0488,0.022 -0.90767,0.3313 -2.01326,0.6462 -3.36329,0.9301 l -84.51953,17.7707 c -4.11948,0.8661 -9.49355,1.2992 -14.86914,1.2988 z"
         style="fill:url(#linearGradient5332);filter:url(#b)" />
      <path
         id="path4658"
         d="m -397.75084,715.67331 -163.78868,1.15534 c -6.94231,0.049 -14.10792,13.10451 -10.71655,19.16231 l 80.79533,144.31978 c 3.39136,6.05781 12.65442,10.6298 18.54535,6.9562 l 75.57536,-47.12863 c 5.89092,-3.67357 10.6705,-12.21995 10.71655,-19.16229 l 0.59631,-89.90907 c 0.046,-6.94233 -4.78135,-15.44261 -11.72367,-15.39364 z"
         style="fill:#e67e22" />
      <rect
         id="rect4660"
         y="1073.5972"
         x="-678.87305"
         width="113.15113"
         transform="matrix(0.85586624,0.51719723,0.00684405,0.99997658,0,0)"
         ry="12.143711"
         height="111.41566"
         style="fill:#ffa522" />
      <rect
         id="rect4662"
         y="942.09778"
         x="388.7005"
         width="112.68221"
         transform="matrix(0.86530322,0.50124878,-0.86512318,0.50155946,0,0)"
         ry="14.66605"
         height="112.81577"
         style="fill:#ffc647" />
    </g>
    <g
       id="g4674"
       transform="matrix(0.130994,0,0,0.130994,210.31829,143.98875)">
      <path
         id="path4666"
         transform="matrix(0.84718319,0,0,1.0213689,-103.68658,-169.01715)"
         d="m -442.65137,1055.1932 c -5.37558,-4e-4 -10.75247,-0.4342 -14.87109,-1.3009 l -84.63672,-17.8104 c -1.65176,-0.3475 -2.95609,-0.7386 -3.94531,-1.154 -3.71453,-1.1985 -6.62987,-3.2201 -7.13477,-4.9803 -0.41372,-0.4331 -0.64391,-0.9429 -0.63281,-1.5313 l 0.69922,-37.06 c 0.054,-2.86135 5.52976,-6.35712 12.27734,-7.8371 l 89.12695,-19.54942 c 1.48558,-0.32573 2.89873,-0.51836 4.20899,-0.60182 3.99244,-0.574 8.30073,-0.65058 11.66992,0.11216 l 88.56445,20.04642 c 6.90343,1.56259 12.50464,5.19835 12.5586,8.15116 l 0.69922,38.2432 c 0.0315,1.7289 -1.90581,3.6797 -5.14063,5.0001 -0.19992,0.086 -0.41416,0.1725 -0.64258,0.2558 -0.016,0 -0.0327,0.022 -0.0488,0.022 -0.90767,0.3313 -2.01326,0.6462 -3.36329,0.9301 l -84.51953,17.7707 c -4.11948,0.8661 -9.49355,1.2992 -14.86914,1.2988 z"
         style="fill:url(#linearGradient5334);filter:url(#b)" />
      <path
         id="path4668"
         d="m -397.75084,715.67331 -163.78868,1.15534 c -6.94231,0.049 -14.10792,13.10451 -10.71655,19.16231 l 80.79533,144.31978 c 3.39136,6.05781 12.65442,10.6298 18.54535,6.9562 l 75.57536,-47.12863 c 5.89092,-3.67357 10.6705,-12.21995 10.71655,-19.16229 l 0.59631,-89.90907 c 0.046,-6.94233 -4.78135,-15.44261 -11.72367,-15.39364 z"
         style="fill:#e67e22" />
      <rect
         id="rect4670"
         y="1073.5972"
         x="-678.87305"
         width="113.15113"
         transform="matrix(0.85586624,0.51719723,0.00684405,0.99997658,0,0)"
         ry="12.143711"
         height="111.41566"
         style="fill:#ffa522" />
      <rect
         id="rect4672"
         y="942.09778"
         x="388.7005"
         width="112.68221"
         transform="matrix(0.86530322,0.50124878,-0.86512318,0.50155946,0,0)"
         ry="14.66605"
         height="112.81577"
         style="fill:#ffc647" />
    </g>
    <g
       id="g4684"
       transform="matrix(0.130994,0,0,0.130994,81.752302,142.61518)">
      <path
         id="path4676"
         transform="matrix(0.84718319,0,0,1.0213689,-103.68658,-169.01715)"
         d="m -442.65137,1055.1932 c -5.37558,-4e-4 -10.75247,-0.4342 -14.87109,-1.3009 l -84.63672,-17.8104 c -1.65176,-0.3475 -2.95609,-0.7386 -3.94531,-1.154 -3.71453,-1.1985 -6.62987,-3.2201 -7.13477,-4.9803 -0.41372,-0.4331 -0.64391,-0.9429 -0.63281,-1.5313 l 0.69922,-37.06 c 0.054,-2.86135 5.52976,-6.35712 12.27734,-7.8371 l 89.12695,-19.54942 c 1.48558,-0.32573 2.89873,-0.51836 4.20899,-0.60182 3.99244,-0.574 8.30073,-0.65058 11.66992,0.11216 l 88.56445,20.04642 c 6.90343,1.56259 12.50464,5.19835 12.5586,8.15116 l 0.69922,38.2432 c 0.0315,1.7289 -1.90581,3.6797 -5.14063,5.0001 -0.19992,0.086 -0.41416,0.1725 -0.64258,0.2558 -0.016,0 -0.0327,0.022 -0.0488,0.022 -0.90767,0.3313 -2.01326,0.6462 -3.36329,0.9301 l -84.51953,17.7707 c -4.11948,0.8661 -9.49355,1.2992 -14.86914,1.2988 z"
         style="fill:url(#linearGradient5336);filter:url(#b)" />
      <path
         id="path4678"
         d="m -397.75084,715.67331 -163.78868,1.15534 c -6.94231,0.049 -14.10792,13.10451 -10.71655,19.16231 l 80.79533,144.31978 c 3.39136,6.05781 12.65442,10.6298 18.54535,6.9562 l 75.57536,-47.12863 c 5.89092,-3.67357 10.6705,-12.21995 10.71655,-19.16229 l 0.59631,-89.90907 c 0.046,-6.94233 -4.78135,-15.44261 -11.72367,-15.39364 z"
         style="fill:#00aad4" />
      <rect
         id="rect4680"
         y="1073.5972"
         x="-678.87305"
         width="113.15113"
         transform="matrix(0.85586624,0.51719723,0.00684405,0.99997658,0,0)"
         ry="12.143711"
         height="111.41566"
         style="fill:#00ccff" />
      <rect
         id="rect4682"
         y="942.09778"
         x="388.7005"
         width="112.68221"
         transform="matrix(0.86530322,0.50124878,-0.86512318,0.50155946,0,0)"
         ry="14.66605"
         height="112.81577"
         style="fill:#55ddff" />
    </g>
    <g
       id="g4694"
       transform="matrix(0.130994,0,0,0.130994,103.90984,152.52439)">
      <path
         id="path4686"
         transform="matrix(0.84718319,0,0,1.0213689,-103.68658,-169.01715)"
         d="m -442.65137,1055.1932 c -5.37558,-4e-4 -10.75247,-0.4342 -14.87109,-1.3009 l -84.63672,-17.8104 c -1.65176,-0.3475 -2.95609,-0.7386 -3.94531,-1.154 -3.71453,-1.1985 -6.62987,-3.2201 -7.13477,-4.9803 -0.41372,-0.4331 -0.64391,-0.9429 -0.63281,-1.5313 l 0.69922,-37.06 c 0.054,-2.86135 5.52976,-6.35712 12.27734,-7.8371 l 89.12695,-19.54942 c 1.48558,-0.32573 2.89873,-0.51836 4.20899,-0.60182 3.99244,-0.574 8.30073,-0.65058 11.66992,0.11216 l 88.56445,20.04642 c 6.90343,1.56259 12.50464,5.19835 12.5586,8.15116 l 0.69922,38.2432 c 0.0315,1.7289 -1.90581,3.6797 -5.14063,5.0001 -0.19992,0.086 -0.41416,0.1725 -0.64258,0.2558 -0.016,0 -0.0327,0.022 -0.0488,0.022 -0.90767,0.3313 -2.01326,0.6462 -3.36329,0.9301 l -84.51953,17.7707 c -4.11948,0.8661 -9.49355,1.2992 -14.86914,1.2988 z"
         style="fill:url(#linearGradient5338);filter:url(#b)" />
      <path
         id="path4688"
         d="m -397.75084,715.67331 -163.78868,1.15534 c -6.94231,0.049 -14.10792,13.10451 -10.71655,19.16231 l 80.79533,144.31978 c 3.39136,6.05781 12.65442,10.6298 18.54535,6.9562 l 75.57536,-47.12863 c 5.89092,-3.67357 10.6705,-12.21995 10.71655,-19.16229 l 0.59631,-89.90907 c 0.046,-6.94233 -4.78135,-15.44261 -11.72367,-15.39364 z"
         style="fill:#00aad4" />
      <rect
         id="rect4690"
         y="1073.5972"
         x="-678.87305"
         width="113.15113"
         transform="matrix(0.85586624,0.51719723,0.00684405,0.99997658,0,0)"
         ry="12.143711"
         height="111.41566"
         style="fill:#00ccff" />
      <rect
         id="rect4692"
         y="942.09778"
         x="388.7005"
         width="112.68221"
         transform="matrix(0.86530322,0.50124878,-0.86512318,0.50155946,0,0)"
         ry="14.66605"
         height="112.81577"
         style="fill:#55ddff" />
    </g>
    <g
       id="g4704"
       transform="matrix(0.130994,0,0,0.130994,81.752302,157.99914)">
      <path
         id="path4696"
         transform="matrix(0.84718319,0,0,1.0213689,-103.68658,-169.01715)"
         d="m -442.65137,1055.1932 c -5.37558,-4e-4 -10.75247,-0.4342 -14.87109,-1.3009 l -84.63672,-17.8104 c -1.65176,-0.3475 -2.95609,-0.7386 -3.94531,-1.154 -3.71453,-1.1985 -6.62987,-3.2201 -7.13477,-4.9803 -0.41372,-0.4331 -0.64391,-0.9429 -0.63281,-1.5313 l 0.69922,-37.06 c 0.054,-2.86135 5.52976,-6.35712 12.27734,-7.8371 l 89.12695,-19.54942 c 1.48558,-0.32573 2.89873,-0.51836 4.20899,-0.60182 3.99244,-0.574 8.30073,-0.65058 11.66992,0.11216 l 88.56445,20.04642 c 6.90343,1.56259 12.50464,5.19835 12.5586,8.15116 l 0.69922,38.2432 c 0.0315,1.7289 -1.90581,3.6797 -5.14063,5.0001 -0.19992,0.086 -0.41416,0.1725 -0.64258,0.2558 -0.016,0 -0.0327,0.022 -0.0488,0.022 -0.90767,0.3313 -2.01326,0.6462 -3.36329,0.9301 l -84.51953,17.7707 c -4.11948,0.8661 -9.49355,1.2992 -14.86914,1.2988 z"
         style="fill:url(#linearGradient4774);filter:url(#b)" />
      <path
         id="path4698"
         d="m -397.75084,715.67331 -163.78868,1.15534 c -6.94231,0.049 -14.10792,13.10451 -10.71655,19.16231 l 80.79533,144.31978 c 3.39136,6.05781 12.65442,10.6298 18.54535,6.9562 l 75.57536,-47.12863 c 5.89092,-3.67357 10.6705,-12.21995 10.71655,-19.16229 l 0.59631,-89.90907 c 0.046,-6.94233 -4.78135,-15.44261 -11.72367,-15.39364 z"
         style="fill:#00aad4" />
      <rect
         id="rect4700"
         y="1073.5972"
         x="-678.87305"
         width="113.15113"
         transform="matrix(0.85586624,0.51719723,0.00684405,0.99997658,0,0)"
         ry="12.143711"
         height="111.41566"
         style="fill:#00ccff" />
      <rect
         id="rect4702"
         y="942.09778"
         x="388.7005"
         width="112.68221"
         transform="matrix(0.86530322,0.50124878,-0.86512318,0.50155946,0,0)"
         ry="14.66605"
         height="112.81577"
         style="fill:#55ddff" />
    </g>
    <g
       id="g4714"
       transform="matrix(0.130994,0,0,0.130994,225.70225,157.175)">
      <path
         id="path4706"
         transform="matrix(0.84718319,0,0,1.0213689,-103.68658,-169.01715)"
         d="m -442.65137,1055.1932 c -5.37558,-4e-4 -10.75247,-0.4342 -14.87109,-1.3009 l -84.63672,-17.8104 c -1.65176,-0.3475 -2.95609,-0.7386 -3.94531,-1.154 -3.71453,-1.1985 -6.62987,-3.2201 -7.13477,-4.9803 -0.41372,-0.4331 -0.64391,-0.9429 -0.63281,-1.5313 l 0.69922,-37.06 c 0.054,-2.86135 5.52976,-6.35712 12.27734,-7.8371 l 89.12695,-19.54942 c 1.48558,-0.32573 2.89873,-0.51836 4.20899,-0.60182 3.99244,-0.574 8.30073,-0.65058 11.66992,0.11216 l 88.56445,20.04642 c 6.90343,1.56259 12.50464,5.19835 12.5586,8.15116 l 0.69922,38.2432 c 0.0315,1.7289 -1.90581,3.6797 -5.14063,5.0001 -0.19992,0.086 -0.41416,0.1725 -0.64258,0.2558 -0.016,0 -0.0327,0.022 -0.0488,0.022 -0.90767,0.3313 -2.01326,0.6462 -3.36329,0.9301 l -84.51953,17.7707 c -4.11948,0.8661 -9.49355,1.2992 -14.86914,1.2988 z"
         style="fill:url(#linearGradient4776);filter:url(#b)" />
      <path
         id="path4708"
         d="m -397.75084,715.67331 -163.78868,1.15534 c -6.94231,0.049 -14.10792,13.10451 -10.71655,19.16231 l 80.79533,144.31978 c 3.39136,6.05781 12.65442,10.6298 18.54535,6.9562 l 75.57536,-47.12863 c 5.89092,-3.67357 10.6705,-12.21995 10.71655,-19.16229 l 0.59631,-89.90907 c 0.046,-6.94233 -4.78135,-15.44261 -11.72367,-15.39364 z"
         style="fill:#e67e22" />
      <rect
         id="rect4710"
         y="1073.5972"
         x="-678.87305"
         width="113.15113"
         transform="matrix(0.85586624,0.51719723,0.00684405,0.99997658,0,0)"
         ry="12.143711"
         height="111.41566"
         style="fill:#ffa522" />
      <rect
         id="rect4712"
         y="942.09778"
         x="388.7005"
         width="112.68221"
         transform="matrix(0.86530322,0.50124878,-0.86512318,0.50155946,0,0)"
         ry="14.66605"
         height="112.81577"
         style="fill:#ffc647" />
    </g>
    <g
       id="g4724"
       transform="matrix(0.130994,0,0,0.130994,129.89344,125.11397)">
      <path
         id="path4716"
         transform="matrix(0.84718319,0,0,1.0213689,-103.68658,-169.01715)"
         d="m -442.65137,1055.1932 c -5.37558,-4e-4 -10.75247,-0.4342 -14.87109,-1.3009 l -84.63672,-17.8104 c -1.65176,-0.3475 -2.95609,-0.7386 -3.94531,-1.154 -3.71453,-1.1985 -6.62987,-3.2201 -7.13477,-4.9803 -0.41372,-0.4331 -0.64391,-0.9429 -0.63281,-1.5313 l 0.69922,-37.06 c 0.054,-2.86135 5.52976,-6.35712 12.27734,-7.8371 l 89.12695,-19.54942 c 1.48558,-0.32573 2.89873,-0.51836 4.20899,-0.60182 3.99244,-0.574 8.30073,-0.65058 11.66992,0.11216 l 88.56445,20.04642 c 6.90343,1.56259 12.50464,5.19835 12.5586,8.15116 l 0.69922,38.2432 c 0.0315,1.7289 -1.90581,3.6797 -5.14063,5.0001 -0.19992,0.086 -0.41416,0.1725 -0.64258,0.2558 -0.016,0 -0.0327,0.022 -0.0488,0.022 -0.90767,0.3313 -2.01326,0.6462 -3.36329,0.9301 l -84.51953,17.7707 c -4.11948,0.8661 -9.49355,1.2992 -14.86914,1.2988 z"
         style="fill:url(#linearGradient5340);filter:url(#b)" />
      <path
         id="path4718"
         d="m -397.75084,715.67331 -163.78868,1.15534 c -6.94231,0.049 -14.10792,13.10451 -10.71655,19.16231 l 80.79533,144.31978 c 3.39136,6.05781 12.65442,10.6298 18.54535,6.9562 l 75.57536,-47.12863 c 5.89092,-3.67357 10.6705,-12.21995 10.71655,-19.16229 l 0.59631,-89.90907 c 0.046,-6.94233 -4.78135,-15.44261 -11.72367,-15.39364 z"
         style="fill:#d80073" />
      <rect
         id="rect4720"
         y="1073.5972"
         x="-678.87305"
         width="113.15113"
         transform="matrix(0.85586624,0.51719723,0.00684405,0.99997658,0,0)"
         ry="12.143711"
         height="111.41566"
         style="fill:#e8338b" />
      <rect
         id="rect4722"
         y="942.09778"
         x="388.7005"
         width="112.68221"
         transform="matrix(0.86530322,0.50124878,-0.86512318,0.50155946,0,0)"
         ry="14.66605"
         height="112.81577"
         style="fill:#e85bbe" />
    </g>
    <g
       id="g4734"
       transform="matrix(0.130994,0,0,0.130994,149.12438,132.10704)">
      <path
         id="path4726"
         transform="matrix(0.84718319,0,0,1.0213689,-103.68658,-169.01715)"
         d="m -442.65137,1055.1932 c -5.37558,-4e-4 -10.75247,-0.4342 -14.87109,-1.3009 l -84.63672,-17.8104 c -1.65176,-0.3475 -2.95609,-0.7386 -3.94531,-1.154 -3.71453,-1.1985 -6.62987,-3.2201 -7.13477,-4.9803 -0.41372,-0.4331 -0.64391,-0.9429 -0.63281,-1.5313 l 0.69922,-37.06 c 0.054,-2.86135 5.52976,-6.35712 12.27734,-7.8371 l 89.12695,-19.54942 c 1.48558,-0.32573 2.89873,-0.51836 4.20899,-0.60182 3.99244,-0.574 8.30073,-0.65058 11.66992,0.11216 l 88.56445,20.04642 c 6.90343,1.56259 12.50464,5.19835 12.5586,8.15116 l 0.69922,38.2432 c 0.0315,1.7289 -1.90581,3.6797 -5.14063,5.0001 -0.19992,0.086 -0.41416,0.1725 -0.64258,0.2558 -0.016,0 -0.0327,0.022 -0.0488,0.022 -0.90767,0.3313 -2.01326,0.6462 -3.36329,0.9301 l -84.51953,17.7707 c -4.11948,0.8661 -9.49355,1.2992 -14.86914,1.2988 z"
         style="fill:url(#linearGradient4780);filter:url(#b)" />
      <path
         id="path4728"
         d="m -397.75084,715.67331 -163.78868,1.15534 c -6.94231,0.049 -14.10792,13.10451 -10.71655,19.16231 l 80.79533,144.31978 c 3.39136,6.05781 12.65442,10.6298 18.54535,6.9562 l 75.57536,-47.12863 c 5.89092,-3.67357 10.6705,-12.21995 10.71655,-19.16229 l 0.59631,-89.90907 c 0.046,-6.94233 -4.78135,-15.44261 -11.72367,-15.39364 z"
         style="fill:#d80073" />
      <rect
         id="rect4730"
         y="1073.5972"
         x="-678.87305"
         width="113.15113"
         transform="matrix(0.85586624,0.51719723,0.00684405,0.99997658,0,0)"
         ry="12.143711"
         height="111.41566"
         style="fill:#e8338b" />
      <rect
         id="rect4732"
         y="942.09778"
         x="388.7005"
         width="112.68221"
         transform="matrix(0.86530322,0.50124878,-0.86512318,0.50155946,0,0)"
         ry="14.66605"
         height="112.81577"
         style="fill:#e85bbe" />
    </g>
    <g
       transform="matrix(0.15276193,0,0,0.15276193,-59.785212,172.36969)"
       id="g4758">
      <path
         id="path4736"
         d="m 776.6785,662.47113 v -63.56849 h -12.01925 l -2.40385,3.65029 h 10.77281 v 59.9182 z" />
      <path
         id="path4738"
         d="m 834.40499,630.1527 q 0,-12.55344 -5.25286,-21.99078 -6.41026,-11.307 -18.07339,-11.307 -11.66313,0 -18.07339,11.307 -5.25286,9.25927 -5.25286,21.99078 0,12.64247 5.25286,21.90175 6.41026,11.307 18.07339,11.307 11.75216,0 18.16242,-11.21797 5.16383,-9.17025 5.16383,-21.99078 z m -3.82835,0 q 0,12.19731 -4.89674,20.29918 -5.43092,9.17024 -14.60116,9.17024 -9.8825,0 -15.22439,-10.32765 -4.18448,-8.1909 -4.18448,-19.14177 0,-12.01925 4.89674,-20.38821 5.51995,-9.25928 14.51213,-9.25928 10.06056,0 15.31342,10.32765 4.18448,8.1909 4.18448,19.31984 z" />
      <path
         id="path4740"
         d="m 850.40771,662.47113 v -63.56849 h -12.01925 l -2.40385,3.65029 h 10.77281 v 59.9182 z" />
      <path
         id="path4742"
         d="m 908.1342,630.1527 q 0,-12.55344 -5.25286,-21.99078 -6.41027,-11.307 -18.07339,-11.307 -11.66313,0 -18.0734,11.307 -5.25286,9.25927 -5.25286,21.99078 0,12.64247 5.25286,21.90175 6.41027,11.307 18.0734,11.307 11.75215,0 18.16242,-11.21797 5.16383,-9.17025 5.16383,-21.99078 z m -3.82836,0 q 0,12.19731 -4.89673,20.29918 -5.43092,9.17024 -14.60116,9.17024 -9.8825,0 -15.22439,-10.32765 -4.18448,-8.1909 -4.18448,-19.14177 0,-12.01925 4.89673,-20.38821 5.51995,-9.25928 14.51214,-9.25928 10.06055,0 15.31341,10.32765 4.18448,8.1909 4.18448,19.31984 z" />
      <path
         id="path4744"
         d="m 920.38645,649.29447 v -50.39183 h -3.56126 v 50.39183 z m 1.51354,10.32765 q -0.26709,-1.51353 -0.97935,-2.22578 -0.97934,-0.97935 -2.22578,-0.97935 -3.20514,0.53419 -3.20514,3.20513 0,3.20514 3.20514,3.20514 3.20513,-0.53419 3.20513,-3.20514 z" />
      <path
         id="path4746"
         d="m 792.5261,773.7605 -33.11971,-33.20875 30.44877,-30.35974 h -5.16383 l -28.40104,28.22298 v -28.22298 h -3.6503 v 63.56849 h 3.6503 v -30.18168 l 0.53418,-0.53419 30.62684,30.71587 z" />
      <path
         id="path4748"
         d="m 803.78303,773.7605 v -65.88331 h -3.56126 v 65.88331 z" />
      <path
         id="path4750"
         d="m 851.45104,755.42001 q 0,-8.01283 -5.51995,-13.53279 -5.51995,-5.51995 -13.44376,-5.51995 -8.01283,0 -13.44375,5.60898 -5.51995,5.51996 -5.51995,13.44376 0,8.01283 5.51995,13.53279 5.43092,5.43092 13.44375,5.43092 8.01284,0 13.53279,-5.51995 5.43092,-5.43093 5.43092,-13.44376 z m -3.56126,0 q 0,6.41027 -4.5406,10.95087 -4.45158,4.45158 -10.86185,4.45158 -6.32123,0 -10.86184,-4.54061 -4.5406,-4.5406 -4.5406,-10.86184 0,-6.2322 4.62963,-10.86184 4.54061,-4.62964 10.77281,-4.62964 6.4993,0 10.95088,4.54061 4.45157,4.45157 4.45157,10.95087 z" />
      <path
         id="path4752"
         d="m 899.61847,755.42001 q 0,-8.01283 -5.51995,-13.53279 -5.51996,-5.51995 -13.44376,-5.51995 -8.01283,0 -13.44375,5.60898 -5.51996,5.51996 -5.51996,13.44376 0,8.01283 5.51996,13.53279 5.43092,5.43092 13.44375,5.43092 8.01284,0 13.53279,-5.51995 5.43092,-5.43093 5.43092,-13.44376 z m -3.56126,0 q 0,6.41027 -4.54061,10.95087 -4.45157,4.45158 -10.86184,4.45158 -6.32123,0 -10.86184,-4.54061 -4.54061,-4.5406 -4.54061,-10.86184 0,-6.2322 4.62964,-10.86184 4.54061,-4.62964 10.77281,-4.62964 6.4993,0 10.95088,4.54061 4.45157,4.45157 4.45157,10.95087 z" />
      <path
         id="path4754"
         d="m 937.19393,773.7605 v -22.34691 q 0,-7.03349 -3.65029,-10.95087 -3.65029,-3.91739 -10.50571,-3.91739 -8.10187,0 -10.59475,4.89674 v -4.45158 h -3.65029 v 36.77001 h 3.65029 v -22.34691 q 0,-5.25286 2.75998,-8.27993 2.67094,-3.02707 7.83477,-3.02707 10.50571,0 10.50571,11.66313 v 21.99078 z" />
      <path
         id="path4756"
         d="m 949.78423,727.46412 q -0.71225,-2.93804 -2.93804,-2.93804 -2.93803,0.53419 -2.93803,2.93804 0.089,1.33547 0.89031,2.13676 1.06838,0.80128 2.04772,0.80128 2.93804,0 2.93804,-2.93804 z m -1.15741,46.29638 v -36.77001 h -3.65029 v 36.77001 z" />
    </g>
    <g
       id="g22"
       transform="matrix(0.14591547,0,0,0.14591547,181.1832,110.17491)">
      <g
         id="g20"
         transform="matrix(1.3547235,0,0,1.3547235,160.26025,20.43346)">
        <path
           id="path12"
           transform="matrix(0.84718319,0,0,1.0213689,-103.68658,-169.01715)"
           d="m -442.65137,1055.1932 c -5.37558,-4e-4 -10.75247,-0.4342 -14.87109,-1.3009 l -84.63672,-17.8104 c -1.65176,-0.3475 -2.95609,-0.7386 -3.94531,-1.154 -3.71453,-1.1985 -6.62987,-3.2201 -7.13477,-4.9803 -0.41372,-0.4331 -0.64391,-0.9429 -0.63281,-1.5313 l 0.69922,-37.06 c 0.054,-2.86135 5.52976,-6.35712 12.27734,-7.8371 l 89.12695,-19.54942 c 1.48558,-0.32573 2.89873,-0.51836 4.20899,-0.60182 3.99244,-0.574 8.30073,-0.65058 11.66992,0.11216 l 88.56445,20.04642 c 6.90343,1.56259 12.50464,5.19835 12.5586,8.15116 l 0.69922,38.2432 c 0.0315,1.7289 -1.90581,3.6797 -5.14063,5.0001 -0.19992,0.086 -0.41416,0.1725 -0.64258,0.2558 -0.016,0 -0.0327,0.022 -0.0488,0.022 -0.90767,0.3313 -2.01326,0.6462 -3.36329,0.9301 l -84.51953,17.7707 c -4.11948,0.8661 -9.49355,1.2992 -14.86914,1.2988 z"
           style="fill:url(#linearGradient5342);filter:url(#b-5)" />
        <path
           id="path14"
           d="m -397.75084,715.67331 -163.78868,1.15534 c -6.94231,0.049 -14.10792,13.10451 -10.71655,19.16231 l 80.79533,144.31978 c 3.39136,6.05781 12.65442,10.6298 18.54535,6.9562 l 75.57536,-47.12863 c 5.89092,-3.67357 10.6705,-12.21995 10.71655,-19.16229 l 0.59631,-89.90907 c 0.046,-6.94233 -4.78135,-15.44261 -11.72367,-15.39364 z"
           style="fill:#00aad4" />
        <rect
           id="rect16"
           y="1073.5972"
           x="-678.87305"
           width="113.15113"
           transform="matrix(0.85586624,0.51719723,0.00684405,0.99997658,0,0)"
           ry="12.143711"
           height="111.41566"
           style="fill:#00ccff" />
        <rect
           id="rect18"
           y="942.09778"
           x="388.7005"
           width="112.68221"
           transform="matrix(0.86530322,0.50124878,-0.86512318,0.50155946,0,0)"
           ry="14.66605"
           height="112.81577"
           style="fill:#55ddff" />
      </g>
    </g>
  </g>
</svg>
