<svg height="256" viewBox="0 0 256 256" width="256" xmlns="http://www.w3.org/2000/svg" xmlns:xlink="http://www.w3.org/1999/xlink"><linearGradient id="a" gradientUnits="userSpaceOnUse" x1="-440.1731564" x2="-440.1731564" y1="1002.751495" y2="1062.271995"><stop offset="0" stop-color="#005497" stop-opacity=".27272728"/><stop offset="1" stop-color="#005497" stop-opacity=".06818182"/></linearGradient><filter id="b" color-interpolation-filters="sRGB" height="1.1907477" width="1.0800771" x="-.04003854" y="-.09537383"><feGaussianBlur stdDeviation="3.6669538"/></filter><g transform="matrix(.71111111 0 0 .71111111 476.26667 -644.75682)"><path d="m-669.75 906.68933h360v360h-360z" fill="#fff"/><g transform="matrix(1.3547235 0 0 1.3547235 160.26025 20.43346)"><path d="m-442.65137 1055.1932c-5.37558-.0004-10.75247-.4342-14.87109-1.3009l-84.63672-17.8104c-1.65176-.3475-2.95609-.7386-3.94531-1.154-3.71453-1.1985-6.62987-3.2201-7.13477-4.9803-.41372-.4331-.64391-.9429-.63281-1.5313l.69922-37.06c.054-2.86135 5.52976-6.35712 12.27734-7.8371l89.12695-19.54942c1.48558-.32573 2.89873-.51836 4.20899-.60182 3.99244-.574 8.30073-.65058 11.66992.11216l88.56445 20.04642c6.90343 1.56259 12.50464 5.19835 12.5586 8.15116l.69922 38.2432c.0315 1.7289-1.90581 3.6797-5.14063 5.0001-.19992.086-.41416.1725-.64258.2558-.016 0-.0327.022-.0488.022-.90767.3313-2.01326.6462-3.36329.9301l-84.51953 17.7707c-4.11948.8661-9.49355 1.2992-14.86914 1.2988z" fill="url(#a)" filter="url(#b)" transform="matrix(.84718319 0 0 1.0213689 -103.68658 -169.01715)"/><path d="m-397.75084 715.67331l-163.78868 1.15534c-6.94231.049-14.10792 13.10451-10.71655 19.16231l80.79533 144.31978c3.39136 6.05781 12.65442 10.6298 18.54535 6.9562l75.57536-47.12863c5.89092-3.67357 10.6705-12.21995 10.71655-19.16229l.59631-89.90907c.046-6.94233-4.78135-15.44261-11.72367-15.39364z" fill="#00aad4"/><rect fill="#0cf" height="111.41566" ry="12.143711" transform="matrix(.85586624 .51719723 .00684405 .99997658 0 0)" width="113.15113" x="-678.87305" y="1073.5972"/><rect fill="#5df" height="112.81577" ry="14.66605" transform="matrix(.86530322 .50124878 -.86512318 .50155946 0 0)" width="112.68221" x="388.7005" y="942.09778"/></g></g></svg>