<?xml version="1.0" encoding="UTF-8" standalone="no"?>
<!-- Created with Inkscape (http://www.inkscape.org/) -->

<svg
   xmlns:dc="http://purl.org/dc/elements/1.1/"
   xmlns:cc="http://creativecommons.org/ns#"
   xmlns:rdf="http://www.w3.org/1999/02/22-rdf-syntax-ns#"
   xmlns:svg="http://www.w3.org/2000/svg"
   xmlns="http://www.w3.org/2000/svg"
   xmlns:sodipodi="http://sodipodi.sourceforge.net/DTD/sodipodi-0.dtd"
   xmlns:inkscape="http://www.inkscape.org/namespaces/inkscape"
   width="480"
   height="230"
   viewBox="0 0 480 230"
   id="svg2"
   version="1.1"
   inkscape:version="0.91 r13725"
   sodipodi:docname="bayesian_network.svg">
  <defs
     id="defs4">
    <marker
       inkscape:isstock="true"
       style="overflow:visible"
       id="marker5391"
       refX="0"
       refY="0"
       orient="auto"
       inkscape:stockid="Arrow1Lend">
      <path
         transform="matrix(-0.8,0,0,-0.8,-10,0)"
         style="fill:#000000;fill-opacity:1;fill-rule:evenodd;stroke:#000000;stroke-width:1pt;stroke-opacity:1"
         d="M 0,0 5,-5 -12.5,0 5,5 0,0 Z"
         id="path5393"
         inkscape:connector-curvature="0" />
    </marker>
    <marker
       inkscape:stockid="Arrow1Lend"
       orient="auto"
       refY="0"
       refX="0"
       id="marker5075"
       style="overflow:visible"
       inkscape:isstock="true"
       inkscape:collect="always">
      <path
         id="path5077"
         d="M 0,0 5,-5 -12.5,0 5,5 0,0 Z"
         style="fill:#000000;fill-opacity:1;fill-rule:evenodd;stroke:#000000;stroke-width:1pt;stroke-opacity:1"
         transform="matrix(-0.8,0,0,-0.8,-10,0)"
         inkscape:connector-curvature="0" />
    </marker>
    <marker
       inkscape:stockid="Arrow1Lend"
       orient="auto"
       refY="0"
       refX="0"
       id="Arrow1Lend"
       style="overflow:visible"
       inkscape:isstock="true"
       inkscape:collect="always">
      <path
         id="path4680"
         d="M 0,0 5,-5 -12.5,0 5,5 0,0 Z"
         style="fill:#000000;fill-opacity:1;fill-rule:evenodd;stroke:#000000;stroke-width:1pt;stroke-opacity:1"
         transform="matrix(-0.8,0,0,-0.8,-10,0)"
         inkscape:connector-curvature="0" />
    </marker>
  </defs>
  <sodipodi:namedview
     id="base"
     pagecolor="#ffffff"
     bordercolor="#666666"
     borderopacity="1.0"
     inkscape:pageopacity="0.0"
     inkscape:pageshadow="2"
     inkscape:zoom="0.7"
     inkscape:cx="111.75179"
     inkscape:cy="243.66335"
     inkscape:document-units="px"
     inkscape:current-layer="layer1"
     showgrid="false"
     inkscape:window-width="1366"
     inkscape:window-height="745"
     inkscape:window-x="-8"
     inkscape:window-y="-8"
     inkscape:window-maximized="1"
     units="px" />
  <metadata
     id="metadata7">
    <rdf:RDF>
      <cc:Work
         rdf:about="">
        <dc:format>image/svg+xml</dc:format>
        <dc:type
           rdf:resource="http://purl.org/dc/dcmitype/StillImage" />
        <dc:title></dc:title>
      </cc:Work>
    </rdf:RDF>
  </metadata>
  <g
     inkscape:label="Layer 1"
     inkscape:groupmode="layer"
     id="layer1"
     transform="translate(0,-822.36216)">
    <g
       id="g5777">
      <rect
         style="opacity:1;fill:#808080;fill-opacity:1;stroke:#000000;stroke-width:1.38805318;stroke-linecap:round;stroke-linejoin:miter;stroke-miterlimit:4;stroke-dasharray:none;stroke-opacity:1"
         id="rect4331"
         width="160.26018"
         height="86.903847"
         x="319.04575"
         y="823.05615"
         ry="18.212736" />
      <path
         sodipodi:nodetypes="ssscs"
         inkscape:connector-curvature="0"
         id="path4470"
         d="m 449.26648,872.37344 c -0.81362,1.4053 -2.61563,1.88679 -4.02487,1.07544 -1.40926,-0.81135 -1.89209,-2.6083 -1.07846,-4.0136 0.81362,-1.4053 6.15631,-4.75688 6.15631,-4.75688 0,0 -0.23935,6.28974 -1.05298,7.69504 z"
         style="opacity:1;fill:#00ffff;fill-opacity:1;stroke:none;stroke-width:2;stroke-linecap:round;stroke-linejoin:miter;stroke-miterlimit:4;stroke-dasharray:none;stroke-opacity:1" />
      <path
         style="opacity:1;fill:#00ffff;fill-opacity:1;stroke:none;stroke-width:2;stroke-linecap:round;stroke-linejoin:miter;stroke-miterlimit:4;stroke-dasharray:none;stroke-opacity:1"
         d="m 447.79543,882.40525 c -0.55786,0.96354 -1.7934,1.29367 -2.75965,0.73737 -0.96624,-0.5563 -1.2973,-1.78837 -0.73944,-2.75191 0.55786,-0.96354 4.22106,-3.26154 4.22106,-3.26154 0,0 -0.16411,4.31254 -0.72197,5.27608 z"
         id="path4472"
         inkscape:connector-curvature="0"
         sodipodi:nodetypes="ssscs" />
      <path
         sodipodi:nodetypes="ssscs"
         inkscape:connector-curvature="0"
         id="path4474"
         d="m 454.61642,879.47845 c -0.61483,1.06195 -1.97655,1.4258 -3.04149,0.81269 -1.06494,-0.61312 -1.4298,-1.97104 -0.81497,-3.03299 0.61483,-1.06195 4.65218,-3.59466 4.65218,-3.59466 0,0 -0.18086,4.75301 -0.79572,5.81496 z"
         style="opacity:1;fill:#00ffff;fill-opacity:1;stroke:none;stroke-width:2;stroke-linecap:round;stroke-linejoin:miter;stroke-miterlimit:4;stroke-dasharray:none;stroke-opacity:1" />
      <path
         style="opacity:1;fill:#00ffff;fill-opacity:1;stroke:none;stroke-width:2;stroke-linecap:round;stroke-linejoin:miter;stroke-miterlimit:4;stroke-dasharray:none;stroke-opacity:1"
         d="m 455.97486,893.5466 c -0.7587,1.31045 -2.43906,1.75944 -3.75318,1.00285 -1.31413,-0.75658 -1.76437,-2.43224 -1.00567,-3.74268 0.7587,-1.31045 5.74076,-4.4358 5.74076,-4.4358 0,0 -0.22318,5.86519 -0.98191,7.17563 z"
         id="path4476"
         inkscape:connector-curvature="0"
         sodipodi:nodetypes="ssscs" />
      <path
         sodipodi:nodetypes="ssscs"
         inkscape:connector-curvature="0"
         id="path4478"
         d="m 473.94035,882.58467 c -0.50293,0.86868 -1.61683,1.16631 -2.48795,0.66478 -0.87112,-0.50154 -1.16958,-1.61232 -0.66665,-2.481 0.50294,-0.86868 3.8055,-2.94045 3.8055,-2.94045 0,0 -0.14794,3.88799 -0.6509,4.75667 z"
         style="opacity:1;fill:#00ffff;fill-opacity:1;stroke:none;stroke-width:2;stroke-linecap:round;stroke-linejoin:miter;stroke-miterlimit:4;stroke-dasharray:none;stroke-opacity:1" />
      <path
         style="opacity:1;fill:#00ffff;fill-opacity:1;stroke:none;stroke-width:2;stroke-linecap:round;stroke-linejoin:miter;stroke-miterlimit:4;stroke-dasharray:none;stroke-opacity:1"
         d="m 473.94035,882.58467 c -0.50293,0.86868 -1.61683,1.16631 -2.48795,0.66478 -0.87112,-0.50154 -1.16958,-1.61232 -0.66665,-2.481 0.50294,-0.86868 3.8055,-2.94045 3.8055,-2.94045 0,0 -0.14794,3.88799 -0.6509,4.75667 z"
         id="path4480"
         inkscape:connector-curvature="0"
         sodipodi:nodetypes="ssscs" />
      <path
         sodipodi:nodetypes="ssscs"
         inkscape:connector-curvature="0"
         id="path4405"
         d="m 378.22829,839.53921 c -0.81362,1.40531 -2.61563,1.8868 -4.02487,1.07544 -1.40926,-0.81135 -1.89209,-2.6083 -1.07847,-4.0136 0.81363,-1.4053 6.15632,-4.75688 6.15632,-4.75688 0,0 -0.23935,6.28974 -1.05298,7.69504 z"
         style="opacity:1;fill:#00ffff;fill-opacity:1;stroke:none;stroke-width:2;stroke-linecap:round;stroke-linejoin:miter;stroke-miterlimit:4;stroke-dasharray:none;stroke-opacity:1" />
      <path
         style="opacity:1;fill:#00ffff;fill-opacity:1;stroke:none;stroke-width:2;stroke-linecap:round;stroke-linejoin:miter;stroke-miterlimit:4;stroke-dasharray:none;stroke-opacity:1"
         d="m 376.75723,849.57102 c -0.55785,0.96354 -1.79339,1.29367 -2.75964,0.73737 -0.96625,-0.5563 -1.2973,-1.78837 -0.73944,-2.75191 0.55786,-0.96354 4.22105,-3.26154 4.22105,-3.26154 0,0 -0.1641,4.31254 -0.72197,5.27608 z"
         id="path4408"
         inkscape:connector-curvature="0"
         sodipodi:nodetypes="ssscs" />
      <path
         sodipodi:nodetypes="ssscs"
         inkscape:connector-curvature="0"
         id="path4410"
         d="m 383.57823,846.64422 c -0.61483,1.06195 -1.97656,1.4258 -3.04149,0.81269 -1.06494,-0.61312 -1.42981,-1.97104 -0.81497,-3.03299 0.61483,-1.06195 4.65218,-3.59466 4.65218,-3.59466 0,0 -0.18087,4.75301 -0.79572,5.81496 z"
         style="opacity:1;fill:#00ffff;fill-opacity:1;stroke:none;stroke-width:2;stroke-linecap:round;stroke-linejoin:miter;stroke-miterlimit:4;stroke-dasharray:none;stroke-opacity:1" />
      <path
         style="opacity:1;fill:#00ffff;fill-opacity:1;stroke:none;stroke-width:2;stroke-linecap:round;stroke-linejoin:miter;stroke-miterlimit:4;stroke-dasharray:none;stroke-opacity:1"
         d="m 384.93667,860.71237 c -0.7587,1.31045 -2.43907,1.75944 -3.75319,1.00285 -1.31413,-0.75658 -1.76437,-2.43224 -1.00567,-3.74268 0.7587,-1.31045 5.74076,-4.43579 5.74076,-4.43579 0,0 -0.22317,5.86518 -0.9819,7.17562 z"
         id="path4412"
         inkscape:connector-curvature="0"
         sodipodi:nodetypes="ssscs" />
      <path
         sodipodi:nodetypes="ssscs"
         inkscape:connector-curvature="0"
         id="path4414"
         d="m 402.90216,849.75044 c -0.50294,0.86868 -1.61684,1.16631 -2.48796,0.66478 -0.87111,-0.50154 -1.16957,-1.61231 -0.66664,-2.481 0.50294,-0.86868 3.80549,-2.94044 3.80549,-2.94044 0,0 -0.14793,3.88798 -0.65089,4.75666 z"
         style="opacity:1;fill:#00ffff;fill-opacity:1;stroke:none;stroke-width:2;stroke-linecap:round;stroke-linejoin:miter;stroke-miterlimit:4;stroke-dasharray:none;stroke-opacity:1" />
      <path
         style="opacity:1;fill:#00ffff;fill-opacity:1;stroke:none;stroke-width:2;stroke-linecap:round;stroke-linejoin:miter;stroke-miterlimit:4;stroke-dasharray:none;stroke-opacity:1"
         d="m 402.90216,849.75044 c -0.50294,0.86868 -1.61684,1.16631 -2.48796,0.66478 -0.87111,-0.50154 -1.16957,-1.61231 -0.66664,-2.481 0.50294,-0.86868 3.80549,-2.94044 3.80549,-2.94044 0,0 -0.14793,3.88798 -0.65089,4.75666 z"
         id="path4416"
         inkscape:connector-curvature="0"
         sodipodi:nodetypes="ssscs" />
      <path
         id="path4391"
         d="m 383.19525,823.05708 a 27.030959,26.955273 0 0 0 -1.16873,7.76705 27.030959,26.955273 0 0 0 27.03007,26.95438 27.030959,26.955273 0 0 0 4.45589,-0.37525 27.030959,26.955273 0 0 0 25.92306,19.37197 27.030959,26.955273 0 0 0 20.04557,-8.91663 27.030959,26.955273 0 0 0 19.08392,7.89016 27.030959,26.955273 0 0 0 0.74065,-0.0357 l 0,-34.44348 c 0,-10.08985 -8.14542,-18.21247 -18.26361,-18.21247 l -77.84682,0 z"
         style="opacity:1;fill:#4d4d4d;fill-opacity:1;stroke:none;stroke-width:2;stroke-linecap:round;stroke-linejoin:miter;stroke-miterlimit:4;stroke-dasharray:none;stroke-opacity:1"
         inkscape:connector-curvature="0" />
      <path
         style="opacity:1;fill:#00ffff;fill-opacity:1;stroke:none;stroke-width:2;stroke-linecap:round;stroke-linejoin:miter;stroke-miterlimit:4;stroke-dasharray:none;stroke-opacity:1"
         d="m 392.60914,864.40831 c -0.81363,1.4053 -2.61563,1.88679 -4.02487,1.07544 -1.40926,-0.81135 -1.89209,-2.6083 -1.07847,-4.0136 0.81363,-1.40531 6.15632,-4.75688 6.15632,-4.75688 0,0 -0.23936,6.28974 -1.05298,7.69504 z"
         id="path4428"
         inkscape:connector-curvature="0"
         sodipodi:nodetypes="ssscs" />
      <path
         sodipodi:nodetypes="ssscs"
         inkscape:connector-curvature="0"
         id="path4430"
         d="m 391.13808,874.44012 c -0.55786,0.96354 -1.79339,1.29367 -2.75964,0.73737 -0.96625,-0.5563 -1.2973,-1.78837 -0.73944,-2.75192 0.55785,-0.96354 4.22105,-3.26154 4.22105,-3.26154 0,0 -0.1641,4.31255 -0.72197,5.27609 z"
         style="opacity:1;fill:#00ffff;fill-opacity:1;stroke:none;stroke-width:2;stroke-linecap:round;stroke-linejoin:miter;stroke-miterlimit:4;stroke-dasharray:none;stroke-opacity:1" />
      <path
         style="opacity:1;fill:#00ffff;fill-opacity:1;stroke:none;stroke-width:2;stroke-linecap:round;stroke-linejoin:miter;stroke-miterlimit:4;stroke-dasharray:none;stroke-opacity:1"
         d="m 397.95908,871.51332 c -0.61483,1.06195 -1.97656,1.4258 -3.0415,0.81268 -1.06494,-0.61311 -1.4298,-1.97103 -0.81497,-3.03298 0.61483,-1.06196 4.65218,-3.59466 4.65218,-3.59466 0,0 -0.18086,4.75301 -0.79571,5.81496 z"
         id="path4432"
         inkscape:connector-curvature="0"
         sodipodi:nodetypes="ssscs" />
      <path
         sodipodi:nodetypes="ssscs"
         inkscape:connector-curvature="0"
         id="path4434"
         d="m 399.31751,885.58147 c -0.7587,1.31044 -2.43906,1.75943 -3.75318,1.00285 -1.31413,-0.75659 -1.76437,-2.43224 -1.00567,-3.74269 0.7587,-1.31044 5.74076,-4.43579 5.74076,-4.43579 0,0 -0.22318,5.86519 -0.98191,7.17563 z"
         style="opacity:1;fill:#00ffff;fill-opacity:1;stroke:none;stroke-width:2;stroke-linecap:round;stroke-linejoin:miter;stroke-miterlimit:4;stroke-dasharray:none;stroke-opacity:1" />
      <path
         style="opacity:1;fill:#00ffff;fill-opacity:1;stroke:none;stroke-width:2;stroke-linecap:round;stroke-linejoin:miter;stroke-miterlimit:4;stroke-dasharray:none;stroke-opacity:1"
         d="m 417.283,874.61953 c -0.50293,0.86869 -1.61683,1.16632 -2.48795,0.66478 -0.87112,-0.50153 -1.16958,-1.61231 -0.66665,-2.48099 0.50295,-0.86868 3.8055,-2.94045 3.8055,-2.94045 0,0 -0.14794,3.88798 -0.6509,4.75666 z"
         id="path4436"
         inkscape:connector-curvature="0"
         sodipodi:nodetypes="ssscs" />
      <path
         sodipodi:nodetypes="ssscs"
         inkscape:connector-curvature="0"
         id="path4438"
         d="m 417.283,874.61953 c -0.50293,0.86869 -1.61683,1.16632 -2.48795,0.66478 -0.87112,-0.50153 -1.16958,-1.61231 -0.66665,-2.48099 0.50295,-0.86868 3.8055,-2.94045 3.8055,-2.94045 0,0 -0.14794,3.88798 -0.6509,4.75666 z"
         style="opacity:1;fill:#00ffff;fill-opacity:1;stroke:none;stroke-width:2;stroke-linecap:round;stroke-linejoin:miter;stroke-miterlimit:4;stroke-dasharray:none;stroke-opacity:1" />
      <path
         sodipodi:nodetypes="ssscs"
         inkscape:connector-curvature="0"
         id="path4442"
         d="m 410.37705,882.71132 c -0.81363,1.4053 -2.61563,1.88679 -4.02487,1.07544 -1.40926,-0.81135 -1.89209,-2.60831 -1.07847,-4.01361 0.81363,-1.4053 6.15632,-4.75688 6.15632,-4.75688 0,0 -0.23936,6.28974 -1.05298,7.69505 z"
         style="opacity:1;fill:#00ffff;fill-opacity:1;stroke:none;stroke-width:2;stroke-linecap:round;stroke-linejoin:miter;stroke-miterlimit:4;stroke-dasharray:none;stroke-opacity:1" />
      <path
         style="opacity:1;fill:#00ffff;fill-opacity:1;stroke:none;stroke-width:2;stroke-linecap:round;stroke-linejoin:miter;stroke-miterlimit:4;stroke-dasharray:none;stroke-opacity:1"
         d="m 408.90599,892.74312 c -0.55786,0.96354 -1.79339,1.29368 -2.75964,0.73738 -0.96625,-0.5563 -1.2973,-1.78838 -0.73944,-2.75192 0.55785,-0.96354 4.22105,-3.26154 4.22105,-3.26154 0,0 -0.1641,4.31254 -0.72197,5.27608 z"
         id="path4444"
         inkscape:connector-curvature="0"
         sodipodi:nodetypes="ssscs" />
      <path
         sodipodi:nodetypes="ssscs"
         inkscape:connector-curvature="0"
         id="path4446"
         d="m 415.72699,889.81632 c -0.61483,1.06196 -1.97656,1.42581 -3.0415,0.81269 -1.06494,-0.61312 -1.4298,-1.97103 -0.81497,-3.03299 0.61483,-1.06195 4.65218,-3.59466 4.65218,-3.59466 0,0 -0.18086,4.75301 -0.79571,5.81496 z"
         style="opacity:1;fill:#00ffff;fill-opacity:1;stroke:none;stroke-width:2;stroke-linecap:round;stroke-linejoin:miter;stroke-miterlimit:4;stroke-dasharray:none;stroke-opacity:1" />
      <path
         style="opacity:1;fill:#00ffff;fill-opacity:1;stroke:none;stroke-width:2;stroke-linecap:round;stroke-linejoin:miter;stroke-miterlimit:4;stroke-dasharray:none;stroke-opacity:1"
         d="m 417.08542,903.88448 c -0.7587,1.31044 -2.43906,1.75943 -3.75318,1.00285 -1.31413,-0.75659 -1.76437,-2.43225 -1.00567,-3.74269 0.7587,-1.31045 5.74076,-4.43579 5.74076,-4.43579 0,0 -0.22318,5.86518 -0.98191,7.17563 z"
         id="path4448"
         inkscape:connector-curvature="0"
         sodipodi:nodetypes="ssscs" />
      <path
         sodipodi:nodetypes="ssscs"
         inkscape:connector-curvature="0"
         id="path4450"
         d="m 435.05091,892.92254 c -0.50293,0.86868 -1.61683,1.16631 -2.48795,0.66478 -0.87112,-0.50153 -1.16958,-1.61231 -0.66665,-2.48099 0.50295,-0.86869 3.8055,-2.94045 3.8055,-2.94045 0,0 -0.14794,3.88798 -0.6509,4.75666 z"
         style="opacity:1;fill:#00ffff;fill-opacity:1;stroke:none;stroke-width:2;stroke-linecap:round;stroke-linejoin:miter;stroke-miterlimit:4;stroke-dasharray:none;stroke-opacity:1" />
      <path
         style="opacity:1;fill:#00ffff;fill-opacity:1;stroke:none;stroke-width:2;stroke-linecap:round;stroke-linejoin:miter;stroke-miterlimit:4;stroke-dasharray:none;stroke-opacity:1"
         d="m 435.05091,892.92254 c -0.50293,0.86868 -1.61683,1.16631 -2.48795,0.66478 -0.87112,-0.50153 -1.16958,-1.61231 -0.66665,-2.48099 0.50295,-0.86869 3.8055,-2.94045 3.8055,-2.94045 0,0 -0.14794,3.88798 -0.6509,4.75666 z"
         id="path4452"
         inkscape:connector-curvature="0"
         sodipodi:nodetypes="ssscs" />
      <path
         style="opacity:1;fill:#00ffff;fill-opacity:1;stroke:none;stroke-width:2;stroke-linecap:round;stroke-linejoin:miter;stroke-miterlimit:4;stroke-dasharray:none;stroke-opacity:1"
         d="m 423.92847,879.86919 c -0.81363,1.4053 -2.61563,1.88679 -4.02487,1.07544 -1.40926,-0.81135 -1.89209,-2.60831 -1.07847,-4.01361 0.81363,-1.4053 6.15632,-4.75688 6.15632,-4.75688 0,0 -0.23936,6.28974 -1.05298,7.69505 z"
         id="path4456"
         inkscape:connector-curvature="0"
         sodipodi:nodetypes="ssscs" />
      <path
         sodipodi:nodetypes="ssscs"
         inkscape:connector-curvature="0"
         id="path4458"
         d="m 422.45741,889.90099 c -0.55786,0.96354 -1.79339,1.29368 -2.75964,0.73738 -0.96625,-0.5563 -1.2973,-1.78838 -0.73944,-2.75192 0.55785,-0.96354 4.22105,-3.26154 4.22105,-3.26154 0,0 -0.1641,4.31254 -0.72197,5.27608 z"
         style="opacity:1;fill:#00ffff;fill-opacity:1;stroke:none;stroke-width:2;stroke-linecap:round;stroke-linejoin:miter;stroke-miterlimit:4;stroke-dasharray:none;stroke-opacity:1" />
      <path
         style="opacity:1;fill:#00ffff;fill-opacity:1;stroke:none;stroke-width:2;stroke-linecap:round;stroke-linejoin:miter;stroke-miterlimit:4;stroke-dasharray:none;stroke-opacity:1"
         d="m 429.27841,886.97419 c -0.61483,1.06196 -1.97656,1.42581 -3.0415,0.81269 -1.06493,-0.61312 -1.4298,-1.97103 -0.81497,-3.03299 0.61483,-1.06195 4.65218,-3.59466 4.65218,-3.59466 0,0 -0.18086,4.75301 -0.79571,5.81496 z"
         id="path4460"
         inkscape:connector-curvature="0"
         sodipodi:nodetypes="ssscs" />
      <path
         sodipodi:nodetypes="ssscs"
         inkscape:connector-curvature="0"
         id="path4462"
         d="m 430.63684,901.04235 c -0.7587,1.31044 -2.43906,1.75943 -3.75318,1.00285 -1.31413,-0.75659 -1.76437,-2.43225 -1.00567,-3.74269 0.7587,-1.31044 5.74076,-4.43579 5.74076,-4.43579 0,0 -0.22318,5.86518 -0.98191,7.17563 z"
         style="opacity:1;fill:#00ffff;fill-opacity:1;stroke:none;stroke-width:2;stroke-linecap:round;stroke-linejoin:miter;stroke-miterlimit:4;stroke-dasharray:none;stroke-opacity:1" />
      <path
         style="opacity:1;fill:#00ffff;fill-opacity:1;stroke:none;stroke-width:2;stroke-linecap:round;stroke-linejoin:miter;stroke-miterlimit:4;stroke-dasharray:none;stroke-opacity:1"
         d="m 448.60233,890.08041 c -0.50293,0.86868 -1.61683,1.16632 -2.48795,0.66478 -0.87112,-0.50153 -1.16958,-1.61231 -0.66664,-2.48099 0.50294,-0.86869 3.80549,-2.94045 3.80549,-2.94045 0,0 -0.14793,3.88798 -0.6509,4.75666 z"
         id="path4464"
         inkscape:connector-curvature="0"
         sodipodi:nodetypes="ssscs" />
      <path
         sodipodi:nodetypes="ssscs"
         inkscape:connector-curvature="0"
         id="path4466"
         d="m 448.60233,890.08041 c -0.50293,0.86868 -1.61683,1.16632 -2.48795,0.66478 -0.87112,-0.50153 -1.16958,-1.61231 -0.66664,-2.48099 0.50294,-0.86869 3.80549,-2.94045 3.80549,-2.94045 0,0 -0.14793,3.88798 -0.6509,4.75666 z"
         style="opacity:1;fill:#00ffff;fill-opacity:1;stroke:none;stroke-width:2;stroke-linecap:round;stroke-linejoin:miter;stroke-miterlimit:4;stroke-dasharray:none;stroke-opacity:1" />
      <rect
         style="opacity:1;fill:#00ccff;fill-opacity:1;stroke:#000000;stroke-width:1.9121151;stroke-linecap:round;stroke-linejoin:miter;stroke-miterlimit:4;stroke-dasharray:none;stroke-opacity:1"
         id="rect4333"
         width="305.96002"
         height="86.380524"
         x="113.66848"
         y="965.02557"
         ry="18.10306" />
      <path
         inkscape:connector-curvature="0"
         id="path4370"
         d="m 118.77951,1001.0521 c 0,0 -3.178,5.2584 -5.11094,10.0106 l 0,22.2409 c 0,10.0291 8.09684,18.1033 18.1541,18.1033 l 269.65155,0 c 10.05726,0 18.15411,-8.0742 18.15411,-18.1033 l 0,-3.1668 c -0.43795,-1.6775 -0.89918,-3.7771 -0.9756,-5.589 0.0131,-0.2181 0.0183,-0.453 0.0418,-0.6472 0.12229,-1.0125 0.52123,-2.3698 0.93379,-3.6036 l 0,-2.8888 c -1.52518,2.1843 -3.04758,4.5989 -3.76502,6.4924 -0.39102,1.0319 -0.71148,2.1643 -0.98555,3.2978 l -0.81632,-4.5824 -1.20655,8.9027 c -0.57242,-3.0292 -1.20135,-7.4171 -0.85415,-10.9557 0.10051,-1.0241 0.36666,-2.2535 0.69088,-3.5301 1.50735,-3.2279 3.42853,-6.2263 3.42853,-6.2263 0,0 -1.20555,1.4921 -2.63212,3.397 1.27942,-4.1111 2.88896,-8.0172 2.88896,-8.0172 0,0 -3.51145,5.8176 -5.39565,10.7472 -1.22277,1.7299 -2.49455,3.8123 -2.84118,5.4262 -0.0633,0.2949 -0.11053,0.6117 -0.14336,0.9431 -1.6219,4.5766 -2.09853,10.7532 -2.09853,10.7532 0,0 -0.30446,-1.1813 -0.65704,-2.9663 -0.0312,-0.9478 -0.0192,-1.8499 0.0677,-2.5691 0.27915,-2.3111 2.05871,-6.6751 2.05871,-6.6751 0,0 -1.96311,2.0987 -2.94869,3.816 -0.21812,-2.0648 -0.32851,-4.2196 -0.14137,-6.127 0.48903,-4.9842 4.37626,-14.3746 4.37626,-14.3746 0,0 -5.48674,9.0358 -6.43497,14.1184 -0.68266,3.6593 -0.77998,8.4116 -0.58536,13.3323 l -0.95966,-5.3746 -1.2862,9.4984 c 0,0 -2.22415,-6.6463 -1.80188,-10.0106 0.5151,-4.1039 5.14878,-11.2952 5.14878,-11.2952 0,0 -6.2743,7.5585 -7.982,12.0655 -0.4087,1.0786 -0.744,2.2659 -1.02536,3.4507 -0.81419,-3.2131 -1.81375,-7.8563 -1.86759,-11.3984 1.30668,-4.6754 3.40863,-9.7664 3.40863,-9.7664 0,0 -0.48524,0.8099 -1.16275,2.0112 0.49058,-0.9801 0.90591,-1.7551 0.90591,-1.7551 0,0 -4.68942,5.3862 -5.40761,8.73 -0.18297,0.8519 -0.22749,1.8736 -0.18516,2.9682 -0.25591,0.7688 -0.46367,1.5032 -0.58735,2.1662 -0.50191,2.6902 -0.68006,5.9798 -0.66898,9.4824 l -0.87406,0.272 c 0,0 -0.86519,-5.8344 -0.51567,-8.728 0.27915,-2.3111 2.05871,-6.675 2.05871,-6.675 0,0 -2.66743,2.845 -3.3469,4.6201 -0.31086,0.8121 -0.53229,1.85 -0.71279,2.9484 -0.74346,-3.4279 -1.38439,-7.4115 -1.08908,-10.1357 0.29798,-2.7489 3.09006,-7.7015 3.09006,-7.7015 0,0 -2.70166,3.1101 -4.31654,6.0714 -0.65726,0.8509 -1.35545,1.7709 -2.16224,2.9087 0.17926,-0.4669 0.30064,-0.7644 0.30064,-0.7644 0,0 -2.66742,2.8451 -3.3469,4.6202 -0.21525,0.5623 -0.38738,1.238 -0.53757,1.9556 -0.18649,0.3888 -0.35691,0.7698 -0.49179,1.1258 -0.48483,1.2795 -0.86653,2.7056 -1.17469,4.1059 l -1.14284,-6.417 -0.97561,7.2111 c -0.13564,-1.4199 -0.17501,-2.7552 -0.0537,-3.8736 0.29798,-2.7489 3.08807,-7.7015 3.08807,-7.7015 0,0 -2.08686,2.4164 -3.69136,5.0152 0.0112,-0.5733 0.0347,-1.1375 0.0876,-1.6777 0.22492,-2.2924 1.17056,-5.5004 2.12442,-8.315 0.83423,-1.4659 1.47933,-2.4679 1.47933,-2.4679 0,0 -0.44556,0.5453 -1.10701,1.3858 0.97949,-2.7804 1.87952,-4.9795 1.87952,-4.9795 0,0 -2.45762,4.0742 -4.37029,8.2893 -1.7159,2.3871 -3.56755,5.2198 -4.38223,7.3699 -1.6434,4.3373 -2.16081,10.2275 -2.21799,10.9259 -0.0119,0.069 -0.0244,0.1351 -0.0359,0.2045 -0.0354,-0.1373 -1.66945,-6.5112 -1.70431,-12.0894 0.64553,-1.105 1.12692,-1.8643 1.12692,-1.8643 0,0 -0.45394,0.5539 -1.12095,1.4017 0.007,-0.6557 0.0313,-1.3016 0.0915,-1.9159 0.48902,-4.9842 4.37625,-14.3766 4.37625,-14.3766 0,0 -5.48873,9.0378 -6.43695,14.1205 -0.31067,1.6652 -0.4989,3.5616 -0.59731,5.591 -1.69097,2.3615 -3.49183,5.1314 -4.29264,7.2449 -0.50238,1.3259 -0.89124,2.8084 -1.20456,4.2568 -0.92135,-3.7544 -1.97676,-9.0115 -1.63264,-12.3972 0.40415,-1.4258 0.86886,-2.8813 1.33199,-4.2151 0.84093,-1.9138 1.76206,-3.5618 1.76206,-3.5618 0,0 -0.33054,0.3851 -0.81234,0.9828 0.58954,-1.5632 1.06918,-2.7797 1.06918,-2.7797 0,0 -1.37726,2.2695 -2.87106,5.1721 -1.20757,1.7161 -2.44938,3.7623 -2.7914,5.3548 -0.09,0.419 -0.13926,0.8883 -0.16923,1.3778 -0.26355,0.7863 -0.47703,1.5391 -0.60328,2.2158 -0.57487,3.0814 -0.73461,6.9412 -0.65704,11.0192 l -0.88799,0.276 c 0,0 -0.8652,-5.8344 -0.51567,-8.728 0.27914,-2.3111 2.0607,-6.6751 2.0607,-6.6751 0,0 -2.66743,2.8451 -3.3469,4.6202 -0.23377,0.6107 -0.41381,1.3585 -0.57143,2.1482 -0.56271,-2.9494 -0.96073,-6.0585 -0.71677,-8.3091 0.29798,-2.7489 3.09007,-7.7015 3.09007,-7.7015 0,0 -4.68743,5.3841 -5.40562,8.728 -0.37064,1.7257 -0.1841,4.1419 0.18119,6.4626 l -1.08311,7.9875 -0.39025,0.1211 c -0.45834,-1.4848 -1.46667,-5.0062 -1.58286,-7.7611 0.0131,-0.2182 0.0183,-0.453 0.0418,-0.6473 0.22309,-1.847 1.36805,-4.9055 1.83373,-6.0993 1.48757,-3.1283 3.31504,-5.9682 3.31504,-5.9682 0,0 -6.27229,7.5605 -7.98,12.0675 -0.39102,1.032 -0.71148,2.1643 -0.98555,3.2978 l -0.81632,-4.5824 -1.20655,8.9008 c -0.57231,-3.0292 -1.20127,-7.4159 -0.85415,-10.9537 0.10072,-1.0262 0.36768,-2.2587 0.69287,-3.5381 1.50686,-3.2251 3.42654,-6.2184 3.42654,-6.2184 0,0 -1.20495,1.4933 -2.63212,3.3991 1.27951,-4.1119 2.89096,-8.0192 2.89096,-8.0192 0,0 -4.46061,7.3545 -6.0288,12.5261 -0.15867,0.2517 -0.3074,0.4947 -0.45794,0.7446 -0.41228,-2.4864 -0.66964,-4.9742 -0.46589,-6.8538 0.29798,-2.7489 3.09006,-7.7015 3.09006,-7.7015 0,0 -4.68743,5.3861 -5.40562,8.73 -0.56135,2.6136 0.14706,6.784 0.83423,9.8279 -0.49151,1.4202 -0.87674,2.9618 -1.17072,4.4435 l -1.98106,0.6174 c 0,0 -0.86518,-5.8344 -0.51567,-8.728 0.27916,-2.3111 2.0607,-6.675 2.0607,-6.675 0,0 -0.37851,0.4198 -0.84021,0.9589 1.30876,-4.4219 3.15776,-8.9166 3.15776,-8.9166 0,0 -5.48874,9.0358 -6.43697,14.1185 -0.52346,2.8059 -0.69649,6.2645 -0.66698,9.9371 l -1.9074,-10.7075 -1.2862,9.4984 c 0,0 -2.22414,-6.6462 -1.80187,-10.0106 0.5151,-4.1039 5.14679,-11.2972 5.14679,-11.2972 0,0 -6.27231,7.5606 -7.98001,12.0676 -0.40912,1.0797 -0.74384,2.2686 -1.02537,3.4546 -0.81433,-3.213 -1.81357,-7.8586 -1.86758,-11.4024 1.30667,-4.6754 3.40863,-9.7664 3.40863,-9.7664 0,0 -0.48695,0.8136 -1.16674,2.0192 0.49272,-0.9849 0.9099,-1.763 0.9099,-1.763 0,0 -4.68942,5.3841 -5.40761,8.728 -0.18307,0.8524 -0.22762,1.8748 -0.18516,2.9702 -0.25591,0.7687 -0.46367,1.5011 -0.58735,2.1641 -0.5019,2.6903 -0.68205,5.9819 -0.67098,9.4845 l -0.87207,0.272 c 0,0 -0.86518,-5.8344 -0.51567,-8.728 0.27916,-2.3111 2.05872,-6.6751 2.05872,-6.6751 0,0 -2.66744,2.845 -3.34691,4.6201 -0.23375,0.6107 -0.41182,1.3586 -0.56943,2.1483 -0.56272,-2.9494 -0.96073,-6.0585 -0.71677,-8.3091 0.29798,-2.7489 3.09006,-7.7015 3.09006,-7.7015 0,0 -4.68941,5.3841 -5.4076,8.728 -0.37065,1.7257 -0.18213,4.1418 0.18317,6.4626 l -1.08311,7.9874 -0.38825,0.1212 c -0.45785,-1.4829 -1.46858,-5.0044 -1.58485,-7.7611 0.0131,-0.2185 0.0183,-0.4548 0.0418,-0.6493 0.21906,-1.8135 1.33361,-4.8146 1.81581,-6.0556 1.49105,-3.1446 3.33296,-6.0099 3.33296,-6.0099 0,0 -6.27229,7.5585 -7.97999,12.0655 -0.3912,1.0325 -0.71141,2.1658 -0.98556,3.2998 l -0.81632,-4.5824 -1.20655,8.9027 c -0.55706,-2.9479 -1.16175,-7.1774 -0.87406,-10.6658 0.78125,-1.7165 1.56494,-3.1151 1.56494,-3.1151 0,0 -0.63266,0.767 -1.39969,1.7531 0.12618,-0.7605 0.32803,-1.6015 0.54554,-2.4579 1.50735,-3.228 3.42853,-6.2264 3.42853,-6.2264 0,0 -1.20516,1.4886 -2.63013,3.3911 1.27912,-4.1089 2.88698,-8.0112 2.88698,-8.0112 0,0 -4.4619,7.3583 -6.02881,12.5301 -0.92604,1.4693 -1.74188,2.9253 -2.20803,4.1555 -0.39399,1.0399 -0.7162,2.1815 -0.99153,3.3237 -0.37208,0.4075 -1.42336,1.5874 -2.27972,2.855 -0.47912,-2.8827 -0.88555,-6.5175 -0.59132,-9.5162 0.48902,-4.9842 4.37624,-14.3766 4.37624,-14.3766 0,0 -5.48674,9.0378 -6.43497,14.1205 -0.064,0.343 -0.10315,0.7306 -0.15728,1.092 -1.4924,1.8551 -5.8862,7.4745 -7.30904,11.2297 -0.83983,2.2165 -1.38495,4.8778 -1.73019,7.0542 -0.31999,-1.0785 -1.46708,-5.1044 -2.19211,-9.5122 0.0159,-0.2964 0.0337,-0.5935 0.0617,-0.8796 0.48902,-4.9842 4.37625,-14.3746 4.37625,-14.3746 0,0 -3.01515,4.9697 -4.96161,9.6115 0.008,-0.3992 0.0308,-0.7804 0.0697,-1.1396 0.29799,-2.7489 3.09006,-7.7015 3.09006,-7.7015 0,0 -4.68941,5.3841 -5.40761,8.728 -0.42923,1.9985 -0.10448,4.9101 0.37431,7.5387 -0.20327,2.0287 -0.279,4.2629 -0.27077,6.5976 l -2.41909,0.7525 c 0,0 -0.86518,-5.8344 -0.51568,-8.728 0.27916,-2.3111 2.05871,-6.6751 2.05871,-6.6751 0,0 -2.15663,2.3115 -3.0801,4.0682 0.31859,-2.756 3.0801,-7.6618 3.0801,-7.6618 0,0 -4.68742,5.3841 -5.40561,8.728 -0.54841,2.5534 0.11873,6.5889 0.79044,9.6135 -0.0192,1.2438 -0.0179,2.1959 -0.0179,2.1959 l -1.98903,-11.1641 c 0.24803,-0.6578 0.44399,-1.1575 0.44399,-1.1575 0,0 -2.54004,2.7168 -3.28716,4.497 -0.28365,-1.5325 -0.46207,-3.0817 -0.31658,-4.2409 0.5151,-4.1039 5.14878,-11.2952 5.14878,-11.2952 0,0 -6.27231,7.5586 -7.98001,12.0655 -1.74579,4.6075 -2.24188,11.184 -2.24188,11.184 0,0 -0.62044,-2.4402 -1.11697,-5.6049 -0.0404,-0.6247 -0.0519,-1.2204 0.0119,-1.7293 0.5151,-4.1039 5.14877,-11.2952 5.14877,-11.2952 0,0 -3.24703,3.9268 -5.70625,7.8068 -0.0599,-1.2731 -0.0723,-2.5362 0.0418,-3.6989 0.48902,-4.9842 4.37626,-14.3766 4.37626,-14.3766 0,0 -5.48675,9.0378 -6.43497,14.1205 -0.50077,2.6842 -0.68111,5.9649 -0.67097,9.4586 -0.17465,0.5554 -0.33276,1.1169 -0.47785,1.6916 -0.76639,-2.9529 -1.7699,-7.3677 -1.9731,-10.9874 1.30864,-4.6465 3.37875,-9.6632 3.37875,-9.6632 0,0 -1.47315,2.4361 -3.02435,5.4799 0.80382,-2.7501 2.76752,-6.2482 2.76752,-6.2482 0,0 -4.68744,5.3841 -5.40562,8.728 -0.23148,1.0778 -0.2455,2.4279 -0.13539,3.8537 -0.2778,0.8188 -0.50613,1.605 -0.63712,2.3071 -0.4532,2.4292 -0.6545,5.3378 -0.68093,8.458 l -0.8641,0.27 c 0,0 -0.86518,-5.8344 -0.51568,-8.728 0.27916,-2.3111 2.06071,-6.6751 2.06071,-6.6751 0,0 -2.66743,2.8471 -3.3469,4.6222 -1.47683,3.8581 -1.28819,12.3216 -1.28819,12.3216 l -2.05871,-11.5533 -1.28819,9.4984 c 0,0 -2.22415,-6.6462 -1.80187,-10.0106 0.5151,-4.1039 5.14877,-11.2952 5.14877,-11.2952 0,0 -6.2723,7.5586 -7.98,12.0655 -0.40913,1.0798 -0.74384,2.2686 -1.02537,3.4547 -0.8144,-3.2133 -1.81372,-7.8585 -1.86758,-11.4024 1.30668,-4.6754 3.40863,-9.7664 3.40863,-9.7664 0,0 -0.47863,0.7956 -1.14683,1.9795 0.48279,-0.9628 0.88799,-1.7234 0.88799,-1.7234 0,0 -4.68743,5.3862 -5.40561,8.73 -0.18319,0.8529 -0.22975,1.8761 -0.18716,2.9722 -0.25527,0.7673 -0.46188,1.5003 -0.58536,2.1622 -0.5019,2.6903 -0.68204,5.9798 -0.67097,9.4825 l -0.87406,0.272 c 0,0 -0.86319,-5.8345 -0.51368,-8.7281 0.27915,-2.3111 2.05871,-6.675 2.05871,-6.675 0,0 -2.66743,2.845 -3.3469,4.6201 -0.23339,0.6098 -0.41394,1.3561 -0.57142,2.1443 -0.56228,-2.9481 -0.95862,-6.0556 -0.71478,-8.3051 0.29799,-2.7489 3.08807,-7.7015 3.08807,-7.7015 0,0 -4.68742,5.3841 -5.40561,8.728 -0.37064,1.7257 -0.1841,4.1419 0.18118,6.4626 l -1.08112,7.9854 -0.39024,0.1231 c -0.45866,-1.4858 -1.46788,-5.0115 -1.58286,-7.767 0.0131,-0.2159 0.0186,-0.4489 0.0418,-0.6413 0.21905,-1.8136 1.33361,-4.8166 1.81581,-6.0576 1.49104,-3.1446 3.33296,-6.0099 3.33296,-6.0099 0,0 -6.27429,7.5605 -7.98199,12.0675 -0.39123,1.0325 -0.7094,2.1657 -0.98356,3.2998 l -0.81831,-4.5844 -1.20656,8.9067 c -0.57259,-3.0293 -1.19949,-7.4196 -0.85215,-10.9597 0.10048,-1.024 0.36666,-2.2535 0.69088,-3.5301 1.50734,-3.2279 3.42853,-6.2263 3.42853,-6.2263 0,0 -1.20694,1.4932 -2.63411,3.3991 1.27951,-4.1119 2.89095,-8.0193 2.89095,-8.0193 0,0 -4.46424,7.3603 -6.03079,12.5322 -0.92543,1.4684 -1.74213,2.9239 -2.20804,4.1535 -1.74579,4.6075 -2.23989,11.184 -2.23989,11.184 0,0 -2.20854,-8.5302 -1.62069,-14.5215 0.48903,-4.9842 4.37625,-14.3746 4.37625,-14.3746 0,0 -5.48674,9.0358 -6.43497,14.1185 -0.61057,3.2727 -0.75918,7.4167 -0.64509,11.7756 -0.65467,-3.2038 -1.16918,-6.7247 -0.89994,-9.2085 0.29799,-2.7489 3.08807,-7.7015 3.08807,-7.7015 0,0 -4.68742,5.3842 -5.40561,8.728 -0.96076,4.4733 1.80187,13.6063 1.80187,13.6063 l -4.11942,1.2845 c 0,0 -0.86319,-5.8344 -0.51368,-8.728 0.27915,-2.3111 2.05871,-6.675 2.05871,-6.675 0,0 -2.66743,2.845 -3.3469,4.6201 -1.47683,3.8582 -1.2862,12.3217 -1.2862,12.3217 l -2.0607,-11.5513 -1.2862,9.4983 c 0,0 -2.22415,-6.6482 -1.80187,-10.0126 0.5151,-4.1038 5.14877,-11.2952 5.14877,-11.2952 0,0 -6.27429,7.5586 -7.98199,12.0656 -0.52252,1.379 -0.91963,2.9268 -1.23841,4.4295 -0.738,-3.4148 -1.37078,-7.3673 -1.07714,-10.0761 0.29798,-2.7489 3.08807,-7.7016 3.08807,-7.7016 0,0 -1.85965,2.1396 -3.41659,4.5586 1.30885,-4.4238 3.15975,-8.9226 3.15975,-8.9226 0,0 -4.61258,7.6014 -6.10646,12.7823 -0.46678,0.5091 -2.55592,2.8349 -3.16173,4.4176 -1.10212,2.8793 -1.27482,8.3127 -1.29217,10.8902 -0.17383,-0.595 -0.37492,-1.2953 -0.72872,-2.6823 l -1.32601,-7.4375 -0.0916,0.673 c -0.38427,-2.3932 -0.61828,-4.7679 -0.4221,-6.5777 0.0932,-0.8601 0.43862,-1.9357 0.85813,-3.008 0.94295,-1.6852 1.71626,-2.8967 1.71626,-2.8967 0,0 -0.40771,0.4926 -1.03533,1.2885 0.77676,-1.7029 1.54901,-3.0854 1.54901,-3.0854 0,0 -4.11962,4.732 -5.22642,8.0788 -0.78676,1.1573 -1.52857,2.3459 -2.15429,3.4805 0.573,-1.7557 1.20258,-3.3455 1.20258,-3.3455 0,0 -2.66743,2.847 -3.3469,4.6221 -1.35907,3.5506 -1.30516,10.7151 -1.28819,11.8809 -0.0541,-0.2152 -0.15697,-0.6411 -0.35042,-1.5407 l -0.79424,-4.4494 c -0.38098,-2.6283 -0.65005,-5.635 -0.3982,-8.2018 0.48902,-4.9842 4.37625,-14.3766 4.37625,-14.3766 0,0 -1.81852,3.0193 -3.54401,6.5341 -1.5478,1.9282 -5.86168,7.4705 -7.26722,11.18 -0.1745,0.4606 -0.32955,0.9501 -0.47983,1.4414 -0.83802,-3.6364 -1.65093,-8.1802 -1.32403,-11.1959 0.29798,-2.7489 3.09006,-7.7015 3.09006,-7.7015 0,0 -0.78672,0.9471 -1.70829,2.1582 0.52368,-1.376 0.93578,-2.4163 0.93578,-2.4163 0,0 -1.41195,2.3295 -2.9268,5.2832 -0.72578,1.1767 -1.35092,2.3822 -1.63064,3.4269 -0.85433,1.9259 -1.58703,3.8532 -1.87753,5.4103 -0.45434,2.4354 -0.6553,5.3528 -0.68093,8.4819 -0.23152,-1.8662 -0.60066,-5.3836 -0.35042,-7.4554 0.27915,-2.3111 2.0607,-6.675 2.0607,-6.675 0,0 -2.66743,2.847 -3.3469,4.6221 -1.47683,3.8582 -1.28819,12.3216 -1.28819,12.3216 l -2.05871,-11.5533 -1.2862,9.5004 c 0,0 -2.22614,-6.6482 -1.80386,-10.0126 0.5151,-4.1039 5.14877,-11.2952 5.14877,-11.2952 0,0 -6.2723,7.5586 -7.98,12.0655 -0.40913,1.0798 -0.74384,2.2687 -1.02537,3.4547 -0.8144,-3.2132 -1.81372,-7.8585 -1.86758,-11.4024 1.30668,-4.6754 3.40863,-9.7664 3.40863,-9.7664 0,0 -0.48524,0.8099 -1.16276,2.0113 0.49059,-0.9802 0.90392,-1.7552 0.90392,-1.7552 0,0 -4.68742,5.3862 -5.40561,8.73 -0.18319,0.853 -0.22975,1.8761 -0.18716,2.9722 -0.25527,0.7673 -0.46188,1.5004 -0.58536,2.1622 -0.5019,2.6903 -0.68204,5.9799 -0.67097,9.4825 l -0.87406,0.272 c 0,0 -0.86319,-5.8345 -0.51368,-8.728 0.27915,-2.3111 2.05871,-6.6751 2.05871,-6.6751 0,0 -2.66743,2.845 -3.3469,4.6201 -0.23375,0.6107 -0.41181,1.3586 -0.56943,2.1483 -0.56271,-2.9494 -0.96073,-6.0585 -0.71677,-8.3091 0.29799,-2.7489 3.08807,-7.7015 3.08807,-7.7015 0,0 -4.68742,5.3841 -5.40561,8.728 -0.37064,1.7257 -0.1841,4.1419 0.18118,6.4626 l -1.08112,7.9855 -0.39024,0.1231 c -0.45834,-1.4848 -1.46667,-5.0062 -1.58286,-7.7612 0.0131,-0.2181 0.0183,-0.4529 0.0418,-0.6472 0.21905,-1.8135 1.33361,-4.8166 1.81581,-6.0576 1.49104,-3.1446 3.33296,-6.0099 3.33296,-6.0099 0,0 -6.2723,7.5605 -7.98,12.0675 -0.39123,1.0325 -0.71139,2.1657 -0.98555,3.2998 l -0.81831,-4.5844 -1.20656,8.9067 c -0.57258,-3.0293 -1.19949,-7.4196 -0.85215,-10.9596 0.10048,-1.0241 0.36666,-2.2536 0.69088,-3.5301 1.50734,-3.228 3.42853,-6.2264 3.42853,-6.2264 0,0 -1.2063,1.4913 -2.63212,3.3951 1.27933,-4.1105 2.88896,-8.0152 2.88896,-8.0152 z m 42.10605,15.1727 c -0.99577,2.161 -1.87499,4.3819 -2.20206,6.135 -0.5064,2.7144 -0.6858,6.0398 -0.67098,9.5778 -0.55442,-2.1777 -1.10455,-4.9181 -0.87405,-6.7544 0.3296,-2.6261 2.33788,-6.497 3.74709,-8.9584 z m 220.4535,0.6671 c -0.42619,2.2552 0.0186,5.5804 0.58137,8.3647 l -0.77251,5.6903 -0.86211,0.27 c -0.62836,-2.2131 -1.51998,-5.8276 -1.23642,-8.0867 0.22377,-1.7828 1.2289,-4.1327 2.28967,-6.2383 z m -97.23138,0.2184 c -0.71166,5.0963 -0.51995,11.8041 0.006,18.1946 l -1.34593,-7.5546 -1.28818,9.4984 c 0,0 -2.22415,-6.6482 -1.80188,-10.0126 0.3883,-3.0937 3.11014,-7.9263 4.43002,-10.1258 z m -107.288,4.231 c -0.0388,0.1683 -0.0855,0.3435 -0.11548,0.5043 -0.70059,3.7553 -0.78731,8.6607 -0.57142,13.7194 l -0.45993,0.143 c 0,0 -0.86319,-5.8345 -0.51368,-8.728 0.19673,-1.6287 1.1212,-4.2169 1.66051,-5.6387 z m 112.23369,2.0768 c -0.79563,3.6291 -1.06121,7.0443 -1.06121,7.0443 0,0 -0.2089,-0.8354 -0.47386,-2.0867 0.31634,-1.6095 1.0613,-3.7072 1.53507,-4.9576 z m -138.68238,0.274 c 0.58178,3.6926 1.6187,7.1396 1.6187,7.1396 l -1.09506,0.3415 c -0.35541,-2.3538 -0.63183,-5.0473 -0.52364,-7.4811 z m -25.13461,0.7068 c 0.28153,1.0881 0.49377,1.8107 0.49377,1.8107 l -0.16326,0.05 -0.33051,-1.8603 z m 42.31511,0.131 c 0.29728,4.1591 1.61656,8.7681 1.8397,9.5262 l -0.0557,0.4189 -0.29467,0.091 c -0.46221,-1.4636 -1.96617,-6.5038 -1.60476,-9.3832 0.0262,-0.2084 0.0692,-0.4302 0.11548,-0.6532 z m 95.01138,1.0603 -1.16275,8.5771 c 0,0 -0.13745,-0.4184 -0.32454,-1.0404 -0.0305,-0.9418 -0.0186,-1.8382 0.0677,-2.5533 0.17063,-1.4126 0.87664,-3.5024 1.4196,-4.9834 z m 42.36888,0.3673 c 0.27938,1.0787 0.48979,1.7928 0.48979,1.7928 l -0.16128,0.05 -0.32851,-1.8425 z m 56.46726,0.012 c -0.0749,4.1838 0.17489,8.7786 0.56545,13.1575 l -0.16326,1.2052 c 0,0 -2.22415,-6.6482 -1.80187,-10.0126 0.15799,-1.2589 0.71924,-2.8069 1.39968,-4.3501 z m -228.19059,0.3852 c 0.0994,0.3532 0.24489,0.8835 0.24489,0.8835 l -0.1095,0.034 c -0.0449,-0.3081 -0.0944,-0.5994 -0.13539,-0.9173 z m 87.28026,0.6194 c 0.28085,1.0851 0.49377,1.8048 0.49377,1.8048 l -0.16326,0.05 -0.33051,-1.8544 z m 92.41112,0.9213 c 0.0994,0.3532 0.2449,0.8835 0.2449,0.8835 l -0.10952,0.034 c -0.0448,-0.308 -0.0944,-0.5994 -0.13538,-0.9173 z m -84.43908,1.0265 c 0.0994,0.3532 0.24489,0.8835 0.24489,0.8835 l -0.1095,0.034 c -0.0449,-0.3081 -0.0944,-0.5994 -0.13539,-0.9173 z m 162.70003,2.5671 c 0.0994,0.3532 0.24489,0.8836 0.24489,0.8836 l -0.1095,0.034 c -0.0448,-0.3081 -0.0944,-0.5994 -0.13539,-0.9173 z m -144.33687,0.415 c 0.244,0.9261 0.4181,1.497 0.4181,1.497 l -0.25485,0.079 c -0.0658,-0.5142 -0.11216,-1.0465 -0.16325,-1.5764 z m 98.78238,2.7796 c 0.27983,1.0807 0.49178,1.7968 0.49178,1.7968 l -0.16327,0.052 -0.32851,-1.8484 z"
         style="fill:#00aa00;fill-rule:evenodd;stroke:none;stroke-width:1px;stroke-linecap:butt;stroke-linejoin:miter;stroke-opacity:1" />
      <text
         transform="scale(1.0014029,0.99859906)"
         sodipodi:linespacing="125%"
         id="text4234"
         y="1024.4113"
         x="265.60812"
         style="font-style:normal;font-variant:normal;font-weight:normal;font-stretch:normal;font-size:40.71892548px;line-height:125%;font-family:Aileron;-inkscape-font-specification:Aileron;text-align:center;letter-spacing:0px;word-spacing:0px;writing-mode:lr-tb;text-anchor:middle;fill:#000000;fill-opacity:1;stroke:none;stroke-width:1px;stroke-linecap:butt;stroke-linejoin:miter;stroke-opacity:1"
         xml:space="preserve"><tspan
           y="1024.4113"
           x="265.60812"
           id="tspan4236"
           sodipodi:role="line">Hierba húmeda</tspan></text>
      <rect
         ry="18.159618"
         y="823.18292"
         x="0.8209275"
         height="86.650398"
         width="224.88033"
         id="rect4329"
         style="opacity:1;fill:#f2f2f2;fill-opacity:1;stroke:#000000;stroke-width:1.641855;stroke-linecap:round;stroke-linejoin:miter;stroke-miterlimit:4;stroke-dasharray:none;stroke-opacity:1" />
      <text
         transform="scale(1.0014029,0.99859906)"
         sodipodi:linespacing="125%"
         id="text4230"
         y="882.40289"
         x="397.9498"
         style="font-style:normal;font-variant:normal;font-weight:normal;font-stretch:normal;font-size:40.71892548px;line-height:125%;font-family:Aileron;-inkscape-font-specification:Aileron;text-align:center;letter-spacing:0px;word-spacing:0px;writing-mode:lr-tb;text-anchor:middle;fill:#000000;fill-opacity:1;stroke:none;stroke-width:1px;stroke-linecap:butt;stroke-linejoin:miter;stroke-opacity:1"
         xml:space="preserve"><tspan
           y="882.40289"
           x="397.9498"
           id="tspan4232"
           sodipodi:role="line">Lluvia</tspan></text>
      <path
         id="rect4512"
         d="m 0.82020767,891.66605 0,0.008 c 0,10.06043 8.12317003,18.15887 18.21185033,18.15887 l 188.457832,0 c 10.08868,0 18.21185,-8.09844 18.21185,-18.15887 l 0,-0.008 -224.88153233,0 z"
         style="opacity:1;fill:#808080;fill-opacity:1;stroke:none;stroke-width:2;stroke-linecap:round;stroke-linejoin:miter;stroke-miterlimit:4;stroke-dasharray:none;stroke-opacity:1"
         inkscape:connector-curvature="0" />
      <rect
         ry="2.0241551"
         y="884.09607"
         x="103.97713"
         height="9.4393644"
         width="18.567665"
         id="rect4517"
         style="opacity:1;fill:#808000;fill-opacity:1;stroke:none;stroke-width:2;stroke-linecap:round;stroke-linejoin:miter;stroke-miterlimit:4;stroke-dasharray:none;stroke-opacity:1" />
      <ellipse
         ry="1.0910468"
         rx="1.0941103"
         cy="874.37567"
         cx="47.838871"
         id="path4519"
         style="opacity:1;fill:#00ffff;fill-opacity:1;stroke:none;stroke-width:2;stroke-linecap:round;stroke-linejoin:miter;stroke-miterlimit:4;stroke-dasharray:none;stroke-opacity:1" />
      <ellipse
         ry="1.0910468"
         rx="1.0941103"
         style="opacity:1;fill:#00ffff;fill-opacity:1;stroke:none;stroke-width:2;stroke-linecap:round;stroke-linejoin:miter;stroke-miterlimit:4;stroke-dasharray:none;stroke-opacity:1"
         id="circle4521"
         cx="177.44792"
         cy="883.78241" />
      <ellipse
         ry="1.0910468"
         rx="1.0941103"
         cy="876.44196"
         cx="184.28316"
         id="circle4523"
         style="opacity:1;fill:#00ffff;fill-opacity:1;stroke:none;stroke-width:2;stroke-linecap:round;stroke-linejoin:miter;stroke-miterlimit:4;stroke-dasharray:none;stroke-opacity:1" />
      <ellipse
         ry="1.0910468"
         rx="1.0941103"
         style="opacity:1;fill:#00ffff;fill-opacity:1;stroke:none;stroke-width:2;stroke-linecap:round;stroke-linejoin:miter;stroke-miterlimit:4;stroke-dasharray:none;stroke-opacity:1"
         id="circle4525"
         cx="33.469151"
         cy="878.19641" />
      <ellipse
         ry="1.0910468"
         rx="1.0941103"
         style="opacity:1;fill:#00ffff;fill-opacity:1;stroke:none;stroke-width:2;stroke-linecap:round;stroke-linejoin:miter;stroke-miterlimit:4;stroke-dasharray:none;stroke-opacity:1"
         id="circle4527"
         cx="30.643055"
         cy="887.11475" />
      <ellipse
         ry="1.0910468"
         rx="1.0941103"
         cy="874.6228"
         cx="74.616142"
         id="circle4529"
         style="opacity:1;fill:#00ffff;fill-opacity:1;stroke:none;stroke-width:2;stroke-linecap:round;stroke-linejoin:miter;stroke-miterlimit:4;stroke-dasharray:none;stroke-opacity:1" />
      <ellipse
         ry="1.0910468"
         rx="1.0941103"
         style="opacity:1;fill:#00ffff;fill-opacity:1;stroke:none;stroke-width:2;stroke-linecap:round;stroke-linejoin:miter;stroke-miterlimit:4;stroke-dasharray:none;stroke-opacity:1"
         id="circle4531"
         cx="19.679264"
         cy="891.38293" />
      <ellipse
         ry="1.0910468"
         rx="1.0941103"
         cy="855.85492"
         cx="87.801125"
         id="circle4533"
         style="opacity:1;fill:#00ffff;fill-opacity:1;stroke:none;stroke-width:2;stroke-linecap:round;stroke-linejoin:miter;stroke-miterlimit:4;stroke-dasharray:none;stroke-opacity:1" />
      <ellipse
         ry="1.0910468"
         rx="1.0941103"
         cy="865.89838"
         cx="43.000645"
         id="circle4535"
         style="opacity:1;fill:#00ffff;fill-opacity:1;stroke:none;stroke-width:2;stroke-linecap:round;stroke-linejoin:miter;stroke-miterlimit:4;stroke-dasharray:none;stroke-opacity:1" />
      <ellipse
         ry="1.0910468"
         rx="1.0941103"
         style="opacity:1;fill:#00ffff;fill-opacity:1;stroke:none;stroke-width:2;stroke-linecap:round;stroke-linejoin:miter;stroke-miterlimit:4;stroke-dasharray:none;stroke-opacity:1"
         id="circle4537"
         cx="61.099461"
         cy="882.01807" />
      <ellipse
         ry="1.0910468"
         rx="1.0941103"
         cy="882.133"
         cx="163.95946"
         id="circle4539"
         style="opacity:1;fill:#00ffff;fill-opacity:1;stroke:none;stroke-width:2;stroke-linecap:round;stroke-linejoin:miter;stroke-miterlimit:4;stroke-dasharray:none;stroke-opacity:1" />
      <ellipse
         ry="1.0910468"
         rx="1.0941103"
         style="opacity:1;fill:#00ffff;fill-opacity:1;stroke:none;stroke-width:2;stroke-linecap:round;stroke-linejoin:miter;stroke-miterlimit:4;stroke-dasharray:none;stroke-opacity:1"
         id="circle4541"
         cx="82.706062"
         cy="845.0896" />
      <ellipse
         ry="1.0910468"
         rx="1.0941103"
         style="opacity:1;fill:#00ffff;fill-opacity:1;stroke:none;stroke-width:2;stroke-linecap:round;stroke-linejoin:miter;stroke-miterlimit:4;stroke-dasharray:none;stroke-opacity:1"
         id="circle4543"
         cx="94.593269"
         cy="872.27783" />
      <ellipse
         ry="1.0910468"
         rx="1.0941103"
         cy="873.59332"
         cx="49.030384"
         id="circle4545"
         style="opacity:1;fill:#00ffff;fill-opacity:1;stroke:none;stroke-width:2;stroke-linecap:round;stroke-linejoin:miter;stroke-miterlimit:4;stroke-dasharray:none;stroke-opacity:1" />
      <ellipse
         ry="1.0910468"
         rx="1.0941103"
         style="opacity:1;fill:#00ffff;fill-opacity:1;stroke:none;stroke-width:2;stroke-linecap:round;stroke-linejoin:miter;stroke-miterlimit:4;stroke-dasharray:none;stroke-opacity:1"
         id="circle4547"
         cx="178.4698"
         cy="875.96783" />
      <ellipse
         ry="1.0910468"
         rx="1.0941103"
         cy="879.55194"
         cx="116.26012"
         id="circle4549"
         style="opacity:1;fill:#00ffff;fill-opacity:1;stroke:none;stroke-width:2;stroke-linecap:round;stroke-linejoin:miter;stroke-miterlimit:4;stroke-dasharray:none;stroke-opacity:1" />
      <ellipse
         ry="1.0910468"
         rx="1.0941103"
         cy="890.22119"
         cx="44.396305"
         id="circle4551"
         style="opacity:1;fill:#00ffff;fill-opacity:1;stroke:none;stroke-width:2;stroke-linecap:round;stroke-linejoin:miter;stroke-miterlimit:4;stroke-dasharray:none;stroke-opacity:1" />
      <ellipse
         ry="1.0910468"
         rx="1.0941103"
         style="opacity:1;fill:#00ffff;fill-opacity:1;stroke:none;stroke-width:2;stroke-linecap:round;stroke-linejoin:miter;stroke-miterlimit:4;stroke-dasharray:none;stroke-opacity:1"
         id="circle4553"
         cx="45.705967"
         cy="879.98785" />
      <ellipse
         ry="1.0910468"
         rx="1.0941103"
         cy="840.94855"
         cx="143.11592"
         id="circle4555"
         style="opacity:1;fill:#00ffff;fill-opacity:1;stroke:none;stroke-width:2;stroke-linecap:round;stroke-linejoin:miter;stroke-miterlimit:4;stroke-dasharray:none;stroke-opacity:1" />
      <ellipse
         ry="1.0910468"
         rx="1.0941103"
         style="opacity:1;fill:#00ffff;fill-opacity:1;stroke:none;stroke-width:2;stroke-linecap:round;stroke-linejoin:miter;stroke-miterlimit:4;stroke-dasharray:none;stroke-opacity:1"
         id="circle4557"
         cx="53.901478"
         cy="884.62781" />
      <ellipse
         ry="1.0910468"
         rx="1.0941103"
         style="opacity:1;fill:#00ffff;fill-opacity:1;stroke:none;stroke-width:2;stroke-linecap:round;stroke-linejoin:miter;stroke-miterlimit:4;stroke-dasharray:none;stroke-opacity:1"
         id="circle4559"
         cx="209.43462"
         cy="871.9281" />
      <ellipse
         ry="1.0910468"
         rx="1.0941103"
         cy="879.08624"
         cx="201.1263"
         id="circle4561"
         style="opacity:1;fill:#00ffff;fill-opacity:1;stroke:none;stroke-width:2;stroke-linecap:round;stroke-linejoin:miter;stroke-miterlimit:4;stroke-dasharray:none;stroke-opacity:1" />
      <ellipse
         ry="1.0910468"
         rx="1.0941103"
         style="opacity:1;fill:#00ffff;fill-opacity:1;stroke:none;stroke-width:2;stroke-linecap:round;stroke-linejoin:miter;stroke-miterlimit:4;stroke-dasharray:none;stroke-opacity:1"
         id="circle4563"
         cx="43.964039"
         cy="889.69244" />
      <ellipse
         ry="1.0910468"
         rx="1.0941103"
         cy="881.84027"
         cx="49.856373"
         id="circle4565"
         style="opacity:1;fill:#00ffff;fill-opacity:1;stroke:none;stroke-width:2;stroke-linecap:round;stroke-linejoin:miter;stroke-miterlimit:4;stroke-dasharray:none;stroke-opacity:1" />
      <ellipse
         ry="1.0910468"
         rx="1.0941103"
         cy="873.57916"
         cx="16.237385"
         id="circle4567"
         style="opacity:1;fill:#00ffff;fill-opacity:1;stroke:none;stroke-width:2;stroke-linecap:round;stroke-linejoin:miter;stroke-miterlimit:4;stroke-dasharray:none;stroke-opacity:1" />
      <ellipse
         ry="1.0910468"
         rx="1.0941103"
         style="opacity:1;fill:#00ffff;fill-opacity:1;stroke:none;stroke-width:2;stroke-linecap:round;stroke-linejoin:miter;stroke-miterlimit:4;stroke-dasharray:none;stroke-opacity:1"
         id="circle4569"
         cx="133.77803"
         cy="884.23138" />
      <ellipse
         ry="1.0910468"
         rx="1.0941103"
         cy="878.41895"
         cx="176.10667"
         id="circle4571"
         style="opacity:1;fill:#00ffff;fill-opacity:1;stroke:none;stroke-width:2;stroke-linecap:round;stroke-linejoin:miter;stroke-miterlimit:4;stroke-dasharray:none;stroke-opacity:1" />
      <ellipse
         ry="1.0910468"
         rx="1.0941103"
         style="opacity:1;fill:#00ffff;fill-opacity:1;stroke:none;stroke-width:2;stroke-linecap:round;stroke-linejoin:miter;stroke-miterlimit:4;stroke-dasharray:none;stroke-opacity:1"
         id="circle4573"
         cx="174.37386"
         cy="883.27612" />
      <ellipse
         ry="1.0910468"
         rx="1.0941103"
         style="opacity:1;fill:#00ffff;fill-opacity:1;stroke:none;stroke-width:2;stroke-linecap:round;stroke-linejoin:miter;stroke-miterlimit:4;stroke-dasharray:none;stroke-opacity:1"
         id="circle4575"
         cx="199.62434"
         cy="887.39838" />
      <ellipse
         ry="1.0910468"
         rx="1.0941103"
         cy="870.50201"
         cx="77.127922"
         id="circle4577"
         style="opacity:1;fill:#00ffff;fill-opacity:1;stroke:none;stroke-width:2;stroke-linecap:round;stroke-linejoin:miter;stroke-miterlimit:4;stroke-dasharray:none;stroke-opacity:1" />
      <ellipse
         ry="1.0910468"
         rx="1.0941103"
         style="opacity:1;fill:#00ffff;fill-opacity:1;stroke:none;stroke-width:2;stroke-linecap:round;stroke-linejoin:miter;stroke-miterlimit:4;stroke-dasharray:none;stroke-opacity:1"
         id="circle4579"
         cx="136.62419"
         cy="857.6756" />
      <ellipse
         ry="1.0910468"
         rx="1.0941103"
         cy="859.68036"
         cx="102.93819"
         id="circle4581"
         style="opacity:1;fill:#00ffff;fill-opacity:1;stroke:none;stroke-width:2;stroke-linecap:round;stroke-linejoin:miter;stroke-miterlimit:4;stroke-dasharray:none;stroke-opacity:1" />
      <ellipse
         ry="1.0910468"
         rx="1.0941103"
         cy="862.31866"
         cx="123.20824"
         id="circle4583"
         style="opacity:1;fill:#00ffff;fill-opacity:1;stroke:none;stroke-width:2;stroke-linecap:round;stroke-linejoin:miter;stroke-miterlimit:4;stroke-dasharray:none;stroke-opacity:1" />
      <ellipse
         ry="1.0910468"
         rx="1.0941103"
         style="opacity:1;fill:#00ffff;fill-opacity:1;stroke:none;stroke-width:2;stroke-linecap:round;stroke-linejoin:miter;stroke-miterlimit:4;stroke-dasharray:none;stroke-opacity:1"
         id="circle4585"
         cx="149.65666"
         cy="870.02258" />
      <ellipse
         ry="1.0910468"
         rx="1.0941103"
         cy="884.09174"
         cx="201.19298"
         id="circle4587"
         style="opacity:1;fill:#00ffff;fill-opacity:1;stroke:none;stroke-width:2;stroke-linecap:round;stroke-linejoin:miter;stroke-miterlimit:4;stroke-dasharray:none;stroke-opacity:1" />
      <ellipse
         ry="1.0910468"
         rx="1.0941103"
         style="opacity:1;fill:#00ffff;fill-opacity:1;stroke:none;stroke-width:2;stroke-linecap:round;stroke-linejoin:miter;stroke-miterlimit:4;stroke-dasharray:none;stroke-opacity:1"
         id="circle4589"
         cx="107.67751"
         cy="844.36407" />
      <ellipse
         ry="1.0910468"
         rx="1.0941103"
         style="opacity:1;fill:#00ffff;fill-opacity:1;stroke:none;stroke-width:2;stroke-linecap:round;stroke-linejoin:miter;stroke-miterlimit:4;stroke-dasharray:none;stroke-opacity:1"
         id="circle4591"
         cx="35.460438"
         cy="885.48853" />
      <ellipse
         ry="1.0910468"
         rx="1.0941103"
         cy="862.33563"
         cx="47.575352"
         id="circle4593"
         style="opacity:1;fill:#00ffff;fill-opacity:1;stroke:none;stroke-width:2;stroke-linecap:round;stroke-linejoin:miter;stroke-miterlimit:4;stroke-dasharray:none;stroke-opacity:1" />
      <ellipse
         ry="1.0910468"
         rx="1.0941103"
         style="opacity:1;fill:#00ffff;fill-opacity:1;stroke:none;stroke-width:2;stroke-linecap:round;stroke-linejoin:miter;stroke-miterlimit:4;stroke-dasharray:none;stroke-opacity:1"
         id="circle4595"
         cx="159.09386"
         cy="888.82471" />
      <ellipse
         ry="1.0910468"
         rx="1.0941103"
         cy="882.99445"
         cx="213.20641"
         id="circle4597"
         style="opacity:1;fill:#00ffff;fill-opacity:1;stroke:none;stroke-width:2;stroke-linecap:round;stroke-linejoin:miter;stroke-miterlimit:4;stroke-dasharray:none;stroke-opacity:1" />
      <ellipse
         ry="1.0910468"
         rx="1.0941103"
         cy="881.94281"
         cx="192.40041"
         id="circle4599"
         style="opacity:1;fill:#00ffff;fill-opacity:1;stroke:none;stroke-width:2;stroke-linecap:round;stroke-linejoin:miter;stroke-miterlimit:4;stroke-dasharray:none;stroke-opacity:1" />
      <ellipse
         ry="1.0910468"
         rx="1.0941103"
         style="opacity:1;fill:#00ffff;fill-opacity:1;stroke:none;stroke-width:2;stroke-linecap:round;stroke-linejoin:miter;stroke-miterlimit:4;stroke-dasharray:none;stroke-opacity:1"
         id="circle4601"
         cx="183.87141"
         cy="864.2027" />
      <ellipse
         ry="1.0910468"
         rx="1.0941103"
         cy="843.72821"
         cx="139.69835"
         id="circle4603"
         style="opacity:1;fill:#00ffff;fill-opacity:1;stroke:none;stroke-width:2;stroke-linecap:round;stroke-linejoin:miter;stroke-miterlimit:4;stroke-dasharray:none;stroke-opacity:1" />
      <ellipse
         ry="1.0910468"
         rx="1.0941103"
         style="opacity:1;fill:#00ffff;fill-opacity:1;stroke:none;stroke-width:2;stroke-linecap:round;stroke-linejoin:miter;stroke-miterlimit:4;stroke-dasharray:none;stroke-opacity:1"
         id="circle4605"
         cx="193.07372"
         cy="892.599" />
      <ellipse
         ry="1.0910468"
         rx="1.0941103"
         style="opacity:1;fill:#00ffff;fill-opacity:1;stroke:none;stroke-width:2;stroke-linecap:round;stroke-linejoin:miter;stroke-miterlimit:4;stroke-dasharray:none;stroke-opacity:1"
         id="circle4607"
         cx="97.447273"
         cy="875.99255" />
      <ellipse
         ry="1.0910468"
         rx="1.0941103"
         cy="874.26556"
         cx="190.96544"
         id="circle4609"
         style="opacity:1;fill:#00ffff;fill-opacity:1;stroke:none;stroke-width:2;stroke-linecap:round;stroke-linejoin:miter;stroke-miterlimit:4;stroke-dasharray:none;stroke-opacity:1" />
      <ellipse
         ry="1.0910468"
         rx="1.0941103"
         style="opacity:1;fill:#00ffff;fill-opacity:1;stroke:none;stroke-width:2;stroke-linecap:round;stroke-linejoin:miter;stroke-miterlimit:4;stroke-dasharray:none;stroke-opacity:1"
         id="circle4611"
         cx="15.090428"
         cy="890.4538" />
      <ellipse
         ry="1.0910468"
         rx="1.0941103"
         cy="873.85785"
         cx="69.627007"
         id="circle4613"
         style="opacity:1;fill:#00ffff;fill-opacity:1;stroke:none;stroke-width:2;stroke-linecap:round;stroke-linejoin:miter;stroke-miterlimit:4;stroke-dasharray:none;stroke-opacity:1" />
      <ellipse
         ry="1.0910468"
         rx="1.0941103"
         cy="875.13007"
         cx="179.52736"
         id="circle4615"
         style="opacity:1;fill:#00ffff;fill-opacity:1;stroke:none;stroke-width:2;stroke-linecap:round;stroke-linejoin:miter;stroke-miterlimit:4;stroke-dasharray:none;stroke-opacity:1" />
      <ellipse
         ry="1.0910468"
         rx="1.0941103"
         style="opacity:1;fill:#00ffff;fill-opacity:1;stroke:none;stroke-width:2;stroke-linecap:round;stroke-linejoin:miter;stroke-miterlimit:4;stroke-dasharray:none;stroke-opacity:1"
         id="circle4617"
         cx="37.392857"
         cy="887.22388" />
      <ellipse
         ry="1.0910468"
         rx="1.0941103"
         cy="844.81134"
         cx="124.71972"
         id="circle4619"
         style="opacity:1;fill:#00ffff;fill-opacity:1;stroke:none;stroke-width:2;stroke-linecap:round;stroke-linejoin:miter;stroke-miterlimit:4;stroke-dasharray:none;stroke-opacity:1" />
      <ellipse
         ry="1.0910468"
         rx="1.0941103"
         style="opacity:1;fill:#00ffff;fill-opacity:1;stroke:none;stroke-width:2;stroke-linecap:round;stroke-linejoin:miter;stroke-miterlimit:4;stroke-dasharray:none;stroke-opacity:1"
         id="circle4621"
         cx="143.52824"
         cy="869.26886" />
      <ellipse
         ry="1.0910468"
         rx="1.0941103"
         style="opacity:1;fill:#00ffff;fill-opacity:1;stroke:none;stroke-width:2;stroke-linecap:round;stroke-linejoin:miter;stroke-miterlimit:4;stroke-dasharray:none;stroke-opacity:1"
         id="circle4623"
         cx="121.59261"
         cy="868.32147" />
      <ellipse
         ry="1.0910468"
         rx="1.0941103"
         cy="846.16119"
         cx="138.12941"
         id="circle4625"
         style="opacity:1;fill:#00ffff;fill-opacity:1;stroke:none;stroke-width:2;stroke-linecap:round;stroke-linejoin:miter;stroke-miterlimit:4;stroke-dasharray:none;stroke-opacity:1" />
      <ellipse
         ry="1.0910468"
         rx="1.0941103"
         style="opacity:1;fill:#00ffff;fill-opacity:1;stroke:none;stroke-width:2;stroke-linecap:round;stroke-linejoin:miter;stroke-miterlimit:4;stroke-dasharray:none;stroke-opacity:1"
         id="circle4627"
         cx="160.31245"
         cy="842.13684" />
      <ellipse
         ry="1.0910468"
         rx="1.0941103"
         cy="847.33124"
         cx="161.41139"
         id="circle4629"
         style="opacity:1;fill:#00ffff;fill-opacity:1;stroke:none;stroke-width:2;stroke-linecap:round;stroke-linejoin:miter;stroke-miterlimit:4;stroke-dasharray:none;stroke-opacity:1" />
      <ellipse
         ry="1.0910468"
         rx="1.0941103"
         cy="889.40601"
         cx="175.26646"
         id="circle4631"
         style="opacity:1;fill:#00ffff;fill-opacity:1;stroke:none;stroke-width:2;stroke-linecap:round;stroke-linejoin:miter;stroke-miterlimit:4;stroke-dasharray:none;stroke-opacity:1" />
      <ellipse
         ry="1.0910468"
         rx="1.0941103"
         style="opacity:1;fill:#00ffff;fill-opacity:1;stroke:none;stroke-width:2;stroke-linecap:round;stroke-linejoin:miter;stroke-miterlimit:4;stroke-dasharray:none;stroke-opacity:1"
         id="circle4633"
         cx="108.81359"
         cy="868.89734" />
      <ellipse
         ry="1.0910468"
         rx="1.0941103"
         cy="888.61377"
         cx="50.881107"
         id="circle4635"
         style="opacity:1;fill:#00ffff;fill-opacity:1;stroke:none;stroke-width:2;stroke-linecap:round;stroke-linejoin:miter;stroke-miterlimit:4;stroke-dasharray:none;stroke-opacity:1" />
      <ellipse
         ry="1.0910468"
         rx="1.0941103"
         style="opacity:1;fill:#00ffff;fill-opacity:1;stroke:none;stroke-width:2;stroke-linecap:round;stroke-linejoin:miter;stroke-miterlimit:4;stroke-dasharray:none;stroke-opacity:1"
         id="circle4637"
         cx="155.37907"
         cy="863.96887" />
      <ellipse
         ry="1.0910468"
         rx="1.0941103"
         style="opacity:1;fill:#00ffff;fill-opacity:1;stroke:none;stroke-width:2;stroke-linecap:round;stroke-linejoin:miter;stroke-miterlimit:4;stroke-dasharray:none;stroke-opacity:1"
         id="circle4639"
         cx="117.3785"
         cy="882.84583" />
      <ellipse
         ry="1.0910468"
         rx="1.0941103"
         cy="852.88269"
         cx="148.6971"
         id="circle4641"
         style="opacity:1;fill:#00ffff;fill-opacity:1;stroke:none;stroke-width:2;stroke-linecap:round;stroke-linejoin:miter;stroke-miterlimit:4;stroke-dasharray:none;stroke-opacity:1" />
      <ellipse
         ry="1.0910468"
         rx="1.0941103"
         style="opacity:1;fill:#00ffff;fill-opacity:1;stroke:none;stroke-width:2;stroke-linecap:round;stroke-linejoin:miter;stroke-miterlimit:4;stroke-dasharray:none;stroke-opacity:1"
         id="circle4643"
         cx="145.36333"
         cy="860.38068" />
      <ellipse
         ry="1.0910468"
         rx="1.0941103"
         cy="844.05261"
         cx="109.7109"
         id="circle4645"
         style="opacity:1;fill:#00ffff;fill-opacity:1;stroke:none;stroke-width:2;stroke-linecap:round;stroke-linejoin:miter;stroke-miterlimit:4;stroke-dasharray:none;stroke-opacity:1" />
      <ellipse
         ry="1.0910468"
         rx="1.0941103"
         cy="864.93878"
         cx="204.14308"
         id="circle4647"
         style="opacity:1;fill:#00ffff;fill-opacity:1;stroke:none;stroke-width:2;stroke-linecap:round;stroke-linejoin:miter;stroke-miterlimit:4;stroke-dasharray:none;stroke-opacity:1" />
      <ellipse
         ry="1.0910468"
         rx="1.0941103"
         style="opacity:1;fill:#00ffff;fill-opacity:1;stroke:none;stroke-width:2;stroke-linecap:round;stroke-linejoin:miter;stroke-miterlimit:4;stroke-dasharray:none;stroke-opacity:1"
         id="circle4649"
         cx="166.79225"
         cy="888.90369" />
      <ellipse
         ry="1.0910468"
         rx="1.0941103"
         cy="888.47974"
         cx="105.70071"
         id="circle4651"
         style="opacity:1;fill:#00ffff;fill-opacity:1;stroke:none;stroke-width:2;stroke-linecap:round;stroke-linejoin:miter;stroke-miterlimit:4;stroke-dasharray:none;stroke-opacity:1" />
      <ellipse
         ry="1.0910468"
         rx="1.0941103"
         style="opacity:1;fill:#00ffff;fill-opacity:1;stroke:none;stroke-width:2;stroke-linecap:round;stroke-linejoin:miter;stroke-miterlimit:4;stroke-dasharray:none;stroke-opacity:1"
         id="circle4653"
         cx="184.02208"
         cy="883.57819" />
      <ellipse
         ry="1.0910468"
         rx="1.0941103"
         style="opacity:1;fill:#00ffff;fill-opacity:1;stroke:none;stroke-width:2;stroke-linecap:round;stroke-linejoin:miter;stroke-miterlimit:4;stroke-dasharray:none;stroke-opacity:1"
         id="circle4655"
         cx="115.05871"
         cy="870.26837" />
      <ellipse
         ry="1.0910468"
         rx="1.0941103"
         cy="873.42896"
         cx="23.000599"
         id="circle4657"
         style="opacity:1;fill:#00ffff;fill-opacity:1;stroke:none;stroke-width:2;stroke-linecap:round;stroke-linejoin:miter;stroke-miterlimit:4;stroke-dasharray:none;stroke-opacity:1" />
      <ellipse
         ry="1.0910468"
         rx="1.0941103"
         style="opacity:1;fill:#00ffff;fill-opacity:1;stroke:none;stroke-width:2;stroke-linecap:round;stroke-linejoin:miter;stroke-miterlimit:4;stroke-dasharray:none;stroke-opacity:1"
         id="circle4659"
         cx="149.80882"
         cy="873.91669" />
      <ellipse
         ry="1.0910468"
         rx="1.0941103"
         cy="854.1792"
         cx="152.18968"
         id="circle4661"
         style="opacity:1;fill:#00ffff;fill-opacity:1;stroke:none;stroke-width:2;stroke-linecap:round;stroke-linejoin:miter;stroke-miterlimit:4;stroke-dasharray:none;stroke-opacity:1" />
      <text
         transform="scale(1.0014029,0.99859906)"
         sodipodi:linespacing="125%"
         id="text4226"
         y="882.40289"
         x="111.31236"
         style="font-style:normal;font-variant:normal;font-weight:normal;font-stretch:normal;font-size:40.71892548px;line-height:125%;font-family:Aileron;-inkscape-font-specification:Aileron;text-align:center;letter-spacing:0px;word-spacing:0px;writing-mode:lr-tb;text-anchor:middle;fill:#000000;fill-opacity:1;stroke:none;stroke-width:1px;stroke-linecap:butt;stroke-linejoin:miter;stroke-opacity:1"
         xml:space="preserve"><tspan
           y="882.40289"
           x="111.31237"
           id="tspan4228"
           sodipodi:role="line">Rociador</tspan></text>
      <path
         inkscape:connector-curvature="0"
         id="path4671"
         d="m 299.64598,868.04839 -59.21066,0"
         style="fill:none;fill-rule:evenodd;stroke:#000000;stroke-width:1.01797318px;stroke-linecap:butt;stroke-linejoin:miter;stroke-opacity:1;marker-end:url(#Arrow1Lend)" />
      <path
         sodipodi:nodetypes="cc"
         inkscape:connector-curvature="0"
         id="path5073"
         d="M 365.03515,922.47237 345.4699,955.33214"
         style="fill:none;fill-rule:evenodd;stroke:#000000;stroke-width:1.01797318px;stroke-linecap:butt;stroke-linejoin:miter;stroke-opacity:1;marker-end:url(#marker5075)" />
      <path
         style="fill:none;fill-rule:evenodd;stroke:#000000;stroke-width:1.01797318px;stroke-linecap:butt;stroke-linejoin:miter;stroke-opacity:1;marker-end:url(#marker5391)"
         d="m 164.75456,922.47237 19.56524,32.85977"
         id="path5389"
         inkscape:connector-curvature="0"
         sodipodi:nodetypes="cc" />
    </g>
  </g>
</svg>
