<svg height="24" viewBox="0 0 24 24" width="24" xmlns="http://www.w3.org/2000/svg"><g transform="matrix(1.25 0 0 -1.25 0 24.000017)"><path d="m0 0h19.2v19.2h-19.2z" fill="#231f20"/><path d="m9.5992071 18.182809c-4.8593401 0-8.7992071-3.939867-8.7992071-8.8002882 0-3.8880019 2.5212314-7.186082 6.0181186-8.3502689.4402848-.0804834.6007292.1912353.6007292.4246098 0 .2085329-.00733.7622646-.011917 1.4964332-2.4477697-.531585-2.9642205 1.1798527-2.9642205 1.1798527-.400309 1.0167041-.977269 1.2873595-.977269 1.2873595-.7989955.5456284.0605.5348209.0605.5348209.8832738-.06215 1.3478687-.907034 1.3478687-.907034.7849434-1.3446237 2.0598821-.9562039 2.5612079-.7309328.079933.5683159.3068546.956204.5585992 1.176076-1.9539972.2220354-4.0084796.9772691-4.0084796 4.349361 0 .9605218.3430447 1.7460048.9059614 2.3613278-.09075.222576-.3927465 1.117189.085892 2.328914 0 0 .739027.23662 2.4202146-.902175.7017553.195562 1.4548256.292802 2.2030376.296038.7471399-.0037 1.5002099-.100476 2.2030469-.296038 1.680106 1.138795 2.41751.902175 2.41751.902175.480261-1.211725.178274-2.106338.08754-2.328914.563998-.615323.90488-1.400806.90488-2.3613278 0-3.3807361-2.057719-4.1246306-4.018197-4.3423393.316031-.2717371.597485-.8087212.597485-1.6298634 0-1.1760668-.01082-2.1252491-.01082-2.4137338 0-.2355378.158281-.50942908.605047-.4235373 3.494188 1.1663502 6.013265 4.4622762 6.013265 8.3491964 0 4.8604212-3.940408 8.8002882-8.8008204 8.8002882" fill="#fff" fill-rule="evenodd"/></g></svg>