<?xml version="1.0" encoding="UTF-8" standalone="no"?>
<!-- Created with Inkscape (http://www.inkscape.org/) -->

<svg
   xmlns:dc="http://purl.org/dc/elements/1.1/"
   xmlns:cc="http://creativecommons.org/ns#"
   xmlns:rdf="http://www.w3.org/1999/02/22-rdf-syntax-ns#"
   xmlns:svg="http://www.w3.org/2000/svg"
   xmlns="http://www.w3.org/2000/svg"
   xmlns:sodipodi="http://sodipodi.sourceforge.net/DTD/sodipodi-0.dtd"
   xmlns:inkscape="http://www.inkscape.org/namespaces/inkscape"
   width="600"
   height="427"
   viewBox="0 0 600.00001 427.00001"
   id="svg2"
   version="1.1"
   inkscape:version="0.91 r13725"
   sodipodi:docname="drawing.svg">
  <defs
     id="defs4" />
  <sodipodi:namedview
     id="base"
     pagecolor="#ffffff"
     bordercolor="#666666"
     borderopacity="1.0"
     inkscape:pageopacity="0.0"
     inkscape:pageshadow="2"
     inkscape:zoom="0.7"
     inkscape:cx="294.66008"
     inkscape:cy="242.60004"
     inkscape:document-units="px"
     inkscape:current-layer="layer1"
     showgrid="false"
     inkscape:window-width="1366"
     inkscape:window-height="745"
     inkscape:window-x="-8"
     inkscape:window-y="-8"
     inkscape:window-maximized="1"
     units="px" />
  <metadata
     id="metadata7">
    <rdf:RDF>
      <cc:Work
         rdf:about="">
        <dc:format>image/svg+xml</dc:format>
        <dc:type
           rdf:resource="http://purl.org/dc/dcmitype/StillImage" />
        <dc:title></dc:title>
      </cc:Work>
    </rdf:RDF>
  </metadata>
  <g
     inkscape:label="Layer 1"
     inkscape:groupmode="layer"
     id="layer1"
     transform="translate(0,-625.36216)">
    <g
       id="g4201"
       transform="matrix(1.0858252,0,0,1.1801734,-100.88655,293.00672)">
      <path
         inkscape:connector-curvature="0"
         id="path4147"
         d="m 138.3909,281.61581 0,314.15745 507.09658,0"
         style="fill:none;fill-rule:evenodd;stroke:#000000;stroke-width:1px;stroke-linecap:butt;stroke-linejoin:miter;stroke-opacity:1" />
      <text
         transform="matrix(0,-1,1,0,0,0)"
         sodipodi:linespacing="125%"
         id="text4149"
         y="118.0612"
         x="-436.6539"
         style="font-style:normal;font-variant:normal;font-weight:normal;font-stretch:normal;font-size:33.98496246px;line-height:125%;font-family:aileron;-inkscape-font-specification:aileron;text-align:center;letter-spacing:0px;word-spacing:0px;writing-mode:lr-tb;text-anchor:middle;fill:#800141;fill-opacity:1;stroke:none;stroke-width:1px;stroke-linecap:butt;stroke-linejoin:miter;stroke-opacity:1"
         xml:space="preserve"><tspan
           style="font-style:normal;font-variant:normal;font-weight:normal;font-stretch:normal;font-family:aileron;-inkscape-font-specification:aileron;fill:#800141;fill-opacity:1"
           y="118.0612"
           x="-436.6539"
           id="tspan4151"
           sodipodi:role="line">Progreso humano</tspan></text>
      <text
         xml:space="preserve"
         style="font-style:normal;font-variant:normal;font-weight:normal;font-stretch:normal;font-size:33.98496246px;line-height:125%;font-family:aileron;-inkscape-font-specification:aileron;text-align:center;letter-spacing:0px;word-spacing:0px;writing-mode:lr-tb;text-anchor:middle;fill:#800141;fill-opacity:1;stroke:none;stroke-width:1px;stroke-linecap:butt;stroke-linejoin:miter;stroke-opacity:1"
         x="397.81177"
         y="636.76599"
         id="text4153"
         sodipodi:linespacing="125%"><tspan
           sodipodi:role="line"
           id="tspan4155"
           x="397.81177"
           y="636.76599"
           style="font-style:normal;font-variant:normal;font-weight:normal;font-stretch:normal;font-family:aileron;-inkscape-font-specification:aileron;fill:#800141;fill-opacity:1">Tiempo</tspan></text>
      <path
         sodipodi:nodetypes="ccccccccccccccccccc"
         inkscape:connector-curvature="0"
         id="path4157"
         d="m 137.9028,591.22079 c 13.7989,-0.22636 27.92645,1.01015 40.71429,-2.14286 27.72067,-2.86282 57.26327,-0.28419 85.43004,-2.14285 15.99648,-0.45263 32.42354,0.91867 48.14139,-0.71429 5.72845,-1.0112 11.1394,-1.56887 17.14285,-1.42857 7.21766,-2.25049 14.7175,-3.24615 22.85715,-2.85714 8.67613,-1.09828 17.33661,-0.73193 25.71428,-2.85715 19.64199,-2.40443 40.40392,-1.11356 60.71429,-1.42857 15.21116,-4.97803 34.05281,-2.08855 50.97128,-2.85714 9.30387,1.57985 16.53986,-3.01249 25.20766,-3.57143 9.54217,-0.39466 19.76332,0.84988 28.82106,-0.71428 5.81038,-3.79658 15.43012,-5.01928 21.89322,-7.85715 5.197,0.83489 10.91718,-1.37604 19.28572,-2.14285 9.6979,2.47098 12.57335,-5.29998 13.82106,-10.71429 1.17819,-8.67754 2.44634,-16.6896 4.28571,-25 0.40885,-3.66551 1.55773,-10.04969 3.79613,-19.50668 1.97168,-4.00856 2.92821,-46.54217 6.20387,-72.63618 4.39723,-17.97642 0.56595,-38.8502 2.98282,-58.188 1.18644,-21.31693 3.9398,-42.57798 3.44576,-63.95485"
         style="fill:none;fill-rule:evenodd;stroke:#31c700;stroke-width:4;stroke-linecap:butt;stroke-linejoin:miter;stroke-miterlimit:4;stroke-dasharray:none;stroke-opacity:1" />
      <path
         inkscape:connector-curvature="0"
         id="path4162"
         d="m 612.42837,319.45866 c 0.92593,-0.89675 1.13939,-2.28735 2.09536,-3.16156 0.71531,-1.36676 1.61726,-2.62787 2.19515,-4.06343 0.74302,-1.66435 1.82927,-3.1575 2.41751,-4.89341 0.25358,-0.57085 0.49901,-1.82642 0.91484,-0.66484 0.65592,1.06746 1.06559,2.26602 1.26276,3.49816 0.25904,1.12137 0.40522,2.33952 1.15854,3.26189 0.34204,1.49848 0.96357,3.0829 2.37272,3.87918 0.27103,0.17045 0.55635,0.32338 0.79737,0.53683"
         style="fill:none;fill-rule:evenodd;stroke:#31c700;stroke-width:4;stroke-linecap:round;stroke-linejoin:miter;stroke-miterlimit:4;stroke-dasharray:none;stroke-opacity:1" />
      <path
         sodipodi:nodetypes="ccccc"
         inkscape:connector-curvature="0"
         id="path4169"
         d="m 580.26888,540.41722 c -1.29504,-0.0304 -2.76029,1.10183 -2.4902,2.49837 0.42493,1.6662 2.66317,2.52501 4.07385,1.51711 0.98406,-0.75056 0.86948,-2.24494 0.16896,-3.14875 -0.43502,-0.6157 -1.07433,-0.94235 -1.88115,-0.85634"
         style="fill:none;fill-rule:evenodd;stroke:#000000;stroke-width:1px;stroke-linecap:butt;stroke-linejoin:miter;stroke-opacity:1" />
      <path
         inkscape:connector-curvature="0"
         id="path4171"
         d="m 580.35816,545.14937 c 0.7349,2.44499 0.13044,5.01896 0.4795,7.50992 -0.0449,1.5878 0.23077,3.2213 -0.25634,4.76684"
         style="fill:none;fill-rule:evenodd;stroke:#000000;stroke-width:1px;stroke-linecap:butt;stroke-linejoin:miter;stroke-opacity:1" />
      <path
         inkscape:connector-curvature="0"
         id="path4173"
         d="m 578.21531,552.96187 c 0.60692,-1.16446 2.20743,-1.91413 3.38778,-1.12902 0.46439,0.25767 0.66163,0.74584 0.98701,1.129"
         style="fill:none;fill-rule:evenodd;stroke:#000000;stroke-width:1px;stroke-linecap:butt;stroke-linejoin:miter;stroke-opacity:1" />
      <path
         inkscape:connector-curvature="0"
         id="path4179"
         d="m 578.46915,559.77056 c 0.66126,-0.86601 1.0905,-2.05193 2.14966,-2.51299 0.84539,-0.2873 1.26127,0.66796 1.91512,0.94024 0.13563,0.0734 0.26977,0.14971 0.39917,0.23366"
         style="fill:none;fill-rule:evenodd;stroke:#000000;stroke-width:1px;stroke-linecap:butt;stroke-linejoin:miter;stroke-opacity:1" />
    </g>
  </g>
</svg>
