<?xml version="1.0" encoding="UTF-8" standalone="no"?>
<!-- Created with Inkscape (http://www.inkscape.org/) -->

<svg
   xmlns:dc="http://purl.org/dc/elements/1.1/"
   xmlns:cc="http://creativecommons.org/ns#"
   xmlns:rdf="http://www.w3.org/1999/02/22-rdf-syntax-ns#"
   xmlns:svg="http://www.w3.org/2000/svg"
   xmlns="http://www.w3.org/2000/svg"
   xmlns:sodipodi="http://sodipodi.sourceforge.net/DTD/sodipodi-0.dtd"
   xmlns:inkscape="http://www.inkscape.org/namespaces/inkscape"
   width="16"
   height="16"
   viewBox="0 0 16 16"
   id="svg2"
   version="1.1"
   inkscape:version="0.91 r13725"
   sodipodi:docname="angel.svg">
  <defs
     id="defs4" />
  <sodipodi:namedview
     id="base"
     pagecolor="#ffffff"
     bordercolor="#666666"
     borderopacity="1.0"
     inkscape:pageopacity="0.0"
     inkscape:pageshadow="2"
     inkscape:zoom="3.959798"
     inkscape:cx="32.699251"
     inkscape:cy="0.47610902"
     inkscape:document-units="px"
     inkscape:current-layer="layer1"
     showgrid="false"
     inkscape:window-width="1366"
     inkscape:window-height="744"
     inkscape:window-x="0"
     inkscape:window-y="0"
     inkscape:window-maximized="1"
     units="px" />
  <metadata
     id="metadata7">
    <rdf:RDF>
      <cc:Work
         rdf:about="">
        <dc:format>image/svg+xml</dc:format>
        <dc:type
           rdf:resource="http://purl.org/dc/dcmitype/StillImage" />
        <dc:title></dc:title>
      </cc:Work>
    </rdf:RDF>
  </metadata>
  <g
     inkscape:label="Layer 1"
     inkscape:groupmode="layer"
     id="layer1"
     transform="translate(0,-1036.3622)">
    <ellipse
       style="opacity:1;fill:#ffeb3b;fill-opacity:1;stroke:#000000;stroke-width:0.28393582;stroke-linecap:round;stroke-linejoin:miter;stroke-miterlimit:4;stroke-dasharray:none;stroke-dashoffset:0;stroke-opacity:0"
       id="path4147"
       cx="8"
       cy="1044.5884"
       rx="7.8580317"
       ry="7.6318169" />
    <path
       style="opacity:1;fill:#00bcd4;fill-opacity:1;stroke:#000000;stroke-width:0.23731966;stroke-linecap:round;stroke-linejoin:miter;stroke-miterlimit:4;stroke-dasharray:none;stroke-dashoffset:0;stroke-opacity:0"
       d="m 6.2064503,1036.6502 a 2.2755178,5.9051214 82.545344 0 0 -5.23961846,3.0944 2.2755178,5.9051214 82.545344 0 0 6.42577886,1.3343 2.2755178,5.9051214 82.545344 0 0 5.2393563,-3.0944 2.2755178,5.9051214 82.545344 0 0 -6.4255167,-1.3343 z m 0.2359892,0.8811 a 1.3704478,4.1657823 82.202353 0 1 4.4730255,0.7122 1.3704478,4.1657823 82.202353 0 1 -3.7588406,1.9543 1.3704478,4.1657823 82.202353 0 1 -4.4730272,-0.7122 1.3704478,4.1657823 82.202353 0 1 3.7588423,-1.9543 z"
       id="path4168"
       inkscape:connector-curvature="0" />
    <path
       style="fill:#ffeb3b;fill-opacity:1;fill-rule:evenodd;stroke:none;stroke-width:1px;stroke-linecap:butt;stroke-linejoin:miter;stroke-opacity:1"
       d="m 7.9999345,1036.9567 c -2.0768723,0 -4.0686561,0.8015 -5.539988,2.2251 -0.1060328,0.301 0.5823603,0.8624 1.0106317,0.8047 7.0811068,-0.9548 7.7697708,-0.6058 7.4282128,-2.4846 -0.9221367,-0.358 -1.9057838,-0.543 -2.8988565,-0.5452 z"
       id="path4175"
       inkscape:connector-curvature="0"
       sodipodi:nodetypes="ccscc" />
    <path
       style="opacity:1;fill:#795548;fill-opacity:1;stroke:none;stroke-width:2;stroke-linecap:round;stroke-linejoin:miter;stroke-miterlimit:4;stroke-dasharray:none;stroke-dashoffset:0;stroke-opacity:0"
       d="m 4.7258196,1042.832 c -0.7671575,0 -1.3890555,0.5285 -1.3890771,1.1804 4.322e-4,0.1384 -0.00259,0.5214 0.085814,0.4053 0.3167804,-0.4161 0.7200091,-0.7761 1.3032626,-0.7769 0.5829234,5e-4 0.9866463,0.3597 1.3035434,0.7755 0.08817,0.1157 0.084983,-0.266 0.085533,-0.4039 -2.16e-5,-0.6519 -0.6219196,-1.1804 -1.389077,-1.1804 z"
       id="path4183"
       inkscape:connector-curvature="0"
       sodipodi:nodetypes="ccscscc" />
    <path
       sodipodi:nodetypes="ccscscc"
       inkscape:connector-curvature="0"
       id="path4188"
       d="m 11.274179,1042.832 c -0.767158,0 -1.3890554,0.5285 -1.389077,1.1804 4.322e-4,0.1384 -0.00259,0.5214 0.085814,0.4053 0.316781,-0.4161 0.720009,-0.7761 1.303263,-0.7769 0.582924,5e-4 0.986646,0.3597 1.303544,0.7755 0.08817,0.1157 0.08498,-0.266 0.08553,-0.4039 -2.2e-5,-0.6519 -0.621919,-1.1804 -1.389077,-1.1804 z"
       style="opacity:1;fill:#795548;fill-opacity:1;stroke:none;stroke-width:2;stroke-linecap:round;stroke-linejoin:miter;stroke-miterlimit:4;stroke-dasharray:none;stroke-dashoffset:0;stroke-opacity:0" />
    <path
       style="opacity:1;fill:#795548;fill-opacity:1;stroke:none;stroke-width:2;stroke-linecap:round;stroke-linejoin:miter;stroke-miterlimit:4;stroke-dasharray:none;stroke-dashoffset:0;stroke-opacity:0"
       d="m 7.9999993,1049.4565 c 1.5105528,0 2.7350867,-0.5982 2.7351287,-1.336 -8.64e-4,-0.1566 0.0051,-0.5903 -0.168971,-0.4588 -0.6237478,0.4711 -1.417717,0.8784 -2.5661577,0.8793 -1.1477909,0 -1.9427326,-0.4071 -2.5667108,-0.8777 -0.1736083,-0.131 -0.1673346,0.3012 -0.1684179,0.4572 4.32e-5,0.7378 1.2245759,1.336 2.7351287,1.336 z"
       id="path4190"
       inkscape:connector-curvature="0"
       sodipodi:nodetypes="ccscscc" />
  </g>
</svg>
