<svg height="24" viewBox="0 0 24 24" width="24" xmlns="http://www.w3.org/2000/svg"><path d="m0 0.11328v23.887h24v-23.887h-24zm12.006 1.8926c0.11209 0.033328 0.48143 0.12698 0.82031 0.20703 0.33888 0.080048 0.6603 0.18376 0.71484 0.23242 0.05453 0.048696-0.043672 0.64906-0.2168 1.332-0.17313 0.68299-0.31445 1.2887-0.31445 1.3477 0 0.059055 0.2763 0.16297 0.61523 0.23242l0.61523 0.12891 0.11133-0.39648c0.060089-0.21764 0.21039-0.8178 0.33203-1.334 0.1597-0.67748 0.27466-0.93855 0.41406-0.9375 0.24008 0.0018181 1.4891 0.33087 1.5723 0.41406 0.050829 0.050815-0.32113 1.8584-0.52734 2.5605-0.045218 0.15394 0.18933 0.32297 0.9707 0.70117 1.8064 0.87433 2.5189 1.8801 2.3984 3.3809-0.097221 1.2111-0.72483 2.1901-1.6582 2.582l-0.39648 0.16602 0.57227 0.42773c0.3143 0.23459 0.70463 0.67549 0.86719 0.98047 0.25465 0.47866 0.28743 0.68258 0.24414 1.4824-0.087988 1.6267-0.94982 3.0147-2.2207 3.5801-0.53324 0.23718-0.85964 0.29102-1.877 0.29492-0.67777 0.00261-1.4627-0.039234-1.7441-0.089844l-0.51172-0.091797-0.34375 1.418c-0.38387 1.5739-0.30145 1.5026-1.4355 1.2051-0.45446-0.11922-0.70898-0.24975-0.70898-0.36523-1e-6 -0.099015 0.14179-0.73678 0.31445-1.418 0.17263-0.68117 0.29553-1.2519 0.27539-1.2676-0.096503-0.074974-1.1386-0.29108-1.2051-0.25-0.041726 0.025794-0.20666 0.60316-0.36719 1.2832-0.16054 0.68005-0.32768 1.2923-0.36914 1.3594-0.063803 0.10324-0.97044-0.058133-1.6875-0.29883-0.10061-0.033773-0.039114-0.45887 0.20898-1.4395 0.25521-1.0085 0.31179-1.415 0.20898-1.4785-0.077969-0.048199-0.85141-0.26432-1.7207-0.48047-1.7949-0.44631-1.6949-0.28957-1.0703-1.6816 0.19174-0.42736 0.39169-0.77614 0.44531-0.77539 0.053667 7.98e-4 0.39914 0.080154 0.76562 0.17773 0.8154 0.21702 1.0653 0.11258 1.2324-0.51953 0.9615-3.6378 1.8726-7.5908 1.8086-7.8457-0.090604-0.36099-0.57321-0.64505-1.3027-0.76172-0.28404-0.045426-0.54476-0.15792-0.58008-0.25-0.035368-0.09216 0.031635-0.55676 0.14844-1.0332 0.16937-0.6911 0.25138-0.85438 0.41211-0.80664 0.64674 0.192 3.2579 0.81563 3.2871 0.78516 0.019162-0.020012 0.18277-0.66079 0.36523-1.4258 0.27482-1.1522 0.36826-1.3823 0.53711-1.332zm0.82812 5.459c-0.17474-0.027616-0.29564-0.028466-0.32422 0.0039062-0.04506 0.05109-0.23043 0.70172-0.41211 1.4473-0.18168 0.74555-0.35804 1.4513-0.39258 1.5664-0.066013 0.2201 0.34243 0.37637 1.5508 0.5957 0.69204 0.12562 1.6574 0.035391 2.1035-0.19531 0.41057-0.21231 0.79851-1.1201 0.66406-1.5527-0.16237-0.52246-0.51741-0.90846-1.1152-1.207-0.53238-0.26589-1.55-0.57537-2.0742-0.6582zm-1.625 5.123c-0.092514 0.092514-0.90687 3.5672-0.85547 3.6504 0.05292 0.08562 1.3809 0.39133 2.4082 0.55274 0.49647 0.078007 1.5086-0.059613 1.9473-0.26367 0.74819-0.34804 1.0024-1.4093 0.52148-2.1875-0.32704-0.52917-1.4143-1.0926-2.8418-1.4746-0.6328-0.16932-1.1635-0.29357-1.1797-0.27734z" fill="#f7931a"/></svg>
