<svg height="24" viewBox="0 0 24 24" width="24" xmlns="http://www.w3.org/2000/svg"><path d="m0 0h24v24h-24z" fill="#ffd42a"/><path d="m4.3798828 3.2031253v17.5429697h.3300781v.02539l9.5214841.02539c3.053951-.000657 5.388032-2.412856 5.388672-5.388672-.002-1.758264-.861448-3.405041-2.302735-4.412109.342272-.718853.521034-1.5046075.523438-2.3007821.000439-2.9765791-1.956398-5.4373652-5.263672-5.453125zm9.3671872 5.4921875c0 .5426468-.301504 1.1445316-.890625 1.1445316h-4.3085933v-2.3906254h3.6874993c.994988 0 1.511719.4922044 1.511719 1.2460939zm-5.1992183 5.3144532h5.3769523c.859901 0 1.601563.186308 1.601563 1.398438 0 1.05122-.894502 1.193359-1.410156 1.193359h-5.5683593z" fill="#fff"/></svg>