<svg height="24" viewBox="0 0 24 24" width="24" xmlns="http://www.w3.org/2000/svg"><path d="m0 1028.3622h24v24h-24z" fill="#c87137" transform="translate(0 -1028.3622)"/><g fill="#fff" transform="matrix(.70710678 .70710678 -.70710678 .70710678 13.649459 -3.565031)"><rect height="9" ry="1" width="4" x="7.358542" y="15"/><path d="m11.880329 2.8609832c-.260185 0-.165264.5457464-.390625.6757813-.165223.095335-.572266 0-.572266 0l-.03516-.037109c-.190506-.2010879-.222999-.5-.5-.5h-1.9999997c-.277 0-.5.223-.5.5 0 0-.3195149.10562-.4853869.1269531-.4891233.062907-1.0237921-.188598-1.4794561 0-.7873435.3258792-1.382563 1.0686674-1.808594 1.8066407-.2533681.4388857-.392578 1.46875-.392578 1.46875 0 0 .4718811-.3157448.732422-.4238281.5435106-.225471 1.1166556-.4570358 1.705078-.4570313.4199184.0000032.8533479.1158479 1.216797.3261719.2091858.1210535.511718.5136718.511718.5136718v5.6386714c0 .277.223.5.5.5h1.9999997c.277001 0 .5-.223.5-.5v-6.4277338c0 0 .465368-.108963.654297 0 .273655.1578275.158704.8203124.47461.8203124h2.132812c.234322 0 .496094-.4980468.496094-.4980468v-3.0429688c0 0-.259135-.4902344-.490234-.4902344z"/></g></svg>